<svg width="64" height="38" viewBox="0 0 64 38" fill="none" xmlns="http://www.w3.org/2000/svg">
<path d="M48.8381 8.87934L48.4113 8.45256V9.05611V11.3578V14.6488H45.1203H18.7396H15.4485V11.3578V9.09152V8.48797L15.0218 8.91475L5.07145 18.8651L4.89468 19.0418L5.07145 19.2186L15.0218 29.1689L15.4485 29.5957V28.9921V26.7259V23.4348H18.7396H45.1203H48.4113V26.7259V28.9567V29.5603L48.8381 29.1335L58.7884 19.1832L58.9652 19.0064L58.7884 18.8296L48.8381 8.87934ZM45.1203 11.5724H45.3703V11.3224V1.12577L63.2865 19.042L45.4057 36.9571V26.7613V26.5113H45.1557H18.775H18.525V26.7613V36.9579L0.608925 19.0418L18.525 1.12577V11.3224V11.5724H18.775H45.1203Z" fill="#010002" stroke="white" stroke-width="0.5"/>
</svg>
