<?xml version="1.0" encoding="utf-8"?>
<!-- Generator: Adobe Illustrator 24.2.0, SVG Export Plug-In . SVG Version: 6.00 Build 0)  -->
<svg version="1.1" id="Слой_1" xmlns="http://www.w3.org/2000/svg" xmlns:xlink="http://www.w3.org/1999/xlink" x="0px" y="0px"
	 viewBox="0 0 74 73" style="enable-background:new 0 0 74 73;" xml:space="preserve">
<style type="text/css">
	.st0{fill:#FFFFFF;stroke:#FFFFFF;}
	.st1{fill:#FFFFFF;}
</style>
<path class="st0" d="M51.4,24.5l0.2-0.2l0,0l14.2-14l0.4-0.4l-0.4-0.4l-0.1-0.1l0,0l-1.9-2l-0.4-0.4l-0.4,0.4L48.7,21.7L48.3,22
	l0.3,0.4l2.1,2.1l0.4,0.4L51.4,24.5z"/>
<path class="st0" d="M71.2,22.2L71,21.7l-0.4,0.2l-6.7,3.3h0l-8.8,4.3l-0.4,0.2l0.2,0.4l0.1,0.2l0,0l0,0l1.3,2.6l0.2,0.4l0.4-0.2
	l8.6-4.3l0,0l6.8-3.3l0.5-0.2L72.6,25L71.2,22.2z"/>
<path class="st0" d="M47.8,1.1l-0.4-0.2l-0.2,0.4l-2.7,5.4l0,0l-4.9,9.7l-0.2,0.4l0.4,0.2l1,0.5l0,0l1.9,0.9l0.4,0.2l0.2-0.4l7.6-15
	l0.2-0.4l-0.4-0.2L47.8,1.1z"/>
<path class="st1" d="M72.8,59c-4.7-4.7-9.6-9.6-13.5-13.6L54,40.2l-1.7,1.6c-2.1,2-3.9,3.7-5.7,5.5c-0.3,0.3-0.6,0.4-0.7,0.4
	c-0.2,0-0.5-0.1-0.6-0.2c-8.1-4.9-14.7-11.5-19.7-19.7c-0.3-0.5-0.3-0.9,0.1-1.3c1.1-1.1,2.2-2.2,3.3-3.3l2.1-2.2
	c0.1-0.1,0.2-0.2,0.3-0.3c0.1-0.1,0.2-0.2,0.3-0.3l1.1-1.1l-1.6-1.6c-3.3-3.4-6.8-6.8-10.3-10.4L13.8,0l-1.4,1.4
	c-0.3,0.3-0.7,0.7-1.1,1C8.9,4.9,6.8,7,4.8,8.9c-2.3,2.2-3.5,4.7-3.8,7.6c0,0.1,0,0.2,0,0.2l-0.1,0.2v1.9l0,0.1
	c0.4,3.3,2.1,6.1,3.7,8.8l0.2,0.3C5,28.3,5.2,28.7,5.4,29c4.4,7.8,10.1,15.2,16.9,22c4.2,4.2,8.7,8,13.2,11.3
	c4.7,3.4,9.8,6.4,14.9,8.9c0.9,0.5,1.9,0.7,3,1c0.4,0.1,0.9,0.2,1.3,0.3l0.3,0l1.8,0c0.2,0,0.5-0.1,0.8-0.1c0.5-0.1,1-0.2,1.5-0.4
	c2-0.6,3.7-1.6,5.3-3.3c1.3-1.3,2.5-2.6,3.8-3.8l5.3-5.3L72.8,59z M25.5,19.5c-0.2,0.1-0.3,0.3-0.4,0.4L25,20
	c-0.3,0.3-0.6,0.5-0.9,0.8c-0.3,0.3-0.6,0.6-0.9,0.9c-0.3,0.3-0.6,0.6-0.9,0.9c-0.9,0.9-1.9,1.9-2.9,2.9L19,26l0.3,0.6
	c1.8,4.1,4.4,8,8.1,12.2c5.5,6.3,11.2,11,17.7,14.3c0.1,0,0.2,0.1,0.3,0.2l0.2,0.1c0.7,0.4,1,0.5,1.1,0.5l0.5,0.1l0.4-0.3
	c0.1-0.1,0.3-0.3,0.6-0.6c0.2-0.2,0.3-0.3,0.5-0.5c0.7-0.7,1.4-1.3,2.1-2l3.1-3l8.4,8.4l3.7,3.6l-3.5,3.7c-0.8,0.9-1.7,1.8-2.6,2.7
	L59.8,66c0,0,0,0-0.1,0.1l-0.1,0l-0.2,0.2c-2.1,1.4-4.4,1.5-6.8,0.3C44.9,62.8,37.6,57.9,31,52c-10.2-9-18.3-19.4-24.1-31.1
	c-1.4-2.8-1-5.6,1-7.8c1.3-1.4,2.7-2.7,3.8-3.8C11.9,9.2,12,9,12.2,8.9c0.1-0.1,0.3-0.3,0.4-0.4c0.1-0.1,0.3-0.3,0.4-0.4
	c0.1-0.1,0.3-0.3,0.4-0.4c0,0,0.2-0.1,0.3-0.2l11.9,11.7l0.2,0.2L25.5,19.5z"/>
</svg>
