<svg width="80" height="61" viewBox="0 0 80 61" fill="none" xmlns="http://www.w3.org/2000/svg">
<path d="M72.4615 0.677643H7.53843C3.72582 0.677643 0.615356 3.78472 0.615356 7.60072V53.7546C0.615356 57.5576 3.71197 60.6776 7.53843 60.6776H72.4615C76.2646 60.6776 79.3846 57.581 79.3846 53.7546V7.60072C79.3846 3.79764 76.288 0.677643 72.4615 0.677643ZM71.5055 5.29303L40.1467 36.652L8.51674 5.29303H71.5055ZM5.23074 52.7989V8.53441L27.4583 30.5713L5.23074 52.7989ZM8.49428 56.0623L30.7358 33.8207L38.5292 41.5472C39.4314 42.4416 40.8872 42.4387 41.7857 41.5401L49.3846 33.9412L71.5057 56.0623H8.49428ZM74.7692 52.7987L52.6481 30.6776L74.7692 8.55641V52.7987Z" fill="white"/>
</svg>
