<svg width="74" height="73" viewBox="0 0 74 73" fill="none" xmlns="http://www.w3.org/2000/svg">
<path d="M58.9895 71.8706L58.9895 71.8706C58.5174 71.9955 58.0048 72.1203 57.5053 72.2316C57.3063 72.2918 57.0923 72.3409 56.8425 72.3576L56.8259 72.3587H56.8092H55.1174H55.0505L54.9859 72.3411C54.5347 72.218 54.0965 72.1084 53.6525 71.9975C53.6521 71.9973 53.6516 71.9972 53.6511 71.9971L53.6191 71.9893C52.6171 71.7456 51.6035 71.4991 50.7099 71.0598C45.5525 68.5507 40.5496 65.5405 35.8398 62.1266C31.2826 58.8376 26.8529 55.0483 22.6475 50.8429L22.6471 50.8425C15.8806 44.0621 10.1965 36.68 5.76384 28.9174C5.53987 28.5532 5.33028 28.1899 5.12468 27.8335L5.12301 27.8306L5.12198 27.8288L4.95783 27.5415C4.95764 27.5412 4.95746 27.5409 4.95727 27.5406C3.33033 24.7831 1.7341 22.0773 1.30256 18.8695L1.2981 18.8363V18.8028V17.1249V17.0286L1.33386 16.9392C1.36477 16.8619 1.38577 16.7618 1.39722 16.6359L1.39781 16.6293L1.39786 16.6293C1.68861 13.8381 2.91397 11.4454 5.08131 9.32114L5.08287 9.31962L5.08287 9.31962C7.03505 7.42282 9.14016 5.31773 11.5399 2.91803L11.5468 2.9111L11.5469 2.91117C11.9033 2.56843 12.2466 2.22519 12.5938 1.87799L13.3287 1.14303L13.6835 0.788244L14.0371 1.14426C16.263 3.38578 18.4295 5.56387 20.5484 7.69423C24.1041 11.2691 27.5261 14.7094 30.8713 18.0895C30.8717 18.0898 30.872 18.0902 30.8724 18.0906L31.7997 19.0178L32.1533 19.3714L31.7997 19.7249L31.799 19.7256L31.7984 19.7262L31.7977 19.7269L31.7971 19.7275L31.7964 19.7282L31.7958 19.7288L31.7951 19.7295L31.7945 19.7302L31.7938 19.7308L31.7932 19.7315L31.7925 19.7321L31.7919 19.7328L31.7912 19.7334L31.7906 19.7341L31.7899 19.7347L31.7893 19.7354L31.7886 19.736L31.7879 19.7367L31.7873 19.7373L31.7866 19.738L31.786 19.7387L31.7853 19.7393L31.7847 19.74L31.784 19.7406L31.7834 19.7413L31.7827 19.7419L31.782 19.7426L31.7814 19.7433L31.7807 19.7439L31.7801 19.7446L31.7794 19.7452L31.7787 19.7459L31.7781 19.7466L31.7774 19.7472L31.7768 19.7479L31.7761 19.7485L31.7754 19.7492L31.7748 19.7499L31.7741 19.7505L31.7735 19.7512L31.7728 19.7518L31.7721 19.7525L31.7715 19.7532L31.7708 19.7538L31.7701 19.7545L31.7695 19.7552L31.7688 19.7558L31.7682 19.7565L31.7675 19.7571L31.7668 19.7578L31.7662 19.7585L31.7655 19.7591L31.7648 19.7598L31.7642 19.7605L31.7635 19.7611L31.7628 19.7618L31.7622 19.7625L31.7615 19.7631L31.7608 19.7638L31.7602 19.7645L31.7595 19.7651L31.7588 19.7658L31.7582 19.7665L31.7575 19.7671L31.7568 19.7678L31.7562 19.7685L31.7555 19.7691L31.7548 19.7698L31.7542 19.7705L31.7535 19.7711L31.7528 19.7718L31.7522 19.7725L31.7515 19.7732L31.7508 19.7738L31.7501 19.7745L31.7495 19.7752L31.7488 19.7758L31.7481 19.7765L31.7475 19.7772L31.7468 19.7779L31.7461 19.7785L31.7454 19.7792L31.7448 19.7799L31.7441 19.7805L31.7434 19.7812L31.7428 19.7819L31.7421 19.7826L31.7414 19.7832L31.7407 19.7839L31.7401 19.7846L31.7394 19.7853L31.7387 19.7859L31.738 19.7866L31.7374 19.7873L31.7367 19.7879L31.736 19.7886L31.7353 19.7893L31.7347 19.79L31.734 19.7906L31.7333 19.7913L31.7326 19.792L31.732 19.7927L31.7313 19.7934L31.7306 19.794L31.7299 19.7947L31.7293 19.7954L31.7286 19.7961L31.7279 19.7967L31.7272 19.7974L31.7266 19.7981L31.7259 19.7988L31.7252 19.7994L31.7245 19.8001L31.7238 19.8008L31.7232 19.8015L31.7225 19.8022L31.7218 19.8028L31.7211 19.8035L31.7204 19.8042L31.7198 19.8049L31.7191 19.8056L31.7184 19.8062L31.7177 19.8069L31.7171 19.8076L31.7164 19.8083L31.7157 19.809L31.715 19.8096L31.7143 19.8103L31.7136 19.811L31.713 19.8117L31.7123 19.8124L31.7116 19.813L31.7109 19.8137L31.7102 19.8144L31.7096 19.8151L31.7089 19.8158L31.7082 19.8164L31.7075 19.8171L31.7068 19.8178L31.7062 19.8185L31.7055 19.8192L31.7048 19.8199L31.7041 19.8205L31.7034 19.8212L31.7027 19.8219L31.7021 19.8226L31.7014 19.8233L31.7007 19.8239L31.7 19.8246L31.6993 19.8253L31.6986 19.826L31.698 19.8267L31.6973 19.8274L31.6966 19.8281L31.6959 19.8287L31.6952 19.8294L31.6945 19.8301L31.6938 19.8308L31.6932 19.8315L31.6925 19.8322L31.6918 19.8328L31.6911 19.8335L31.6904 19.8342L31.6897 19.8349L31.6891 19.8356L31.6884 19.8363L31.6877 19.837L31.687 19.8376L31.6863 19.8383L31.6856 19.839L31.6849 19.8397L31.6843 19.8404L31.6836 19.8411L31.6829 19.8418L31.6822 19.8424L31.6815 19.8431L31.6808 19.8438L31.6801 19.8445L31.6794 19.8452L31.6788 19.8459L31.6781 19.8466L31.6774 19.8473L31.6767 19.8479L31.676 19.8486L31.6753 19.8493L31.6746 19.85L31.6739 19.8507L31.6733 19.8514L31.6726 19.8521L31.6719 19.8528L31.6712 19.8534L31.6705 19.8541L31.6698 19.8548L31.6691 19.8555L31.6684 19.8562L31.6678 19.8569L31.6671 19.8576L31.6664 19.8583L31.6657 19.859L31.665 19.8596L31.6643 19.8603L31.6636 19.861L31.6629 19.8617L31.6622 19.8624L31.6616 19.8631L31.6609 19.8638L31.6602 19.8645L31.6595 19.8652L31.6588 19.8658L31.6581 19.8665L31.6574 19.8672L31.6567 19.8679L31.656 19.8686L31.6554 19.8693L31.6547 19.87L31.654 19.8707L31.6533 19.8714L31.6526 19.872L31.6519 19.8727L31.6512 19.8734L31.6505 19.8741L31.6498 19.8748L31.6491 19.8755L31.6485 19.8762L31.6478 19.8769L31.6471 19.8776L31.6464 19.8783L31.6457 19.8789L31.645 19.8796L31.6443 19.8803L31.6436 19.881L31.6429 19.8817L31.6422 19.8824L31.6416 19.8831L31.6409 19.8838L31.6402 19.8845L31.6395 19.8852L31.6388 19.8859L31.6381 19.8865L31.6374 19.8872L31.6367 19.8879L31.636 19.8886L31.6353 19.8893L31.6346 19.89L31.634 19.8907L31.6333 19.8914L31.6326 19.8921L31.6319 19.8928L31.6312 19.8934L31.6305 19.8941L31.6298 19.8948L31.6291 19.8955L31.6284 19.8962L31.6277 19.8969L31.6271 19.8976L31.6264 19.8983L31.6257 19.899L31.625 19.8997L31.6243 19.9004L31.6236 19.901L31.6229 19.9017L31.6222 19.9024L31.6215 19.9031L31.6208 19.9038L31.6201 19.9045L31.6195 19.9052L31.6188 19.9059L31.6181 19.9066L31.6174 19.9073L31.6167 19.9079L31.616 19.9086L31.6153 19.9093L31.6146 19.91L31.6139 19.9107L31.6132 19.9114L31.6125 19.9121L31.6119 19.9128L31.6112 19.9135L31.6105 19.9142L31.6098 19.9149L31.6091 19.9155L31.6084 19.9162L31.6077 19.9169L31.607 19.9176L31.6063 19.9183L31.6056 19.919L31.605 19.9197L31.6043 19.9204L31.6036 19.9211L31.6029 19.9218L31.6022 19.9224L31.6015 19.9231L31.6008 19.9238L31.6001 19.9245L31.5994 19.9252L31.5987 19.9259L31.5981 19.9266L31.5974 19.9273L31.5967 19.928L31.596 19.9287L31.5953 19.9293L31.5946 19.93L31.5939 19.9307L31.5932 19.9314L31.5925 19.9321L31.5919 19.9328L31.5912 19.9335L31.5905 19.9342L31.5898 19.9349L31.5891 19.9355L31.5884 19.9362L31.5877 19.9369L31.587 19.9376L31.5863 19.9383L31.5857 19.939L31.585 19.9397L31.5843 19.9404L31.5836 19.9411L31.5829 19.9417L31.5822 19.9424L31.5815 19.9431L31.5808 19.9438L31.5801 19.9445L31.5795 19.9452L31.5788 19.9459L31.5781 19.9466L31.5774 19.9472L31.5767 19.9479L31.576 19.9486L31.5753 19.9493L31.5746 19.95L31.574 19.9507L31.5733 19.9514L31.5726 19.9521L31.5719 19.9527L31.5712 19.9534L31.5705 19.9541L31.5698 19.9548L31.5692 19.9555L31.5685 19.9562L31.5678 19.9569L31.5671 19.9575L31.5664 19.9582L31.5657 19.9589L31.565 19.9596L31.5644 19.9603L31.5637 19.961L31.563 19.9617L31.5623 19.9623L31.5616 19.963L31.5609 19.9637L31.5602 19.9644L31.5596 19.9651L31.5589 19.9658L31.5582 19.9665L31.5575 19.9671L31.5568 19.9678L31.5561 19.9685L31.5554 19.9692L31.5548 19.9699L31.5541 19.9706L31.5534 19.9712L31.5527 19.9719L31.552 19.9726L31.5513 19.9733L31.5507 19.974L31.55 19.9747L31.5493 19.9753L31.5486 19.976L31.5479 19.9767L31.5472 19.9774L31.5466 19.9781L31.5459 19.9788L31.5452 19.9794L31.5445 19.9801L31.5438 19.9808L31.5432 19.9815L31.5425 19.9822L31.5418 19.9828L31.5411 19.9835L31.5404 19.9842L31.5398 19.9849L31.5391 19.9856L31.5384 19.9862L31.5377 19.9869L31.537 19.9876L31.5363 19.9883L31.5357 19.989L31.535 19.9897L31.5343 19.9903L31.5336 19.991L31.533 19.9917L31.5323 19.9924L31.5316 19.993L31.5309 19.9937L31.5302 19.9944L31.5296 19.9951L31.5289 19.9958L31.5282 19.9964L31.5275 19.9971L31.5268 19.9978L31.5262 19.9985L31.5255 19.9991L31.5248 19.9998L31.5241 20.0005L31.5235 20.0012L31.5228 20.0019L31.5221 20.0025L31.5214 20.0032L31.5208 20.0039L31.5201 20.0046L31.5194 20.0052L31.5187 20.0059L31.5181 20.0066L31.5174 20.0073L31.5167 20.0079L31.516 20.0086L31.5154 20.0093L31.5147 20.01L31.514 20.0106L31.5133 20.0113L31.5127 20.012L31.512 20.0127L31.5113 20.0133L31.5106 20.014L31.51 20.0147L31.5093 20.0153L31.5086 20.016L31.5079 20.0167L31.5073 20.0174L31.5066 20.018L31.5059 20.0187L31.5053 20.0194L31.5046 20.0201L31.5039 20.0207L31.5032 20.0214L31.5026 20.0221L31.5019 20.0227L31.5012 20.0234L31.5006 20.0241L31.4999 20.0247L31.4992 20.0254L31.4986 20.0261L31.4979 20.0268L31.4972 20.0274L31.4966 20.0281L31.4959 20.0288L31.4952 20.0294L31.4945 20.0301L31.4939 20.0308L31.4932 20.0314L31.4925 20.0321L31.4919 20.0328L31.4912 20.0334L31.4905 20.0341L31.4899 20.0348L31.4892 20.0354L31.4886 20.0361L31.4879 20.0368L31.4872 20.0374L31.4866 20.0381L31.4859 20.0387L31.4852 20.0394L31.4846 20.0401L31.4839 20.0407L31.4832 20.0414L31.4826 20.0421L31.4819 20.0427L31.4812 20.0434L31.4806 20.0441L31.4799 20.0447L31.4793 20.0454L31.4786 20.046L31.4779 20.0467L31.4773 20.0474L31.4766 20.048L31.476 20.0487L31.4753 20.0493L31.4746 20.05L31.474 20.0507L31.4733 20.0513L31.4727 20.052L31.472 20.0526L31.4713 20.0533L31.4707 20.054L31.47 20.0546L31.4694 20.0553L31.4687 20.0559L31.4681 20.0566L31.4674 20.0572L31.4667 20.0579L31.4661 20.0586L31.4654 20.0592L31.4648 20.0599L31.4641 20.0605L31.4635 20.0612L31.4628 20.0618L31.4622 20.0625L31.4615 20.0631L31.4608 20.0638L31.4602 20.0645L31.4595 20.0651L31.4589 20.0658L31.4586 20.066C31.3508 20.1808 31.2372 20.2944 31.1301 20.4015L31.1271 20.4044C31.0151 20.5165 30.91 20.6216 30.8125 20.7257L30.8048 20.7338L30.8047 20.7337C30.457 21.0884 30.1025 21.4464 29.7473 21.805L29.7435 21.809C29.3892 22.1666 29.0343 22.525 28.683 22.8832L28.6818 22.8844C27.6009 23.9792 26.491 25.103 25.3808 26.2131C25.0688 26.5315 24.9215 26.8446 24.8881 27.1411C24.8545 27.4382 24.9288 27.7746 25.1603 28.1507L25.1614 28.1526C30.1816 36.3912 36.8777 43.0871 45.0601 48.0653L45.061 48.0658C45.2835 48.2018 45.5898 48.353 45.9512 48.353C46.3207 48.353 46.6845 48.203 47.0537 47.8338L47.0593 47.8283L47.0593 47.8283L47.471 47.4295C49.1257 45.826 50.8097 44.1942 52.7301 42.3378C52.7305 42.3374 52.731 42.3369 52.7315 42.3365L53.3534 41.7283L53.357 41.7248L53.6898 41.4059L54.0443 41.0662L54.3904 41.4144L58.9245 45.9763L58.925 45.9767M58.9895 71.8706L72.1563 59.9429C67.4565 55.2431 62.5353 50.308 58.5704 46.3292L58.925 45.9767M58.9895 71.8706L58.9985 71.8681C60.8945 71.3285 62.5766 70.2939 64.1273 68.7145L64.1278 68.714C65.4292 67.3849 66.7724 66.0417 68.0763 64.7378L70.6972 62.1169L72.5138 60.3003L72.8673 59.9468L72.5138 59.5932C67.8133 54.8927 62.8909 49.9565 58.925 45.9767M58.9895 71.8706L58.925 45.9767M26.4238 19.4544L25.8308 18.8866L25.8261 18.8821L25.8261 18.8821L14.3995 7.64964L14.3965 7.64663L14.3965 7.64662L13.5944 6.84449L13.5843 6.85052C13.5829 6.85168 13.5813 6.85297 13.5795 6.85442C13.5637 6.86747 13.5411 6.88669 13.5123 6.91179C13.4552 6.96158 13.3823 7.02697 13.3064 7.09603C13.1517 7.23684 13.0003 7.37863 12.9542 7.42474L12.9451 7.43381L12.945 7.43369C12.8118 7.56028 12.6811 7.69093 12.5451 7.82689L12.543 7.82898C12.4092 7.96279 12.2702 8.10181 12.1268 8.23799C11.9936 8.36458 11.8629 8.49523 11.7269 8.63119L11.7249 8.63328C11.5916 8.76657 11.4531 8.90502 11.3104 9.0407C10.0358 10.2737 8.72637 11.5558 7.4599 12.9048L7.45791 12.9069C5.25463 15.2268 4.8431 18.2702 6.35034 21.2979C12.214 33.0388 20.3829 43.5824 30.64 52.6384L30.6402 52.6386C37.306 58.5315 44.619 63.471 52.3719 67.3199C53.5602 67.9004 54.7327 68.1831 55.8385 68.1831C57.1873 68.1831 58.5066 67.7818 59.7781 66.9485L59.9025 66.8241H59.9616C60.0514 66.7614 60.1313 66.7056 60.21 66.6275L60.3189 66.5135C61.17 65.6226 62.0312 64.7211 62.8795 63.8197L62.8817 63.8174L62.91 63.7878C63.7463 62.9103 64.5824 62.0331 65.4049 61.1694L26.4238 19.4544ZM26.4238 19.4544L25.809 20.0309M26.4238 19.4544L25.809 20.0309M27.6991 38.6559C33.1422 44.9362 38.8764 49.5831 45.2511 52.8615L45.2605 52.8664L45.2702 52.8709C45.3732 52.9184 45.4635 52.9695 45.5705 53.03C45.6319 53.0648 45.6988 53.1026 45.7767 53.1447C46.2987 53.4466 46.5872 53.5766 46.7729 53.6231L47.0192 53.6846L47.2143 53.5221C47.3231 53.4314 47.4933 53.2736 47.8064 52.9182C47.9708 52.7401 48.128 52.5699 48.297 52.4007C49.048 51.6885 49.7988 50.9645 50.5253 50.2638L50.6803 50.1143L50.681 50.1137C51.1107 49.6978 51.5267 49.2957 51.9427 48.8936L51.9432 48.893C52.3937 48.4562 52.8308 48.0328 53.2678 47.6094L53.2882 47.5897L53.2897 47.5882L53.8417 47.0491L54.3904 47.585L54.3937 47.5883L62.6275 55.7805L62.6308 55.7838L66.1669 59.2367L66.1669 59.2367L66.7125 59.7696L66.1954 60.3374L66.1883 60.345L65.4054 61.1689L28.0764 38.3278M27.6991 38.6559C27.6989 38.6557 27.6988 38.6555 27.6986 38.6553L28.0764 38.3278M27.6991 38.6559C27.6992 38.656 27.6992 38.656 27.6992 38.656L28.0764 38.3278M27.6991 38.6559C24.0552 34.4675 21.501 30.6127 19.6875 26.5359L19.5469 26.2196L19.7934 25.9766C20.7601 25.0237 21.7274 24.0427 22.656 23.1002M28.0764 38.3278C24.4571 34.1677 21.9333 30.3542 20.1444 26.3327C21.1151 25.3759 22.0858 24.3913 23.0149 23.4483M22.656 23.1002C22.655 23.1012 22.6541 23.1021 22.6532 23.1031L23.0149 23.4483M22.656 23.1002C22.9496 22.7927 23.2427 22.4996 23.5447 22.1976C23.8388 21.8896 24.1459 21.5825 24.4482 21.2802L24.4502 21.2782C24.7076 21.0208 25.005 20.7516 25.2911 20.4928L25.3238 20.46L25.3415 20.4424L25.3608 20.4266C25.5004 20.3124 25.6426 20.1833 25.809 20.0309M22.656 23.1002C22.6569 23.0993 22.6578 23.0984 22.6587 23.0974L23.0149 23.4483M23.0149 23.4483C23.3061 23.1433 23.5973 22.8521 23.9024 22.547C24.1936 22.2419 24.4987 21.9368 24.8038 21.6317C25.0534 21.3821 25.3446 21.1187 25.6358 20.8552L25.6774 20.8136L25.809 20.0309" fill="white" stroke="white"/>
<path d="M51.4357 24.5091L51.6274 24.3174L51.6298 24.315L65.869 10.27L66.2274 9.91642L65.8714 9.56043L65.7491 9.43814L65.7466 9.43563L63.8077 7.469L63.4566 7.11284L63.1005 7.4641L48.6786 21.6918L48.325 22.0407L48.6715 22.3966L50.7239 24.5044L51.0774 24.8674L51.4357 24.5091Z" fill="white" stroke="white"/>
<path d="M71.2494 22.1587L71.0281 21.7119L70.5807 21.9319L63.9245 25.2045L63.9244 25.2045L55.1189 29.531L54.6895 29.742L54.8813 30.1802L54.9784 30.4021L54.9835 30.4138L54.9892 30.4253L56.2927 33.0323L56.515 33.4769L56.961 33.2572L65.5991 29.0005L65.6002 29L72.4218 25.6585L72.8727 25.4376L72.6499 24.9876L71.2494 22.1587Z" fill="white" stroke="white"/>
<path d="M47.8 1.12085L47.3524 0.893746L47.127 1.34221L44.4233 6.72181L44.4229 6.72268L39.5421 16.3872L39.3171 16.8328L39.7622 17.0586L40.719 17.5439L40.7203 17.5445L42.5924 18.4875L43.0391 18.7125L43.2639 18.2657L50.8354 3.21982L51.0594 2.77466L50.615 2.54917L47.8 1.12085Z" fill="white" stroke="white"/>
</svg>
