<svg width="37" height="58" viewBox="0 0 37 58" fill="none" xmlns="http://www.w3.org/2000/svg">
<path d="M36.0398 45.279C36.0287 45.0552 35.9842 44.8426 35.8952 44.6412C35.7282 44.2607 36.4961 45.1559 22.8089 30.2846C26.0137 27.6215 26.2252 22.821 23.3319 19.8222C22.4083 18.8598 21.2622 18.1996 20.027 17.8863V12.9852H22.8089C23.6658 12.9852 24.3891 12.3362 24.467 11.4745L25.3572 2.41078C25.4462 1.41488 24.6784 0.564453 23.688 0.564453H13.0054C12.015 0.564453 11.2472 1.42607 11.3474 2.41078L12.2376 11.4745C12.3266 12.3362 13.0388 12.9852 13.8956 12.9852H16.6776V19.3634C16.6776 20.2921 17.4231 21.0418 18.3467 21.0418C20.3386 21.0418 22.0189 22.7875 22.0189 24.8464C22.0189 26.8829 20.372 28.539 18.3467 28.539C17.1115 28.539 15.9765 27.9236 15.2866 26.8941C14.7747 26.122 13.7398 25.9094 12.972 26.4242C12.2042 26.9389 11.9928 27.9795 12.5047 28.7516C12.8941 29.3335 13.3615 29.8482 13.8845 30.2846C0.253017 45.1 1.04309 44.216 0.920682 44.4174C0.809404 44.5964 0.720382 44.7979 0.686999 45.0217C0.642488 45.2454 0.664744 44.3615 0.664744 56.1779C0.664744 57.1067 1.4103 57.8564 2.3339 57.8564H34.3818C35.3054 57.8564 36.0509 57.1067 36.0509 56.1779C36.0398 44.1712 36.0398 45.4133 36.0398 45.279ZM14.8526 3.9214H21.852L21.2956 9.62822H15.4201L14.8526 3.9214ZM19.6264 31.7729L30.5538 43.6453H6.13959L17.067 31.7729C17.8905 31.9296 18.7473 31.9407 19.6264 31.7729ZM32.7015 54.4994H3.99194V47.0023H32.7015V54.4994Z" fill="black"/>
</svg>
