<svg width="64" height="86" viewBox="0 0 64 86" fill="none" xmlns="http://www.w3.org/2000/svg">
<path d="M32 0.177643C14.87 0.177643 0.924561 13.9915 0.924561 30.9599C0.924561 52.0294 28.7316 82.9611 29.9216 84.2562C31.0279 85.4848 32.9722 85.4848 34.0784 84.2562C35.2685 82.9445 63.0755 52.0294 63.0755 30.9599C63.0755 13.9915 49.1301 0.177643 32 0.177643ZM32 78.1628C22.6472 67.1549 6.52284 45.4213 6.52284 30.9599C6.52284 17.0465 17.9541 5.72311 32 5.72311C46.046 5.72311 57.4772 17.0465 57.4772 30.9599C57.4772 45.4213 41.3696 67.1549 32 78.1628Z" fill="white"/>
<path d="M32.0001 15.4692C23.3848 15.4692 16.3618 22.4259 16.3618 30.9599C16.3618 39.494 23.3848 46.4507 32.0001 46.4507C40.6154 46.4507 47.6384 39.494 47.6384 30.9599C47.6384 22.4259 40.6154 15.4692 32.0001 15.4692ZM32.0001 40.9053C26.4689 40.9053 21.9601 36.439 21.9601 30.9599C21.9601 25.4809 26.4689 21.0146 32.0001 21.0146C37.5314 21.0146 42.0401 25.4809 42.0401 30.9599C42.0401 36.439 37.5314 40.9053 32.0001 40.9053Z" fill="white"/>
</svg>
