<?xml version="1.0" encoding="utf-8"?>
<!-- Generator: Adobe Illustrator 23.0.3, SVG Export Plug-In . SVG Version: 6.00 Build 0)  -->
<svg version="1.1" id="Layer_1" xmlns="http://www.w3.org/2000/svg" xmlns:xlink="http://www.w3.org/1999/xlink" x="0px" y="0px"
	 viewBox="0 0 512 512" style="enable-background:new 0 0 512 512;" xml:space="preserve">
<path d="M509,81.5L405.6,1.6c-2.3-1.8-5.4-2.1-8-0.8c-2.6,1.3-4.3,3.9-4.3,6.8v38.5C347.7,54.2,306.2,76,273,109.2
	c-27.3,27.3-47.1,60.7-57.7,97.2c-28-23.6-61.1-40.1-96.6-48v-33.8c0-2.9-1.6-5.5-4.3-6.8c-2.6-1.3-5.7-1-8,0.8l-47,36.3
	c-3.3,2.6-3.9,7.3-1.4,10.7c2.6,3.3,7.3,3.9,10.7,1.4l34.8-26.9v24.5c0,3.6,2.6,6.8,6.2,7.5c37.8,7.4,72.9,25,101.6,51
	c-3.2,15.4-4.9,31.3-4.9,47.3v43.9c-4.3-8.8-9.4-17.2-15.4-25.2c-19.4-25.8-46.9-45.1-77.5-54.5c-2.3-0.7-4.8-0.3-6.7,1.2
	c-1.9,1.4-3.1,3.7-3.1,6.1v27.2l-83.4-64.4l22.2-17.1c3.3-2.6,3.9-7.3,1.4-10.7c-2.6-3.3-7.3-3.9-10.7-1.4L3,198.5
	c-1.9,1.4-3,3.7-3,6s1.1,4.6,3,6l103.4,79.9c2.3,1.8,5.4,2.1,8,0.8c2.6-1.3,4.3-3.9,4.3-6.8v-31.9c23.6,9.3,44.7,25.3,60,45.7
	c18,24,27.6,52.6,27.6,82.6v123.7c0,4.2,3.4,7.6,7.6,7.6h74.9c4.2,0,7.6-3.4,7.6-7.6v-84.7c0-4.2-3.4-7.6-7.6-7.6s-7.6,3.4-7.6,7.6
	v77.1h-59.7V270.3c0-16.3,1.8-32.6,5.5-48.2c8.9-38.5,28.5-73.9,56.8-102.1c32.5-32.4,73.4-53.2,118.4-59.9c3.7-0.6,6.5-3.8,6.5-7.5
	V23.1l83.4,64.4l-83.4,64.4v-23.1c0-2.3-1.1-4.5-2.9-6c-1.8-1.4-4.2-2-6.5-1.4c-33,7.7-63,26.6-84.4,53.3
	c-21.7,27-33.7,61-33.7,95.6v119c0,4.2,3.4,7.6,7.6,7.6s7.6-3.4,7.6-7.6v-119c0-31.2,10.8-61.8,30.3-86.1
	c17.2-21.4,40.6-37.3,66.6-45.4v28.7c0,2.9,1.6,5.5,4.3,6.8c2.6,1.3,5.7,1,8-0.8L509,93.5c1.9-1.4,3-3.7,3-6S510.9,82.9,509,81.5z"
	/>
</svg>
