<?xml version="1.0" encoding="utf-8"?>
<!-- Generator: Adobe Illustrator 23.0.3, SVG Export Plug-In . SVG Version: 6.00 Build 0)  -->
<svg version="1.1" id="Layer_1" xmlns="http://www.w3.org/2000/svg" xmlns:xlink="http://www.w3.org/1999/xlink" x="0px" y="0px"
	 viewBox="0 0 512 512" style="enable-background:new 0 0 512 512;" xml:space="preserve">
<path d="M407.3,502.6c13.1-3.7,24.7-10.8,35.6-21.8c15.2-15.4,30.8-30.9,45.8-46c4.9-4.9,9.9-9.9,14.8-14.8
	c-0.1-0.1-0.2-0.2-0.3-0.3c-32.2-32.2-64.9-65-96.5-96.7l-33.8-33.9c0,0,0,0,0,0c-2.9,2.8-5.9,5.7-8.8,8.5
	c-13.6,13.1-26.4,25.5-39.5,38.3c-1.6,1.6-4.3,3.8-8,3.8c-2.7,0-5-1.2-6.5-2.1c-57-34.7-103.7-81.4-138.8-138.9
	c-3.2-5.2-2.6-9.8,1.6-14.1c12.7-12.7,25.4-25.7,37.8-38.2c3-3.1,6.1-6.1,9.1-9.2c-0.1-0.1-0.2-0.2-0.4-0.3
	c-40.4-40.6-82-82.4-127.3-128c-0.1-0.1-0.2-0.2-0.3-0.3c-4.9,4.8-9.7,9.7-14.6,14.5c-14.7,14.7-29.9,29.8-45,44.6
	C17.1,82.4,8.7,99,6.7,118.3c-0.1,1.2-0.4,2.1-0.7,2.8v12.5c2.9,22.1,13.8,40.7,25.4,60.4c1.8,3.1,3.7,6.4,5.6,9.6
	c31,54.3,70.6,105.6,117.6,152.7c29.1,29.1,60,55.6,91.8,78.6c32.9,23.8,67.7,44.7,103.5,62.2c6.1,3,13,4.7,20.4,6.5
	c3.2,0.8,6.4,1.6,9.7,2.5h12.5c1.5-0.3,3-0.6,4.4-1C400.4,504.3,403.9,503.5,407.3,502.6z M385.4,477.8c-8,0-16.2-2.1-24.4-6.1
	c-54.2-26.9-105.2-61.4-151.5-102.3C137.9,306.2,81,232.7,40.2,150.9c-10.5-21.1-7.7-42.6,7.8-59c8.8-9.3,18-18.3,26.9-27
	c3.8-3.7,7.6-7.5,11.4-11.2c0.8-0.8,4.8-4.4,4.8-4.4l5.9,5.9l79.6,78.3l4.5,4.4l-4.6,4.3c-1.1,1-2.2,2-3.2,2.9
	c-2.2,2-4.3,3.9-6.2,5.8c-4.2,4.2-8.4,8.5-12.5,12.6c-7,7.1-14.2,14.4-21.4,21.4c0,0-0.1,0.1-0.1,0.1c0,0.1,0.1,0.3,0.2,0.4
	c12.6,28.7,30.5,56,56.4,85.8c38,43.8,78,76.1,122.1,98.8c1.2,0.6,2.4,1.3,3.6,2c2.7,1.6,6.2,3.5,8,3.5c0.1,0,0.2,0,0.2,0
	c1.1-0.2,3.9-3.3,5.4-5c1.1-1.2,2.3-2.5,3.5-3.7c8.6-8.2,17.1-16.5,25.4-24.5c3.2-3.1,6.3-6.1,9.4-9.1l4.2-4.1l4.2,4.1l57.4,57.1
	l24.6,24.4l4.2,4.1l-4,4.3l-5.5,5.8c-12,12.6-24.1,25.4-36.2,38.1c-0.9,0.9-1.9,1.5-2.5,1.9c-0.1,0.1-0.2,0.1-0.3,0.2
	C404.4,474.9,395,477.8,385.4,477.8z"/>
<polygon points="355.7,171.4 457.1,71.5 454.1,68.5 438.4,52.7 333.7,156 352.2,174.9 "/>
<polygon points="390.3,235 453.2,204 503.4,179.4 491,154.3 441.9,178.4 377.9,209.9 379.9,214.1 "/>
<polygon points="326.5,9.3 306.3,49.5 271,119.5 280.3,124.2 296,132.1 351.5,22 "/>
</svg>
