<?xml version="1.0" encoding="utf-8"?>
<!-- Generator: Adobe Illustrator 23.0.3, SVG Export Plug-In . SVG Version: 6.00 Build 0)  -->
<svg version="1.1" id="Layer_1" xmlns="http://www.w3.org/2000/svg" xmlns:xlink="http://www.w3.org/1999/xlink" x="0px" y="0px"
	 viewBox="0 0 512 512" style="enable-background:new 0 0 512 512;" xml:space="preserve">
<g>
	<path d="M342.9,152.1c-14.7-14.4-34-22.3-54.5-22.3h-81.1c-7,0-12.6,5.7-12.6,12.6v114.7v2.5h-2.5h-17.3c-7,0-12.6,5.7-12.6,12.6
		c0,7,5.7,12.6,12.6,12.6h17.3h2.5v2.5V322v2.5h-2.5h-17.3c-7,0-12.6,5.7-12.6,12.6c0,7,5.7,12.6,12.6,12.6h17.3h2.5v2.5v33.5
		c0,7,5.7,12.6,12.6,12.6s12.6-5.7,12.6-12.6v-33.5v-2.5h2.5h66c7,0,12.6-5.7,12.6-12.6c0-7-5.7-12.6-12.6-12.6h-66h-2.5V322v-34.6
		v-2.5h2.5h66c42.8,0,77.5-34.8,77.5-77.5C366,186.3,357.8,166.7,342.9,152.1z M288.5,259.6h-66H220v-2.5v-99.5V155h2.5h66
		c28.8,0,52.3,23.5,52.3,52.3C340.7,236.1,317.3,259.6,288.5,259.6z" fill="#35628A" stroke="#35628A"/>
	<path d="M256-0.1C114.8-0.1-0.1,114.8-0.1,256S114.8,512.1,256,512.1S512.1,397.2,512.1,256S397.2-0.1,256-0.1z M256,486.8
		C128.7,486.8,25.2,383.3,25.2,256S128.7,25.2,256,25.2S486.8,128.7,486.8,256S383.3,486.8,256,486.8z"/>
</g>
</svg>
