<svg width="50" height="50" viewBox="0 0 50 50" fill="none" xmlns="http://www.w3.org/2000/svg">
<path d="M33.09 14.9374L33.0901 14.9374C34.513 16.3317 35.2963 18.2043 35.2869 20.2186C35.2869 20.2187 35.2869 20.2188 35.2869 20.2189L35.1369 20.2182C35.1369 24.213 31.8905 27.4688 27.8863 27.4688H21.7116L33.09 14.9374ZM33.09 14.9374C31.6869 13.5629 29.8436 12.8083 27.8863 12.8083H20.2989C19.5604 12.8083 18.9701 13.4095 18.9701 14.1371V24.8679V24.9518H18.8862H17.2677C16.5292 24.9518 15.9389 25.553 15.9389 26.2806C15.9389 27.0191 16.5401 27.6094 17.2677 27.6094H18.8862H18.9701V27.6933V30.9397V31.0236H18.8862H17.2677C16.5292 31.0236 15.9389 31.6248 15.9389 32.3524C15.9389 33.0909 16.5401 33.6812 17.2677 33.6812H18.8862H18.9701V33.7651V36.8992C18.9701 37.6377 19.5713 38.228 20.2989 38.228C21.0273 38.228 21.6277 37.6276 21.6277 36.8992V33.7651V33.6812H21.7116H27.8863C28.6248 33.6812 29.2151 33.08 29.2151 32.3524C29.2151 31.6139 28.6139 31.0236 27.8863 31.0236H21.7116H21.6277V30.9397V27.7027V27.6188L33.09 14.9374ZM27.8956 24.9518H21.7209H21.637V24.8679V15.5591V15.4659H21.7209H27.8956C30.507 15.4659 32.6383 17.597 32.6386 20.2083C32.6295 22.8208 30.5067 24.9518 27.8956 24.9518Z" fill="#35628A" stroke="#35628A" stroke-width="0.3"/>
<path d="M24.8552 0.655298C11.5622 0.655298 0.745508 11.472 0.745508 24.765C0.745508 38.0579 11.5622 48.8747 24.8552 48.8747C38.1481 48.8747 48.9649 38.0579 48.9649 24.765C48.9649 11.472 38.1481 0.655298 24.8552 0.655298ZM24.8552 46.2077C13.0284 46.2077 3.41247 36.5918 3.41247 24.765C3.41247 12.9382 13.0284 3.32226 24.8552 3.32226C36.682 3.32226 46.2979 12.9382 46.2979 24.765C46.2979 36.5918 36.682 46.2077 24.8552 46.2077Z" fill="black" stroke="black" stroke-width="0.3"/>
</svg>
