<?xml version="1.0" encoding="utf-8"?>
<!-- Generator: Adobe Illustrator 23.0.3, SVG Export Plug-In . SVG Version: 6.00 Build 0)  -->
<svg version="1.1" id="Layer_1" xmlns="http://www.w3.org/2000/svg" xmlns:xlink="http://www.w3.org/1999/xlink" x="0px" y="0px"
	 viewBox="0 0 518 512" style="enable-background:new 0 0 518 512;" xml:space="preserve">
<path d="M414.8,230.2v25c0,4.5,3.6,8.1,8.1,8.1h37.4c4.5,0,8.1-3.6,8.1-8.1v-25c0-4.5-3.6-8.1-8.1-8.1H423
	C418.4,222.1,414.8,225.6,414.8,230.2z M431.1,246.9v-8.6h21.2v8.6H431.1z"/>
<path d="M260.8,169.8H423c4.5,0,8.1-3.6,8.1-8.1V86.8c0-4.6-3.6-8.1-8.1-8.1H260.8c-4.5,0-8.1,3.6-8.1,8.1v74.9
	C252.7,166.3,256.2,169.8,260.8,169.8z M268.9,153.4V95h145.9v58.5H268.9z"/>
<g>
	<path d="M342.4,234.5c1,2.7,1.6,5.5,1.6,8.6v7.7h30.8v-16.2H342.4z"/>
</g>
<path d="M308.7,209.7v9.3h11.2c6.6,0,12.6,2.7,16.9,7h38v-16.2H308.7z"/>
<g>
	<path d="M518,286.3c0.2-5.4-1.8-10.5-5.5-14.4c-3.8-4-9.2-6.2-14.8-6.2h-4.3v-29.3c0-21.9-16-40.9-37.4-44.9v-34.1h29.3
		c4.5,0,8.1-3.6,8.1-8.1V93.1c0-4.5-3.6-8.1-8.1-8.1h-29.3V55.6c0-4.5-3.6-8.1-8.1-8.1H244.1V9.7h-16.2v75.2h-29.3
		c-4.5,0-8.1,3.6-8.1,8.1v56.1c0,4.6,3.6,8.1,8.1,8.1h29.3v24.3h16V63.9h195.6v135.2c0,4.4,3.7,8.1,8.1,8.1
		c16.1,0,29.1,13.2,29.1,29.3v29.3h-71.1v-73c0-4.5-3.6-8.1-8.1-8.1H294.7c5.9,3.5,10.1,9.3,11.5,16.2h83.7v64.9H344v16h153.6
		c2.4,0,4.3,1.9,4.3,4.3v26.3c-0.5,1.8-2.2,3-4.1,3H337.7c-4.4,4.8-10.7,7.8-17.8,7.8h-13.3v6.3c1.4,0.6,2.9,1.3,4.2,2.1h97.6v16.7
		c0,4.5,3.6,8.1,8.1,8.1h56.1c4.5,0,8.1-3.6,8.1-8.1v-16.7h16.7c11.3,0,20.5-9.2,20.5-20.5L518,286.3z M455.9,101.2h21.2V141h-21.2
		V101.2z M227.8,141h-21.2v-39.8h21.2V141z M464.7,340.6h-39.8V332h39.8V340.6z"/>
</g>
<g>
	<rect x="143.4" y="359.7" width="66.1" height="16.2"/>
	<rect x="143.4" y="384.5" width="66.1" height="16.2"/>
	<path d="M95.5,413.3c4.5,0,8.1-3.6,8.1-8.1v-25c0-4.5-3.6-8.1-8.1-8.1H58c-4.5,0-8.1,3.6-8.1,8.1v25c0,4.5,3.6,8.1,8.1,8.1H95.5z
		 M66.3,388.5h21.2v8.6H66.3V388.5z"/>
	<path d="M295.1,413.3c4.5,0,8.1-3.6,8.1-8.1v-25c0-4.5-3.6-8.1-8.1-8.1h-37.4c-4.5,0-8.1,3.6-8.1,8.1v25c0,4.5,3.6,8.1,8.1,8.1
		H295.1z M265.7,388.3h21.2v8.6h-21.2V388.3z"/>
	<path d="M95.5,228.7c-4.5,0-8.1,3.6-8.1,8.1v74.9c0,4.5,3.6,8.1,8.1,8.1h162.2c4.5,0,8.1-3.6,8.1-8.1v-74.9c0-4.6-3.6-8.1-8.1-8.1
		H95.5z M249.5,303.4H103.6V245h145.9V303.4z"/>
	<path d="M352.7,436.3c0.2-5.4-1.8-10.5-5.5-14.4c-3.8-4-9.2-6.2-14.8-6.2H328v-29.3c0-21.9-16-40.9-37.4-44.9v-34.1h29.3
		c4.5,0,8.1-3.6,8.1-8.1v-56.2c0-4.5-3.6-8.1-8.1-8.1h-29.3v-29.3c0-4.5-3.6-8.1-8.1-8.1H78.7v-37.8H62.5v75.2H33.2
		c-4.5,0-8.1,3.6-8.1,8.1v56.1c0,4.6,3.6,8.1,8.1,8.1h29.3v34.3c-21.5,3.8-37.4,22.8-37.4,44.9v29.3h-4.3
		c-11.3,0-20.5,9.2-20.5,20.5v25c0,11.3,9.2,20.5,20.5,20.5h16.7v16.7c0,4.5,3.6,8.1,8.1,8.1h56.1c4.5,0,8.1-3.6,8.1-8.1v-16.7
		h133.3v16.7c0,4.5,3.6,8.1,8.1,8.1h56.1c4.5,0,8.1-3.6,8.1-8.1v-16.7h16.7c11.3,0,20.5-9.2,20.5-20.5L352.7,436.3z M290.6,251.2
		h21.2V291h-21.2V251.2z M41.3,291v-39.8h21.2V291H41.3z M41.3,386.4c0-16.2,13.1-29.3,29.1-29.3c4.5,0,8.1-3.6,8.1-8.1V213.9h195.6
		v135.2c0,4.4,3.7,8.1,8.1,8.1c16.1,0,29.1,13.2,29.1,29.3v29.3h-71.1v-73c0-4.5-3.6-8.1-8.1-8.1H120.5c-4.5,0-8.1,3.6-8.1,8.1v73
		H41.3V386.4z M224.5,351.1v64.9h-95.9v-64.9H224.5z M93.5,490.6H53.7V482h39.8V490.6z M299.4,490.6h-39.8V482h39.8V490.6z
		 M336.6,462.5c-0.5,1.8-2.2,3-4.1,3H20.8c-2.4,0-4.3-1.9-4.3-4.3v-25c0-2.4,1.9-4.3,4.3-4.3h311.5c2.4,0,4.3,1.9,4.3,4.3V462.5z"/>
</g>
</svg>
