<svg height="24" viewBox="0 0 23 24" width="23" xmlns="http://www.w3.org/2000/svg"><path d="m19.642 3.358c-2.162-2.162-5.037-3.358-8.096-3.358-6.302 0-11.454 5.129-11.454 11.454 0 2.024.529 3.979 1.518 5.727l-1.61 5.934 6.072-1.587c1.679.92 3.565 1.403 5.474 1.403 6.302 0 11.454-5.129 11.454-11.454 0-3.082-1.196-5.957-3.358-8.119zm-8.096 17.618c-1.702 0-3.381-.46-4.853-1.334l-.345-.207-3.588.966.966-3.519-.23-.368c-.943-1.518-1.449-3.266-1.449-5.06-.023-5.244 4.255-9.522 9.499-9.522 2.553 0 4.922.989 6.739 2.783 1.794 1.794 2.783 4.186 2.783 6.739 0 5.244-4.278 9.522-9.522 9.522zm5.221-7.13c-.276-.138-1.702-.828-1.955-.92s-.46-.138-.644.138-.736.92-.897 1.127c-.161.184-.345.207-.621.069s-1.219-.437-2.3-1.426c-.851-.759-1.426-1.702-1.587-1.978s-.023-.437.115-.575.276-.345.437-.506c.138-.161.184-.276.276-.483.092-.184.046-.368-.023-.506s-.644-1.541-.874-2.116c-.23-.552-.46-.483-.644-.483-.161 0-.368 0-.552 0s-.506.069-.759.368c-.253.276-1.012.989-1.012 2.392s1.035 2.76 1.173 2.967c.138.184 2.024 3.082 4.899 4.324.69.299 1.219.46 1.633.598.69.207 1.311.184 1.794.115.552-.092 1.702-.69 1.932-1.357s.23-1.242.161-1.357c-.069-.184-.253-.253-.552-.391z" fill="#25d366"/></svg>