<svg width="257" height="158" viewBox="0 0 257 158" fill="none" xmlns="http://www.w3.org/2000/svg">
<path d="M166.262 26.3701V27.6201H167.512H227.333L255.75 72.4267V135.517H230.389H229.436L229.183 136.436C226.019 147.962 215.453 156.454 202.942 156.454C190.433 156.454 179.867 147.962 176.701 136.436L176.449 135.517H175.496H81.5782H80.6251L80.3728 136.436C77.2088 147.962 66.643 156.454 54.1319 156.454C41.6226 156.454 31.0549 147.962 27.8909 136.436L27.6386 135.517H26.6855H8.85324V122.963H26.6855H27.6386L27.8909 122.044C31.055 110.518 41.6207 102.026 54.1319 102.026C66.643 102.026 77.2089 110.518 80.3748 122.044L80.6272 122.963H81.5802H152.458H153.708V121.713V15.8322V14.5822H152.458H1.32617V2.02808H166.262V26.3701ZM241.946 122.963H243.196V121.713V76.4349V76.0719L243.001 75.7654L220.797 40.7547L220.428 40.1742H219.741H167.51H166.26V41.4242V121.713V122.963H167.51H175.496H176.449L176.701 122.044C179.867 110.518 190.433 102.026 202.944 102.026C215.454 102.026 226.021 110.518 229.185 122.044L229.438 122.963H230.391H241.946ZM39.4723 129.24C39.4723 137.324 46.0477 143.9 54.1319 143.9C62.2178 143.9 68.7934 137.324 68.7934 129.24C68.7934 121.156 62.2178 114.58 54.1319 114.58C46.0477 114.58 39.4723 121.156 39.4723 129.24ZM188.283 129.24C188.283 137.324 194.858 143.9 202.944 143.9C211.028 143.9 217.604 137.324 217.604 129.24C217.604 121.156 211.028 114.58 202.944 114.58C194.858 114.58 188.283 121.156 188.283 129.24Z" fill="#E5E5E5" stroke="white" stroke-width="2.5"/>
<path d="M1.32617 27.6201H52.0821V40.1742H1.32617V27.6201Z" fill="#E5E5E5" stroke="white" stroke-width="2.5"/>
<path d="M20.4268 77.3889H71.1808V89.943H20.4268V77.3889Z" fill="#E5E5E5" stroke="white" stroke-width="2.5"/>
<path d="M10.876 50.2836H61.63V62.8378H10.876V50.2836Z" fill="#E5E5E5" stroke="white" stroke-width="2.5"/>
</svg>
