<svg width="231" height="178" viewBox="0 0 231 178" fill="none" xmlns="http://www.w3.org/2000/svg">
<path d="M230.245 131.547C230.245 131.224 230.245 130.947 230.245 130.67C230.245 121.303 214.51 117.242 199.283 116.366V115.443L212.249 106.999C214.372 105.614 214.971 102.754 213.587 100.631C212.203 98.5084 209.342 97.9086 207.219 99.2929L199.283 104.415V88.9107C199.283 88.034 199.052 87.2034 198.591 86.4652L212.434 76.4983C214.51 75.0218 214.971 72.1148 213.495 70.0845C212.018 68.0081 209.111 67.5466 207.081 69.0232L192.731 79.3592C190.147 77.8365 187.378 76.6368 184.517 75.8523C181.933 75.114 179.349 74.5142 176.719 74.0989C176.904 74.0066 177.088 73.8682 177.273 73.7298L212.664 45.8134C214.695 44.1984 215.018 41.2914 213.403 39.3073C211.834 37.3231 208.973 36.954 206.943 38.5228L172.797 65.3779H127.762V46.9208H174.366C175.519 46.9208 176.673 46.4594 177.503 45.675L212.895 12.9136C214.741 11.2063 214.879 8.29934 213.172 6.40749C212.295 5.43849 211.049 4.93092 209.757 4.93092H165.968C165.922 4.51564 165.829 4.10035 165.691 3.73121C164.999 1.97779 163.292 0.778076 161.4 0.778076H91.1243C89.9707 0.778076 88.8171 1.2395 87.9866 2.07007L84.9411 4.93092H40.0904C38.9368 4.93092 37.8294 5.34621 36.9527 6.13063L1.56119 38.8458C-0.330662 40.5993 -0.422948 43.5524 1.33048 45.4443C2.20719 46.3671 3.4069 46.9208 4.6989 46.9208H48.3961V65.3779H4.74504C2.20719 65.3779 0.130765 67.4544 0.130765 69.9922C0.130765 72.5301 2.20719 74.6065 4.74504 74.6065H48.3961V93.525H4.74504C2.20719 93.525 0.130765 95.6014 0.130765 98.1393C0.130765 100.677 2.20719 102.754 4.74504 102.754H48.3961V121.672H4.74504C2.20719 121.672 0.130765 123.749 0.130765 126.286C0.130765 128.824 2.20719 130.901 4.74504 130.901H83.0493C82.8647 132.285 82.8186 133.669 82.8186 135.1C82.8186 155.033 98.9685 171.183 118.902 171.183C126.885 171.183 134.683 168.507 141.005 163.616C146.496 164.769 152.079 165.369 157.662 165.462C158.816 168.369 162 171.599 169.751 173.998C176.211 175.982 184.702 177.043 193.746 177.043C207.404 177.043 230.521 173.998 230.521 162.462L230.245 131.547ZM193.1 125.41C193.607 125.41 194.023 125.41 194.438 125.41C194.484 125.41 194.53 125.41 194.576 125.41C209.019 125.594 217.971 128.64 220.508 130.624C217.971 132.562 208.604 135.93 193.054 135.93C177.596 135.93 168.413 132.562 166.06 130.67C168.506 128.732 177.688 125.41 193.1 125.41ZM179.903 84.2042C184.379 85.3116 186.824 86.5113 188.024 87.2957C186.87 88.0802 184.425 89.2799 179.903 90.3873C174.181 91.7716 167.075 92.556 159.877 92.556C144.465 92.556 135.283 89.1876 132.883 87.2957C135.283 85.3577 144.465 82.0355 159.877 82.0355C167.075 82.0355 174.181 82.7737 179.903 84.2042ZM190.054 96.6166V102.154C190.008 102.384 189.962 102.615 189.916 102.846C187.839 104.922 176.581 108.429 159.831 108.429C152.863 108.429 146.126 107.691 140.866 106.399C138.421 104.507 135.698 102.938 132.837 101.738L132.745 97.5856C140.128 100.585 150.556 101.785 159.831 101.785C168.275 101.785 181.749 100.585 190.054 96.6166ZM140.359 74.6065C135.56 75.9908 130.992 77.3289 127.762 79.4976V74.6065H140.359ZM159 14.1595H197.991L172.612 37.6923H133.576L158.862 14.1595C158.862 14.1595 158.908 14.1595 159 14.1595ZM49.7342 37.6923H16.5114L41.8899 14.1595H74.9743L49.9188 37.4616C49.8726 37.5538 49.8265 37.6923 49.7342 37.6923ZM57.6246 121.672V42.8141L89.094 13.5596L92.9238 10.0066H149.633L120.102 37.4154C119.133 38.2921 118.579 39.4918 118.533 40.7838V98.9698C103.767 99.016 90.8013 108.291 85.4026 121.672H57.6246ZM144.604 142.852C140.312 157.064 125.27 165.092 111.104 160.755C99.7991 157.34 92.0471 146.866 92.0471 135.053C92.0471 132.654 92.3701 130.255 93.0161 127.947C96.2 116.273 106.813 108.198 118.902 108.198C120.102 108.198 121.255 108.291 122.455 108.429H122.547C124.024 108.614 125.454 108.937 126.885 109.352C130.392 110.413 133.668 112.213 136.436 114.612C140.958 118.488 144.05 123.748 145.25 129.562V129.609C145.619 131.408 145.803 133.208 145.803 135.007C145.757 137.684 145.342 140.314 144.604 142.852ZM148.572 155.541C149.956 153.557 151.11 151.434 152.079 149.219C153.648 149.358 155.263 149.404 156.924 149.45L157.016 156.187C154.063 156.095 151.248 155.91 148.572 155.541ZM154.94 133.485C155.493 133.531 156.093 133.531 156.693 133.531L156.785 140.221C156.047 140.221 155.355 140.175 154.617 140.129C154.847 138.422 154.986 136.761 154.986 135.053C154.986 134.5 154.986 133.992 154.94 133.485ZM159.369 124.348C157.293 124.348 155.263 124.256 153.325 124.118C152.54 121.718 151.571 119.411 150.325 117.242C153.371 117.519 156.601 117.658 159.877 117.658C162.599 117.658 179.488 117.473 190.1 113.182V116.181C182.718 116.366 175.888 117.335 170.351 118.857C165.322 120.288 161.676 122.134 159.369 124.348ZM166.014 140.96C173.443 143.959 184.01 145.159 193.1 145.159C201.821 145.159 210.219 144.144 216.725 142.252C218.201 141.836 219.632 141.329 221.062 140.729L221.108 145.666C221.062 145.805 221.062 145.943 221.062 146.082C219.54 147.881 209.988 151.803 193.1 151.803C177.688 151.803 168.552 148.481 166.106 146.543L166.014 140.96ZM193.7 167.815C186.547 167.815 179.672 167.077 174.32 165.692C169.059 164.354 166.891 162.831 166.337 162.232L166.245 157.017C173.72 159.971 184.194 161.124 193.1 161.124C201.405 161.124 213.172 160.017 221.201 156.648L221.247 162.139C219.724 163.893 210.311 167.815 193.7 167.815Z" fill="#E5E5E5"/>
<path d="M118.902 114.335C107.459 114.335 98.2305 123.61 98.2305 135.007C98.2305 146.451 107.505 155.679 118.902 155.679C130.3 155.679 139.574 146.405 139.574 135.007C139.574 123.61 130.3 114.382 118.902 114.335ZM118.902 146.497C112.581 146.497 107.459 141.375 107.459 135.053C107.459 128.732 112.581 123.61 118.902 123.61C125.224 123.61 130.346 128.732 130.346 135.053C130.346 141.375 125.224 146.497 118.902 146.497Z" fill="#E5E5E5"/>
</svg>
