<?xml version="1.0" encoding="utf-8"?>
<!-- Generator: Adobe Illustrator 23.0.3, SVG Export Plug-In . SVG Version: 6.00 Build 0)  -->
<svg version="1.1" id="Layer_1" xmlns="http://www.w3.org/2000/svg" xmlns:xlink="http://www.w3.org/1999/xlink" x="0px" y="0px"
	 viewBox="0 0 512 512" style="enable-background:new 0 0 512 512;" xml:space="preserve">
<path d="M167.8,291V101.7c0-6.8,5.5-12.3,12.3-12.3h99.4c41.7,0,75.6,33.9,75.6,75.6s-33.9,75.6-75.6,75.6h-42.8
	c-6.8,0-12.3-5.5-12.3-12.3S230,216,236.7,216h42.8c28.1,0,51-22.9,51-51s-22.9-51-51-51h-87.1v177c0,6.8-5.5,12.3-12.3,12.3
	S167.8,297.8,167.8,291z M460.4,61.1v270.1c0,42.3-5.1,90.1-65.9,120.6l-72.9,39.6c-0.2,0.1-0.4,0.2-0.6,0.3
	c-28.8,13.6-46.8,20.4-64.9,20.4s-36.2-6.8-65.2-20.4c-0.2-0.1-0.4-0.2-0.7-0.3l-72.8-39.6c-60.8-30.5-65.9-78.3-65.9-120.6V61.1
	c0-33.7,31.8-61.2,71-61.2h267C428.6-0.1,460.4,27.4,460.4,61.1z M435.9,61.1c0-19.9-21.3-36.6-46.4-36.6h-267
	c-25.2,0-46.4,16.8-46.4,36.6v270.1c0,45.9,8.6,76.8,52.5,98.8c0.1,0.1,0.2,0.1,0.4,0.2l72.7,39.5c50.9,23.8,58.2,23.8,108.6,0
	l72.7-39.5c0.1-0.1,0.2-0.1,0.4-0.2c43.9-22,52.5-52.9,52.5-98.8V61.1z M347.4,347.3L294.1,379c-36,18.5-39.8,18.5-76.1,0
	l-53.4-31.6c-5.8-3.5-13.4-1.5-16.8,4.3c-3.5,5.8-1.5,13.4,4.3,16.8l53.7,31.8c0.2,0.1,0.4,0.3,0.7,0.4
	c21.9,11.2,35.8,16.8,49.7,16.8c13.9,0,27.8-5.6,49.5-16.8c0.2-0.1,0.4-0.2,0.6-0.4l53.7-31.8c5.8-3.5,7.8-11,4.3-16.8
	C360.8,345.8,353.3,343.9,347.4,347.3z"/>
</svg>
