<svg width="49" height="50" viewBox="0 0 49 50" fill="none" xmlns="http://www.w3.org/2000/svg">
<path d="M41.6563 13.4305H30.5566C31.726 12.0291 32.4313 10.2272 32.4313 8.26339C32.4313 3.8091 28.8077 0.185486 24.3538 0.185486C19.8995 0.185486 16.2758 3.8091 16.2758 8.26339C16.2758 10.2272 16.9811 12.0291 18.1506 13.4305H7.05083L0.147705 49.8565H48.5594L41.6563 13.4305ZM24.3538 3.0959C27.2028 3.0959 29.5209 5.41399 29.5209 8.26339C29.5209 11.1124 27.2028 13.4305 24.3538 13.4305C21.5044 13.4305 19.1863 11.1124 19.1863 8.26339C19.1863 5.41399 21.5044 3.0959 24.3538 3.0959ZM9.4614 16.3409H39.2457L45.0457 46.9461H3.66142L9.4614 16.3409Z" fill="black"/>
<path d="M24.4125 25.8543H21.1091L16.4907 30.4662V25.8543H14.1169V37.4853H16.4907V33.5101L17.6879 32.3429L21.3058 37.4853H24.3701L19.383 30.7118L24.4125 25.8543Z" fill="#35628A"/>
<path d="M29.1088 33.3009H32.2454V34.5764C31.9934 34.7602 31.6501 34.9406 31.2215 35.1138C30.7 35.3249 30.1581 35.4318 29.6117 35.4318C28.986 35.4318 28.3872 35.2919 27.8313 35.016C27.2955 34.7504 26.8976 34.3532 26.6156 33.8015C26.3246 33.2327 26.1771 32.5032 26.1771 31.6334C26.1771 30.929 26.3022 30.2684 26.5474 29.6723C26.6861 29.3407 26.8835 29.0319 27.1344 28.7534C27.3735 28.4881 27.6991 28.2683 28.1011 28.1004C28.5108 27.9295 29.0114 27.8427 29.5897 27.8427C30.0607 27.8427 30.4924 27.9242 30.8725 28.0849C31.234 28.2376 31.5114 28.4381 31.6967 28.6802C31.8975 28.9425 32.0715 29.3207 32.214 29.8046L32.3474 30.2574L34.5328 29.6579L34.415 29.1998C34.2145 28.4191 33.9129 27.7715 33.518 27.2739C33.1129 26.7634 32.5531 26.3625 31.8536 26.0821C31.176 25.8104 30.412 25.6728 29.5825 25.6728C28.4448 25.6728 27.4209 25.9123 26.5391 26.3845C25.6364 26.868 24.9361 27.615 24.4589 28.6044C23.9947 29.5662 23.7598 30.6144 23.7598 31.721C23.7598 32.8412 23.9978 33.8727 24.468 34.7864C24.9489 35.7217 25.6701 36.4459 26.6122 36.9393C27.5342 37.4224 28.5703 37.6676 29.6916 37.6676C30.5227 37.6676 31.3439 37.5164 32.1325 37.2178C32.9135 36.9226 33.6794 36.4777 34.4089 35.896L34.5904 35.7516V31.079L29.1088 31.0877V33.3009Z" fill="#35628A"/>
</svg>
