<?xml version="1.0" encoding="utf-8"?>
<!-- Generator: Adobe Illustrator 23.0.3, SVG Export Plug-In . SVG Version: 6.00 Build 0)  -->
<svg version="1.1" id="Layer_1" xmlns="http://www.w3.org/2000/svg" xmlns:xlink="http://www.w3.org/1999/xlink" x="0px" y="0px"
	 viewBox="0 0 512 512" style="enable-background:new 0 0 512 512;" xml:space="preserve">
<path d="M508,81.5L405.4,2.3c-2.8-2.2-6.6-2.6-9.8-1c-3.2,1.6-5.2,4.8-5.2,8.3v36.7c-44.9,8.3-86,30-118.8,62.8
	c-26.5,26.5-46.2,59.2-56.9,94.6c-27.2-22.4-59.3-38.2-93.2-46v-32.1c0-3.6-2-6.8-5.2-8.3c-3.2-1.6-7-1.2-9.8,1l-46.6,36
	c-4,3.2-4.8,8.9-1.7,13c3.2,4,8.9,4.8,13,1.7l31.7-24.5v20.8c0,4.4,3.2,8.3,7.6,9.1c36.9,7.2,71.1,24.3,99.2,49.5
	c-3.1,15.3-4.7,30.9-4.7,46.3v36.4c-3.6-6.6-7.7-12.9-12.2-18.9c-19.4-25.8-47-45.2-77.7-54.7c-2.9-0.9-5.9-0.3-8.2,1.5
	c-2.4,1.7-3.8,4.5-3.8,7.4v23.4l-78.1-60.3l20.3-15.6c4-3.2,4.8-8.9,1.7-13c-3.2-4-8.9-4.8-13-1.7L4,197.6c-2.3,1.7-3.7,4.4-3.7,7.3
	c0,2.9,1.4,5.6,3.7,7.3l102.5,79.2c2.8,2.2,6.6,2.6,9.8,1c3.2-1.6,5.2-4.8,5.2-8.3v-29.1c22.1,9.2,42.1,24.7,56.4,43.8
	c17.7,23.6,27,51.5,27,80.9v122.7c0,5.1,4.2,9.3,9.3,9.3h74.3c5.1,0,9.3-4.2,9.3-9.3v-84c0-5.1-4.2-9.3-9.3-9.3s-9.3,4.2-9.3,9.3
	v74.7h-55.7v-223c0-16.3,1.8-32.3,5.4-47.4c8.8-38,28.1-72.8,55.9-100.4c32.1-32,72.3-52.4,116.5-58.9c4.5-0.7,7.9-4.7,7.9-9.2V28.5
	l78.1,60.3l-78.1,60.3v-19.4c0-2.8-1.3-5.4-3.5-7.3c-2.3-1.8-5.2-2.4-7.9-1.7c-33.2,7.7-63.2,26.7-84.7,53.5
	c-21.8,27.1-33.8,61.2-33.8,95.9v118c0,5.1,4.2,9.3,9.3,9.3s9.3-4.2,9.3-9.3v-118c0-30.5,10.5-60.5,29.7-84.3
	c16.2-20.2,38.5-35.6,63-43.7v26.1c0,3.6,2,6.7,5.2,8.3c3.2,1.6,7,1.2,9.8-1L508,96.2c2.3-1.7,3.7-4.4,3.7-7.3
	C511.6,86,510.3,83.2,508,81.5z"/>
</svg>
