<?xml version="1.0" encoding="UTF-8"?> <!-- Generator: Adobe Illustrator 23.0.3, SVG Export Plug-In . SVG Version: 6.00 Build 0) --> <svg xmlns="http://www.w3.org/2000/svg" xmlns:xlink="http://www.w3.org/1999/xlink" id="Layer_1" x="0px" y="0px" viewBox="0 0 512 512" style="enable-background:new 0 0 512 512;" xml:space="preserve"> <style type="text/css"> .st0{stroke:#000000;stroke-width:8.5;stroke-miterlimit:10;} </style> <path class="st0" d="M256,128.5c-5.4,0-9.8,4.4-9.8,9.8s4.4,9.8,9.8,9.8c5.4,0,9.8-4.4,9.8-9.8S261.4,128.5,256,128.5z"></path> <path class="st0" d="M93.2,305c5.4,0,9.8-4.4,9.8-9.8s-4.4-9.8-9.8-9.8s-9.8,4.4-9.8,9.8S87.8,305,93.2,305z"></path> <path class="st0" d="M332.6,35.9c-86.2,0-156.9,59.4-162.3,134.2C88.2,174.2,11,233.4,11,313.4c0,33.4,13.2,65.8,37.3,91.5 c4.8,19.6-1,40.5-15.4,54.8c-2.7,2.7-3.6,6.9-2.1,10.4c1.5,3.6,5,5.9,8.8,5.9c27.3,0,53.6-10.7,73.1-29.6 c19,6.5,43.9,10.4,66.6,10.4c86.1,0,156.9-59.4,162.3-134.2c20-0.9,40.9-4.6,57.4-10.2c19.5,18.9,45.8,29.6,73.1,29.6 c3.9,0,7.4-2.3,8.8-5.9c1.5-3.6,0.7-7.7-2.1-10.4c-14.4-14.4-20.1-35.2-15.4-54.8c24.1-25.7,37.3-58.1,37.3-91.5 C501,96.3,417.9,35.9,332.6,35.9z M179.4,437.8c-22.6,0-48.3-4.4-65.6-11.3c-3.7-1.5-7.9-0.5-10.6,2.4c-11.6,12.6-26.6,21.4-43,25.5 c9-17.3,11.3-37.7,5.8-57c-0.4-1.5-1.2-2.9-2.3-4c-21.7-22.4-33.7-50.8-33.7-80C30.1,246,98.5,189,179.4,189 c76.4,0,143.6,53.1,143.6,124.4C323,382,258.6,437.8,179.4,437.8z M448.2,259.5c-1.1,1.1-1.9,2.5-2.3,4c-5.5,19.3-3.2,39.7,5.8,57 c-16.4-4-31.4-12.9-43-25.5c-2.7-2.9-6.9-3.9-10.6-2.4c-14.9,5.9-36.3,10.1-56.4,11.1c-2.8-36.2-20.8-70.2-51.7-95.5h124.8 c5.3,0,9.6-4.3,9.6-9.6s-4.3-9.6-9.6-9.6H260.6c-21.7-11.1-46.1-17.5-71.2-18.9C194.9,105.9,257,55,332.6,55 c80.9,0,149.3,57,149.3,124.4C481.9,208.7,469.9,237.1,448.2,259.5z"></path> <path class="st0" d="M256,285.4H132.5c-5.4,0-9.8,4.4-9.8,9.8s4.4,9.8,9.8,9.8H256c5.4,0,9.8-4.4,9.8-9.8S261.4,285.4,256,285.4z"></path> <path class="st0" d="M256,344.2H93.2c-5.4,0-9.8,4.4-9.8,9.8s4.4,9.8,9.8,9.8H256c5.4,0,9.8-4.4,9.8-9.8S261.4,344.2,256,344.2z"></path> <path class="st0" d="M418.8,128.5H295.2c-5.4,0-9.8,4.4-9.8,9.8s4.4,9.8,9.8,9.8h123.5c5.4,0,9.8-4.4,9.8-9.8 S424.2,128.5,418.8,128.5z"></path> </svg> 