<?xml version="1.0" encoding="utf-8"?>
<!-- Generator: Adobe Illustrator 23.0.3, SVG Export Plug-In . SVG Version: 6.00 Build 0)  -->
<svg version="1.1" id="Capa_1" xmlns="http://www.w3.org/2000/svg" xmlns:xlink="http://www.w3.org/1999/xlink" x="0px" y="0px"
	 viewBox="0 0 512 512" style="enable-background:new 0 0 512 512;" xml:space="preserve">
<path d="M434.2,77.8C386.6,30.2,323.3,4,256,4S125.4,30.2,77.8,77.8C30.2,125.4,4,188.7,4,256s26.2,130.6,73.8,178.2
	C125.4,481.8,188.7,508,256,508s130.6-26.2,178.2-73.8C481.8,386.6,508,323.3,508,256S481.8,125.4,434.2,77.8z M418.6,418.6
	C375.2,462.1,317.4,486,256,486s-119.2-23.9-162.6-67.4C49.9,375.2,26,317.4,26,256S49.9,136.8,93.4,93.4
	C136.8,49.9,194.6,26,256,26s119.2,23.9,162.6,67.4S486,194.6,486,256S462.1,375.2,418.6,418.6z"/>
<rect x="245" y="64" width="22" height="32"/>
<rect x="364.3" y="120.6" transform="matrix(0.7071 -0.7071 0.7071 0.7071 18.3404 307.5029)" width="32" height="22"/>
<rect x="415.9" y="245" width="32" height="22"/>
<rect x="369.3" y="364.4" transform="matrix(0.7071 -0.7071 0.7071 0.7071 -157.5965 380.3563)" width="22" height="32"/>
<rect x="245" y="415.9" width="22" height="32"/>
<rect x="115.5" y="369.4" transform="matrix(0.7071 -0.7071 0.7071 0.7071 -230.45 204.4194)" width="32" height="22"/>
<rect x="64" y="245" width="32" height="22"/>
<rect x="120.6" y="115.6" transform="matrix(0.7071 -0.7071 0.7071 0.7071 -54.513 131.5659)" width="22" height="32"/>
<polygon points="245,154.1 245,253.8 245,255.5 243.8,256.7 176.6,321.2 191.9,337 267,264.8 267,154.1 "/>
</svg>
