<?xml version="1.0" encoding="utf-8"?>
<!-- Generator: Adobe Illustrator 23.0.3, SVG Export Plug-In . SVG Version: 6.00 Build 0)  -->
<svg version="1.1" id="Layer_1" xmlns="http://www.w3.org/2000/svg" xmlns:xlink="http://www.w3.org/1999/xlink" x="0px" y="0px"
	 viewBox="0 0 518 512" style="enable-background:new 0 0 518 512;" xml:space="preserve">
<path d="M270.3,411.8c-9.4,0-17-7.6-17-17s7.6-17,17-17s17,7.6,17,17C287.3,404.1,279.7,411.8,270.3,411.8z"/>
<rect x="134.1" y="377.8" width="86.4" height="33.9"/>
<path d="M84.2,411.8c-9.4,0-17-7.6-17-17s7.6-17,17-17s17,7.6,17,17C101.2,404.1,93.6,411.8,84.2,411.8z"/>
<path d="M124.5,183.5c-9.4,0-17-7.6-17-17s7.6-17,17-17s17,7.6,17,17C141.5,175.8,133.9,183.5,124.5,183.5z"/>
<path d="M3,370.1v108C3,496.8,18.2,512,36.9,512c17.1,0,31.5-12.8,33.7-29.7l0.8-6.3h6.4h198.1h6.3l0.8,6.3
	c2.1,16.9,16.6,29.7,33.7,29.7c17.4,0,33.9-14,33.9-28.8V369.1c0-22.3-13.4-42.1-34-50.5l-3.1-1.3l-1-3.2l-21.1-65.3l-0.1-0.4
	C285.6,232,270.2,221,253,221H100.7c-17.1,0-32.5,11-38.3,27.4l-21.3,65.9l-1,3.1l-3,1.3c-6.8,2.9-12.9,7.1-18.1,12.5
	C8.6,341.8,3,355.6,3,370.1z M72,305.2l15.5-47.9v-0.2l0.1-0.2c2.1-5.5,7.3-9.2,12.9-9.2h152.3c5.7,0,10.9,3.7,12.9,9.2l0.1,0.2v0.2
	l15.5,47.9l3,9.4h-9.9H78.8h-9.9L72,305.2z M29.7,370.1c0-15.6,12.7-28.8,27.8-28.8H296c15.3,0,27.8,12.5,27.8,27.8v52.4
	c0,15.3-12.5,27.8-27.8,27.8H57.5c-15.3,0-27.8-12.5-27.8-27.8V370.1z"/>
<path d="M434.8,277.1c-9.4,0-17-7.6-17-17s7.6-17,17-17s17,7.6,17,17S444.2,277.1,434.8,277.1z"/>
<polygon points="328.9,277.1 318,243.1 384.9,243.1 384.9,277.1 "/>
<path d="M440.3,341.3h6.4l0.8,6.3c2.1,16.9,16.6,29.7,33.7,29.7c17.4,0,33.9-14,33.9-28.8V234.4c0-11-3.3-21.7-9.6-30.8
	c-6.1-8.9-14.6-15.7-24.6-19.7l-3-1.2l-1.1-3.1l-21.2-61.7c-5.7-16.4-21.1-27.4-38.3-27.4H265c-17.2,0-32.5,11-38.3,27.4l-25.9,76
	h28.3l22.8-67.1v-0.1v-0.1c2-5.7,7.2-9.5,13-9.5h152.3c5.7,0,11.1,3.9,13,9.4l15,43.8l3.3,9.5h-10.1H231.9l-6,14.1l23.8,0.1
	c0,0,22.2-1.7,42.5,12.5h168.3c15.3,0,27.8,12.5,27.8,27.8v52.4c0,15.3-12.5,27.8-27.8,27.8H356.8c4.6,5.7,11.5,14.5,16,26.7h67.5
	V341.3z"/>
<path d="M110.9,90.4L114,81l14.5-44.5v-0.1v-0.1l0.1-0.2c2-5.7,7.2-9.5,13-9.5H259V0H141.6c-17.1,0-32.5,11-38.2,27.3L82.3,90.2
	l-1,3.1l-3,1.3c-6.9,2.9-13,7.1-18.3,12.6c-10.2,10.5-15.8,24.4-15.8,38.9v78.6c4.9-7,14-17.7,26.7-23.7v-55
	c0-15.6,12.7-28.8,27.8-28.8h100c0,0,7.9-23.8,9.3-26.8h-87.2H110.9z"/>
<path d="M305.4,36.5l8.9,27.2h28.4l-12.2-36.4C324.8,11,309.4,0,292.3,0h-81.4v26.6h81.4c5.8,0,11,3.8,13,9.5l0.1,0.2V36.5
	L305.4,36.5z"/>
<path d="M215.1,193.9v-25.7h-5.5l-3.9,11.4l-1.1,3.1l-3,1.2c-6,2.4-11.4,5.8-16.1,10H215.1z"/>
</svg>
