<svg height="25" viewBox="0 0 23 25" width="23" xmlns="http://www.w3.org/2000/svg"><g fill="#834995"><path d="m21.068 13.915c-.598 5.037-4.209 5.359-4.876 5.589-.276.092-2.921.759-6.21.552l-3.588 3.979v-4.577h-.023c-4.807-1.38-4.646-6.509-4.6-9.2s.552-4.899 2.024-6.394c2.645-2.438 8.073-2.07 8.073-2.07 4.6.023 6.785 1.426 7.291 1.909 1.679 1.472 2.553 5.014 1.909 10.212m-.667-11.5c-.598-.552-3.036-2.369-8.464-2.392 0 0-6.394-.391-9.522 2.53-1.725 1.771-2.346 4.37-2.392 7.59-.069 3.22-.138 9.269 5.543 10.902v2.507s-.046 1.012.621 1.219c.782.253 1.242-.529 2.001-1.357.414-.46.989-1.127 1.403-1.633 3.887.345 6.877-.437 7.222-.552.782-.253 5.221-.851 5.957-6.877.736-6.21-.368-10.166-2.369-11.937"/><path d="m16.928 14.674s-.736-.621-1.081-.897c-.345-.253-.874-.598-1.173-.759-.529-.299-1.081-.115-1.311.184l-.46.598c-.23.299-.621.253-.713.23-.69-.184-1.426-.598-2.185-1.334s-1.219-1.518-1.38-2.3l-.023-.046c-.046-.322 0-.483.138-.713l.023-.023c.322-.299.897-.644.989-.989.23-.598-.782-1.84-.92-2.047 0 0-.736-.966-.989-1.15-.276-.23-.713-.368-1.15-.092h-.023c-1.265.851-1.702 1.334-1.587 2.07l.069.299c.644 2.001 1.863 4.163 3.703 6.072 1.817 1.863 3.795 2.99 5.727 3.772.506.161 1.035.023 1.564-.437.414-.391.736-.805.966-1.242.253-.46.161-.897-.184-1.196"/><path d="m13.915 10.258c-.069 0-.138-.069-.138-.138-.023-.529-.161-.92-.414-1.196s-.621-.414-1.104-.437c-.069 0-.138-.069-.138-.161s.069-.138.161-.138c.575.023 1.012.207 1.311.529s.46.782.506 1.38c-.023.092-.092.161-.184.161"/><path d="m15.341 10.764c-.092 0-.138-.069-.138-.161.023-.989-.276-1.84-.874-2.507-.299-.345-.667-.598-1.081-.782s-.897-.299-1.449-.345c-.069 0-.138-.069-.138-.161s.069-.138.161-.138c1.15.092 2.07.506 2.714 1.219.644.736.966 1.633.943 2.714.023.092-.046.161-.138.161"/><path d="m16.813 11.339c-.069 0-.138-.069-.138-.138 0-.874-.138-1.679-.391-2.369s-.644-1.288-1.15-1.794-1.081-.897-1.702-1.15-1.334-.391-2.093-.391c-.069 0-.138-.069-.138-.138 0-.092.069-.138.138-.138 1.587.023 2.921.552 4.002 1.633.529.529.943 1.173 1.219 1.909s.414 1.564.414 2.484c0 .023-.069.092-.161.092z"/></g></svg>