<?xml version="1.0" encoding="utf-8"?>
<!-- Generator: Adobe Illustrator 23.0.3, SVG Export Plug-In . SVG Version: 6.00 Build 0)  -->
<svg version="1.1" id="Layer_1" xmlns="http://www.w3.org/2000/svg" xmlns:xlink="http://www.w3.org/1999/xlink" x="0px" y="0px"
	 viewBox="0 0 512 512" style="enable-background:new 0 0 512 512;" xml:space="preserve">
<style type="text/css">
	.st0{stroke:#000000;stroke-width:9.8026;stroke-miterlimit:10;}
</style>
<g>
	<path class="st0" d="M355,159.2c-1.8,0-3.6,0.7-4.9,2L230.6,280.8L161.9,212c-2.7-2.6-7-2.6-9.7,0l-27.7,27.7c-2.7,2.7-2.7,7,0,9.7
		l101.4,101.4c2.7,2.7,7,2.7,9.7,0l0,0l152.1-152.1c2.7-2.7,2.7-7,0-9.7L360,161.3C358.6,160,356.8,159.2,355,159.2L355,159.2z
		 M230.6,336.2L139,244.6l18-18l68.8,68.8c2.7,2.7,7,2.7,9.7,0l0,0L355,175.8l18,18L230.6,336.2z"/>
	<path class="st0" d="M256,69.1C152.8,69.1,69.1,152.8,69.1,256S152.8,442.9,256,442.9S442.9,359.2,442.9,256
		C442.8,152.8,359.2,69.2,256,69.1z M256,429.2c-95.6,0-173.2-77.5-173.2-173.2S160.3,82.8,256,82.8S429.2,160.4,429.2,256
		C429.1,351.6,351.6,429.1,256,429.2z"/>
	<path class="st0" d="M499.2,278c10.4-12.8,10.4-31.2,0-44L488,220c-4.4-5.5-5.8-12.7-3.9-19.4l5-17.2c4.5-15.9-2.5-32.7-16.9-40.7
		l-15.7-8.6c-6.1-3.4-10.3-9.5-11-16.5l-2-17.9c-1.7-16.4-14.7-29.4-31.1-31.1l-17.9-2c-7-0.8-13.1-4.9-16.5-11l-8.6-15.7
		c-7.9-14.6-24.9-21.6-40.7-16.9l-17.2,5c-6.7,2-14,0.5-19.5-3.9l-14-11.2c-12.8-10.4-31.2-10.4-44,0l-14,11.2
		c-5.5,4.4-12.7,5.8-19.4,3.9l-17.2-5c-15.9-4.5-32.7,2.5-40.7,16.9l-8.6,15.7c-3.4,6.1-9.5,10.3-16.5,11l-17.9,2
		c-16.4,1.7-29.4,14.7-31.1,31.1l-2,17.9c-0.8,7-4.9,13.1-11,16.5l-15.7,8.6c-14.6,7.9-21.6,24.9-16.9,40.7l5,17.2
		c2,6.7,0.5,14-3.9,19.5l-11.2,14c-10.4,12.8-10.4,31.2,0,44L24,292c4.4,5.5,5.8,12.7,3.9,19.4l-5,17.2
		c-4.5,15.9,2.5,32.7,16.9,40.7l15.7,8.6c6.1,3.4,10.3,9.5,11,16.5l2,17.9c1.7,16.4,14.7,29.4,31.1,31.1l17.9,2
		c7,0.8,13.1,4.9,16.5,11l8.6,15.7c7.9,14.6,24.9,21.6,40.7,16.9l17.2-5c6.7-1.9,14-0.5,19.5,3.9l14,11.2c12.8,10.4,31.2,10.4,44,0
		l14-11.2c5.5-4.4,12.7-5.8,19.4-3.9l17.2,5c15.9,4.7,32.9-2.3,40.7-16.9l8.6-15.7c3.4-6.1,9.5-10.3,16.5-11l17.9-2
		c16.4-1.7,29.4-14.7,31.1-31.1l2-17.9c0.8-7,4.9-13.1,11-16.5l15.7-8.6c14.6-7.9,21.6-24.9,16.9-40.7l-5-17.2
		c-2-6.7-0.5-14,3.9-19.5L499.2,278z M477.3,283.5c-7.2,9-9.5,20.9-6.3,31.9l5,17.2c2.9,9.7-1.4,20-10.3,24.9l-15.7,8.6
		c-10.1,5.5-16.8,15.6-18.1,27l-2,17.9c-1.1,10-9,17.9-19,19l-17.9,2c-11.4,1.3-21.5,8-27,18.1l-8.6,15.7
		c-4.8,8.9-15.2,13.2-24.9,10.3l-17.2-5c-11-3.2-22.9-0.9-31.9,6.3l-14,11.2c-7.8,6.3-19,6.3-26.9,0l-14-11.2
		c-9-7.2-20.9-9.5-31.9-6.3l-17.2,5c-9.7,2.9-20-1.4-24.9-10.3l-8.6-15.7c-5.5-10.1-15.6-16.8-27-18.1l-17.9-2c-10-1.1-17.9-9-19-19
		l-2-17.9c-1.3-11.4-8-21.5-18.1-27l-15.7-8.6c-8.8-4.9-13.1-15.2-10.3-24.9l5-17.2c3.2-11,0.9-22.9-6.3-31.9l-11.3-14
		c-6.3-7.8-6.3-19,0-26.9l11.2-14c7.2-9,9.5-20.9,6.3-31.9l-5-17.2c-2.9-9.7,1.4-20,10.3-24.9L62,146c10.1-5.5,16.8-15.6,18.1-27
		l2-17.9c1.1-10,9-17.9,19-19l17.9-2c11.4-1.3,21.5-8,27-18.1l8.6-15.7c4.9-8.8,15.2-13.1,24.8-10.3l17.2,5
		c11,3.2,22.9,0.9,31.9-6.3l14-11.3c7.8-6.3,19-6.3,26.9,0l14,11.2c9,7.2,20.9,9.5,31.9,6.3l17.2-5c9.7-2.9,20,1.4,24.9,10.3
		l8.6,15.7c5.5,10.1,15.6,16.8,27,18.1l17.9,2c10,1.1,17.9,9,19,19l2,17.9c1.3,11.4,8,21.5,18.1,27l15.7,8.6
		c8.8,4.9,13.1,15.2,10.3,24.9l-5,17.2c-3.2,11-0.9,22.9,6.3,31.9l11.2,14c6.3,7.8,6.3,19,0,26.9L477.3,283.5z"/>
</g>
</svg>
