<?xml version="1.0" encoding="utf-8"?>
<!-- Generator: Adobe Illustrator 24.2.0, SVG Export Plug-In . SVG Version: 6.00 Build 0)  -->
<svg version="1.1" id="Layer_1" xmlns="http://www.w3.org/2000/svg" xmlns:xlink="http://www.w3.org/1999/xlink" x="0px" y="0px"
	 viewBox="0 0 95.4 97" style="enable-background:new 0 0 95.4 97;" xml:space="preserve">
<style type="text/css">
	.st0{fill:#FFFFFF;}
</style>
<path class="st0" d="M95.4,95.8c-2.2-9.3-9.7-16.5-19.2-18.2c-5.8-1.1-9.5-2.3-11.8-3.6c0-0.1-0.1-0.1-0.1-0.2
	c-0.1-0.1-0.3-0.2-0.5-0.2c-3.3-2-3.3-4.2-3.3-5.9l0-7.2c4.5-0.5,9.4-4.4,10.7-9.4l7.3,0c3-0.3,5.4-2.6,5.7-5.7l0-11.2
	c-0.3-3-2.6-5.4-5.7-5.7h-6.9v-5.3C71.7,6.1,58.7,0,47.6,0c-11,0-23.8,6.1-23.8,23.2v5.3l-7,0c-3,0.3-5.4,2.6-5.7,5.7l0,11.2
	c0.3,3,2.6,5.4,5.7,5.7H26c1.9,5,5,9.4,8.9,12.6l0,4.1c0,1.7,0,3.8-3.3,5.8c-0.2,0-0.3,0.1-0.5,0.2C31,73.9,31,73.9,31,74
	c-2.3,1.3-6.1,2.5-12.1,3.6C9.4,79.3,2,86.4,0,95.8c-0.1,0.3,0,0.6,0.2,0.8C0.4,96.9,0.7,97,1,97h93.4c0.3,0,0.6-0.1,0.8-0.4
	C95.4,96.4,95.5,96.1,95.4,95.8z M78.5,30.5c2,0.2,3.7,1.8,3.8,3.8l0,11c-0.2,2-1.8,3.7-3.8,3.8h-7c0-0.2,0-0.4,0-0.6v-18L78.5,30.5
	z M47.6,2c9.3,0,19.9,4.6,21.8,17.1c-2.1-3.1-5.9-6.4-13-6.4c-6,0-9.4,2.7-12.9,5.6c-4.1,3.4-8.4,6.8-17.8,7v-2.1
	C25.7,7.5,37.5,2,47.6,2z M16.9,49.1c-2-0.2-3.7-1.8-3.8-3.8l0-11c0.2-2,1.8-3.7,3.8-3.8h6.9V39c0,3.5,0.5,6.9,1.5,10.1L16.9,49.1z
	 M36.8,67.8l0-2.6c0.2,0.2,0.5,0.3,0.7,0.5c0.2,0.1,0.3,0.1,0.5,0.1c0.3,0,0.7-0.2,0.9-0.5c0.3-0.5,0.1-1.1-0.3-1.4
	c-0.7-0.4-1.4-0.9-2-1.4c0,0,0,0,0,0C29.9,57.3,25.7,48.4,25.7,39V27.3c10.1-0.2,14.8-4.1,19-7.5c3.4-2.8,6.3-5.2,11.6-5.2
	c11.3,0,13.1,9.2,13.3,10.2v23.7c0,5.4-5.2,9.5-9.2,10c-0.5-2.7-2.8-4.7-5.6-4.7h-3.2c-3.2,0-5.8,2.6-5.8,5.8s2.6,5.8,5.8,5.8h3.2
	c1.4,0,2.7-0.5,3.7-1.4l0,3.8c0,2.4,0.4,4.9,3.6,7.2L47.6,92.8L33.2,74.9C36.4,72.7,36.9,70.2,36.8,67.8z M58.6,59.6
	c0,2.1-1.7,3.8-3.8,3.8h-3.2c-2.1,0-3.8-1.7-3.8-3.8s1.7-3.8,3.8-3.8h3.2C56.9,55.8,58.6,57.5,58.6,59.6z M19.2,79.6
	c5.8-1,9.6-2.3,12.3-3.6L46.7,95H2.3C4.5,87,11,81,19.2,79.6z M48.4,95l15.5-19.1c2.6,1.3,6.4,2.6,12,3.6
	c8.2,1.5,14.9,7.5,17.2,15.4H48.4z"/>
</svg>
