<?xml version="1.0" encoding="utf-8"?>
<!-- Generator: Adobe Illustrator 24.2.0, SVG Export Plug-In . SVG Version: 6.00 Build 0)  -->
<svg version="1.1" id="Layer_1" xmlns="http://www.w3.org/2000/svg" xmlns:xlink="http://www.w3.org/1999/xlink" x="0px" y="0px"
	 viewBox="0 0 95.4 97" style="enable-background:new 0 0 95.4 97;" xml:space="preserve">
<style type="text/css">
	.st0{fill:#FFFFFF;}
</style>
<g>
	<g>
		<path class="st0" d="M92.4,76.1H33.2c-0.6,0-1-0.4-1-1s0.4-1,1-1h59.2c0.6,0,1,0.4,1,1S93,76.1,92.4,76.1z M92.4,49.4H33.2
			c-0.6,0-1-0.4-1-1s0.4-1,1-1h59.2c0.6,0,1,0.4,1,1S93,49.4,92.4,49.4z M92.4,22.8H33.2c-0.6,0-1-0.4-1-1s0.4-1,1-1h59.2
			c0.6,0,1,0.4,1,1S93,22.8,92.4,22.8z"/>
	</g>
	<g>
		<path class="st0" d="M9.5,82c-0.3,0-0.5-0.1-0.7-0.3l-5.9-5.9c-0.4-0.4-0.4-1,0-1.4s1-0.4,1.4,0l5,5l6.4-10.7
			c0.3-0.5,0.9-0.6,1.4-0.3c0.5,0.3,0.6,0.9,0.3,1.4l-7.1,11.8C10.2,81.8,9.9,82,9.6,82C9.6,82,9.5,82,9.5,82z M9.5,55.3
			c-0.3,0-0.5-0.1-0.7-0.3l-5.9-5.9c-0.4-0.4-0.4-1,0-1.4s1-0.4,1.4,0l5,5l6.4-10.6c0.3-0.5,0.9-0.6,1.4-0.3
			c0.5,0.3,0.6,0.9,0.3,1.4l-7.1,11.7c-0.2,0.3-0.4,0.4-0.7,0.5C9.6,55.3,9.5,55.3,9.5,55.3z M9.5,28.7c-0.3,0-0.5-0.1-0.7-0.3
			l-5.9-5.9c-0.4-0.4-0.4-1,0-1.4s1-0.4,1.4,0l5,5l6.4-10.6c0.3-0.5,0.9-0.6,1.4-0.3c0.5,0.3,0.6,0.9,0.3,1.4l-7.1,11.7
			c-0.2,0.3-0.4,0.4-0.7,0.5C9.6,28.7,9.5,28.7,9.5,28.7z"/>
	</g>
</g>
</svg>
