<?xml version="1.0" encoding="utf-8"?>
<!-- Generator: Adobe Illustrator 24.2.0, SVG Export Plug-In . SVG Version: 6.00 Build 0)  -->
<svg version="1.1" id="Layer_1" xmlns="http://www.w3.org/2000/svg" xmlns:xlink="http://www.w3.org/1999/xlink" x="0px" y="0px"
	 viewBox="0 0 102.5 102" style="enable-background:new 0 0 102.5 102;" xml:space="preserve">
<style type="text/css">
	.st0{fill:#FFFFFF;}
</style>
<path class="st0" d="M102.2,58.6L90.3,47c-0.4-0.4-1-0.4-1.4,0L68.7,67.2v-42c0-0.1,0-0.3-0.1-0.4c-0.1-0.1-0.1-0.2-0.2-0.3
	L44.1,0.3c-0.1-0.1-0.2-0.2-0.3-0.2C43.7,0,43.6,0,43.4,0H1C0.4,0,0,0.4,0,1v90.9c0,0.6,0.4,1,1,1h48.9l-3,7.7
	c-0.1,0.4-0.1,0.8,0.2,1.1c0.2,0.2,0.4,0.3,0.7,0.3c0.1,0,0.2,0,0.4-0.1l19-7.2c0.1,0,0.3-0.1,0.4-0.2L102.2,60
	c0.2-0.2,0.3-0.4,0.3-0.7C102.4,59.1,102.3,58.8,102.2,58.6z M44.4,3.4l20.8,20.8H44.4V3.4z M2,90.9V2h40.4v23.2c0,0.6,0.4,1,1,1
	h23.2v43L54.4,81.5c-0.1,0.1-0.2,0.2-0.2,0.4l-3.5,9.1H2z M49.5,99.3l2.7-7c0,0,0,0,0,0l3.2-8.3l9.5,9.5L49.5,99.3z M66.8,92.4
	L56.5,82.2l33.1-33.1L100,59.3L66.8,92.4z"/>
</svg>
