<?xml version="1.0" encoding="utf-8"?>
<!-- Generator: Adobe Illustrator 24.2.0, SVG Export Plug-In . SVG Version: 6.00 Build 0)  -->
<svg version="1.1" id="Layer_1" xmlns="http://www.w3.org/2000/svg" xmlns:xlink="http://www.w3.org/1999/xlink" x="0px" y="0px"
	 viewBox="0 0 51.7 28" style="enable-background:new 0 0 51.7 28;" xml:space="preserve">
<g>
	<path d="M48.7,0H17.7c-1.6,0-3,1.3-3,3v22.1c0,1.6,1.3,3,3,3h31.1c1.6,0,3-1.3,3-3V3C51.7,1.3,50.4,0,48.7,0z M49.1,1.5L33.3,17.4
		l-16-15.9H49.1z M16.2,2.6L27.7,14L16.2,25.4V2.6z M17.3,26.5L28.8,15l4,3.9c0.3,0.3,0.8,0.3,1.1,0l3.9-3.9l11.4,11.4H17.3z
		 M50.2,25.4L38.8,14L50.2,2.6V25.4z"/>
	<g>
		<rect width="11" height="1.3"/>
		<rect x="2" y="3" width="9" height="1.3"/>
		<rect x="4" y="6" width="7" height="1.3"/>
	</g>
</g>
</svg>
