<?xml version="1.0" encoding="utf-8"?>
<!-- Generator: Adobe Illustrator 24.2.0, SVG Export Plug-In . SVG Version: 6.00 Build 0)  -->
<svg version="1.1" id="Layer_1" xmlns="http://www.w3.org/2000/svg" xmlns:xlink="http://www.w3.org/1999/xlink" x="0px" y="0px"
	 viewBox="0 0 68.7 92.9" style="enable-background:new 0 0 68.7 92.9;" xml:space="preserve">
<style type="text/css">
	.st0{fill:#FFFFFF;}
</style>
<g>
	<path class="st0" d="M68.7,24.8c-0.1-0.1-0.1-0.2-0.2-0.3L44.2,0.1C44.1,0,44,0,43.8-0.1c-0.1-0.1-0.3-0.1-0.4-0.1H0.9
		c-0.6,0-1,0.4-1,1v91.2c0,0.6,0.4,1,1,1h66.9c0.6,0,1-0.4,1-1V25.2C68.8,25,68.8,24.9,68.7,24.8z M44.5,3.3l20.9,20.9H44.5V3.3z
		 M1.9,91.1V1.8h40.6v23.3c0,0.6,0.4,1,1,1h23.3v64.9H1.9z"/>
	<path class="st0" d="M35.1,36.7C35.1,36.7,35.1,36.7,35.1,36.7C35.1,36.6,35.1,36.6,35.1,36.7C35,36.6,35,36.6,35.1,36.7
		C35,36.6,35,36.6,35.1,36.7c-0.3-0.3-0.5-0.4-0.8-0.4c0,0,0,0,0,0c0,0,0,0,0,0c0,0,0,0,0,0c-0.3,0-0.5,0.1-0.7,0.3c0,0,0,0,0,0
		c0,0,0,0,0,0c0,0,0,0,0,0c0,0,0,0,0,0.1L22,50.4c-0.4,0.4-0.3,1.1,0.1,1.4c0.4,0.4,1.1,0.3,1.4-0.1l9.8-11.6v30.7c0,0.6,0.4,1,1,1
		s1-0.4,1-1V40.1l9.8,11.6c0.4,0.4,1,0.5,1.4,0.1c0.4-0.4,0.5-1,0.1-1.4L35.1,36.7z"/>
</g>
</svg>
