<?xml version="1.0" encoding="utf-8"?>
<!-- Generator: Adobe Illustrator 24.2.0, SVG Export Plug-In . SVG Version: 6.00 Build 0)  -->
<svg version="1.1" id="Layer_1" xmlns="http://www.w3.org/2000/svg" xmlns:xlink="http://www.w3.org/1999/xlink" x="0px" y="0px"
	 viewBox="0 0 68.7 92.9" style="enable-background:new 0 0 68.7 92.9;" xml:space="preserve">
<style type="text/css">
	.st0{fill:#FFFFFF;}
</style>
<g>
	<path class="st0" d="M68.6,24.9c-0.1-0.1-0.1-0.2-0.2-0.3L44.1,0.3c-0.1-0.1-0.2-0.2-0.3-0.2C43.7,0,43.6,0,43.4,0H1
		C0.4,0,0,0.4,0,1v90.9c0,0.6,0.4,1,1,1h66.7c0.6,0,1-0.4,1-1V25.2C68.7,25.1,68.6,25,68.6,24.9z M44.4,3.4l20.8,20.8H44.4V3.4z
		 M2,90.9V2h40.4v23.2c0,0.6,0.4,1,1,1h23.2v64.7H2z"/>
	<g>
		<path class="st0" d="M43.8,44.3c-1.7-1.7-4-2.6-6.4-2.6H27.3c-0.6,0-1,0.5-1,1V57v0.3v0.5h-0.6h-0.3h-2.2c-0.6,0-1,0.5-1,1
			c0,0.6,0.5,1,1,1h2.2h0.3h0.6v0.5v0.3v4.3v0.3v0.5h-0.6h-0.3h-2.2c-0.6,0-1,0.5-1,1s0.5,1,1,1h2.2h0.3h0.6v0.5v0.3V73
			c0,0.6,0.5,1,1,1c0.6,0,1-0.5,1-1v-4.2v-0.3V68h0.6h0.3h8.2c0.6,0,1-0.5,1-1s-0.5-1-1-1h-8.2h-0.3h-0.6v-0.5v-0.3v-4.3v-0.3v-0.5
			h0.6h0.3h8.2c5,0,9.1-4.1,9.1-9.1C46.5,48.3,45.5,46,43.8,44.3z M37.4,57.8h-8.2h-0.3h-0.6v-0.5V57V44.6v-0.3v-0.5h0.6h0.3h8.2
			c3.9,0,7.1,3.2,7.1,7.1C44.4,54.7,41.3,57.8,37.4,57.8z"/>
	</g>
</g>
</svg>
