<?xml version="1.0" encoding="utf-8"?>
<!-- Generator: Adobe Illustrator 24.2.0, SVG Export Plug-In . SVG Version: 6.00 Build 0)  -->
<svg version="1.1" id="Layer_1" xmlns="http://www.w3.org/2000/svg" xmlns:xlink="http://www.w3.org/1999/xlink" x="0px" y="0px"
	 viewBox="0 0 68.7 92.9" style="enable-background:new 0 0 68.7 92.9;" xml:space="preserve">
<style type="text/css">
	.st0{fill:#FFFFFF;}
</style>
<g>
	<path class="st0" d="M68.6,24.9c-0.1-0.1-0.1-0.2-0.2-0.3L44.1,0.3c-0.1-0.1-0.2-0.2-0.3-0.2C43.7,0,43.6,0,43.4,0H1
		C0.4,0,0,0.4,0,1v90.9c0,0.6,0.4,1,1,1h66.7c0.6,0,1-0.4,1-1V25.2C68.7,25.1,68.6,25,68.6,24.9z M44.4,3.4l20.8,20.8H44.4V3.4z
		 M2,90.9V2h40.4v23.2c0,0.6,0.4,1,1,1h23.2v64.7H2z"/>
	<path class="st0" d="M49.8,36.4c-0.5-0.2-1.1,0-1.3,0.5L34,69.1L18.3,53.4c-0.4-0.4-1-0.4-1.4,0s-0.4,1,0,1.4l16.7,16.7
		c0,0,0.1,0.1,0.1,0.1c0.1,0,0.1,0.1,0.2,0.1c0,0,0,0,0,0c0.1,0.1,0.3,0.1,0.4,0.1c0,0,0,0,0,0c0,0,0,0,0,0c0,0,0,0,0,0c0,0,0,0,0,0
		c0.1,0,0.2,0,0.3-0.1c0,0,0.1,0,0.1,0c0.1,0,0.2-0.1,0.2-0.2c0,0,0,0,0,0c0,0,0,0,0,0c0.1-0.1,0.1-0.2,0.2-0.3l15.1-33.5
		C50.6,37.2,50.3,36.6,49.8,36.4z"/>
</g>
</svg>
