<?xml version="1.0" encoding="utf-8"?>
<!-- Generator: Adobe Illustrator 24.2.0, SVG Export Plug-In . SVG Version: 6.00 Build 0)  -->
<svg version="1.1" id="Layer_1" xmlns="http://www.w3.org/2000/svg" xmlns:xlink="http://www.w3.org/1999/xlink" x="0px" y="0px"
	 viewBox="0 0 68.7 92.9" style="enable-background:new 0 0 68.7 92.9;" xml:space="preserve">
<style type="text/css">
	.st0{fill:#FFFFFF;}
</style>
<path class="st0" d="M59.3,10.3c-4.5-4.4-10.4-6.8-16.7-6.8H15.1c-1,0-1.8,0.8-1.8,1.8v42.2H4.1c-1,0-1.8,0.8-1.8,1.8
	c0,1,0.8,1.8,1.8,1.8h9.2v18.4H4.1c-1,0-1.8,0.8-1.8,1.8c0,1,0.8,1.8,1.8,1.8h9.2v14.7c0,1,0.8,1.8,1.8,1.8c0.9,0,1.8-0.8,1.8-1.8
	V73h25.7c1,0,1.8-0.8,1.8-1.8c0-1-0.8-1.8-1.8-1.8H16.9V51h25.7c13.1,0,23.8-10.7,23.8-23.8C66.4,20.8,63.9,14.8,59.3,10.3z
	 M42.6,47.4H16.9V7h25.7c11.1,0,20.2,9.1,20.2,20.2C62.8,38.4,53.7,47.4,42.6,47.4z"/>
</svg>
