<?xml version="1.0" encoding="utf-8"?>
<!-- Generator: Adobe Illustrator 24.2.0, SVG Export Plug-In . SVG Version: 6.00 Build 0)  -->
<svg version="1.1" id="Layer_1" xmlns="http://www.w3.org/2000/svg" xmlns:xlink="http://www.w3.org/1999/xlink" x="0px" y="0px"
	 viewBox="0 0 119.1 82.1" style="enable-background:new 0 0 119.1 82.1;" xml:space="preserve">
<style type="text/css">
	.st0{fill:#FFFFFF;}
</style>
<g>
	<path class="st0" d="M7.8,72.4L7.9,73c0.9,5.3,5.4,9.1,10.7,9.1s9.8-3.8,10.7-9.1l0.1-0.7h0.7h56.8h0.7l0.1,0.7
		c0.9,5.3,5.4,9.1,10.7,9.1s9.8-3.8,10.7-9.1l0.1-0.7h0.7h9.1V45.5L101,21.4H77.8v28.4v0.8H77H59.5h-0.8v-0.8V0H48.6v3.1v0.8h-0.8
		h-42V14h8.9h0.8v0.8v16.7h1.1c2.6,0,4.7,2.1,4.7,4.7c0,2.6-2.1,4.7-4.7,4.7c-2.3,0-4.2-1.7-4.6-3.9H9.8c0.4,3.5,3.4,6.2,6.9,6.2
		c3.9,0,7-3.1,7-7c0-3.2-2.2-6-5.2-6.8l-0.6-0.2v-0.6V14.8V14h0.8h29.2h0.8v0.8v35v0.8h-0.8H0v21.7h7.2H7.8z M48.7,7v3.9v0.8h-0.8
		H8.9H8.1v-0.8V7V6.2h0.8h38.9h0.8V7z M18.7,79.8c-4.7,0-8.6-3.9-8.6-8.6s3.9-8.6,8.6-8.6s8.6,3.9,8.6,8.6S23.4,79.8,18.7,79.8z
		 M98.5,79.8c-4.7,0-8.6-3.9-8.6-8.6s3.9-8.6,8.6-8.6s8.6,3.9,8.6,8.6S103.2,79.8,98.5,79.8z M116.8,47v0.8v21.4V70H116h-6h-0.7
		l-0.1-0.7c-0.9-5.3-5.4-9.1-10.7-9.1s-9.8,3.8-10.7,9.1L87.6,70H87h-6h-0.8v-0.8V47.8V47H81h35H116.8z M80.1,43.9V24.5v-0.8h0.8
		h18.5h0.4l0.2,0.3l14.6,19.5l1,1.3H114H80.9h-0.8V43.9z M50.9,49.8V3.1V2.3h0.8h3.9h0.8v0.8v46.7v0.8h-0.8h-3.9h-0.8V49.8z M2.3,70
		v-0.8V53.7v-0.8h0.8h74h0.8v0.8v15.6V70h-0.8H30.2h-0.7l-0.1-0.7c-0.9-5.3-5.4-9.1-10.7-9.1c-5.3,0-9.8,3.8-10.7,9.1L7.9,70H7.2
		H3.1H2.3z"/>
	<rect x="48.6" y="60.3" class="st0" width="2.3" height="2.3"/>
	<rect x="40.9" y="60.3" class="st0" width="2.3" height="2.3"/>
	<rect x="56.4" y="60.3" class="st0" width="2.3" height="2.3"/>
</g>
</svg>
