<?xml version="1.0" encoding="utf-8"?>
<!-- Generator: Adobe Illustrator 21.1.0, SVG Export Plug-In . SVG Version: 6.00 Build 0)  -->
<svg version="1.1" id="Слой_1" xmlns="http://www.w3.org/2000/svg" xmlns:xlink="http://www.w3.org/1999/xlink" x="0px" y="0px"
	 viewBox="0 0 512 188" style="enable-background:new 0 0 512 188;" xml:space="preserve">
<style type="text/css">
	.st0{fill:#31618C;}
	.st1{fill:#2D2D2D;}
	.st2{fill-rule:evenodd;clip-rule:evenodd;fill:#0887FC;}
	.st3{fill-rule:evenodd;clip-rule:evenodd;fill:#31618C;}
	.st4{fill-rule:evenodd;clip-rule:evenodd;fill:#39739E;}
</style>
<g>
	<g>
		<path class="st0" d="M107.6,83.3v-37c0-1,0.2-1.8,0.5-2.5c0.4-0.7,0.8-1.2,1.4-1.7c0.5-0.5,1.1-0.8,1.8-1c0.7-0.2,1.3-0.3,1.8-0.3
			h15.6c2.1,0,4.2,0.2,6.1,0.6c1.9,0.4,3.6,1.1,5,2.1c1.4,1,2.6,2.3,3.4,3.9c0.8,1.6,1.3,3.6,1.3,6c0,1.8-0.5,3.5-1.4,4.9
			c-0.9,1.5-2.2,2.7-3.8,3.5c1.9,0.8,3.4,2.1,4.5,3.9c1.1,1.8,1.6,3.7,1.6,5.7c0,2.4-0.4,4.5-1.3,6.2c-0.9,1.7-2,3.1-3.5,4.1
			c-1.5,1.1-3.2,1.9-5.2,2.3c-2,0.5-4,0.7-6.2,0.7h-20c-0.4,0-0.8-0.2-1.1-0.5C107.8,84.1,107.6,83.7,107.6,83.3z M127.4,58.2
			c1.4,0,2.6-0.4,3.5-1.2c0.9-0.8,1.3-1.9,1.3-3.4c0-1.5-0.5-2.6-1.4-3.3c-0.9-0.7-2.1-1.1-3.4-1.1H116c1,0,1.8,0.3,2.5,1
			c0.7,0.7,1,1.5,1,2.3v3.8c0,0.4,0.2,0.8,0.5,1.2c0.3,0.4,0.8,0.6,1.4,0.6H127.4z M127.9,76.3c1.5,0,2.8-0.4,3.7-1.3
			c0.9-0.8,1.4-2,1.4-3.6c0-1.5-0.5-2.7-1.5-3.6c-1-0.9-2.2-1.4-3.7-1.4h-12c1,0,1.8,0.3,2.5,1c0.7,0.7,1,1.5,1,2.3v4.6
			c0,0.4,0.2,0.8,0.5,1.3c0.3,0.4,0.8,0.6,1.4,0.6H127.9z"/>
		<path class="st0" d="M170.7,85.7c-6,0-10.7-1.5-14.2-4.4c-3.5-2.9-5.3-7.2-5.5-12.8c0-1.2-0.1-3-0.1-5.4c0-2.4,0-4.3,0.1-5.5
			c0.2-5.6,2-9.9,5.5-12.9c3.5-3,8.2-4.5,14.1-4.5c5.9,0,10.5,1.5,14.1,4.5c3.5,3,5.4,7.3,5.5,12.9c0.1,2.4,0.1,4.3,0.1,5.5
			c0,1.3,0,3.1-0.1,5.4c-0.2,5.6-2,9.9-5.5,12.8C181.4,84.2,176.7,85.7,170.7,85.7z M170.7,76.2c2.2,0,3.9-0.7,5.2-2
			c1.3-1.3,2-3.4,2.1-6.1c0.1-2.4,0.1-4.2,0.1-5.2c0-1.1,0-2.8-0.1-5.1c-0.1-2.7-0.8-4.8-2.1-6.1c-1.3-1.3-3.1-2-5.2-2
			c-2.2,0-4,0.7-5.3,2c-1.3,1.3-2,3.4-2.1,6.1c0,1.2-0.1,2.9-0.1,5.1c0,2.3,0,4,0.1,5.2c0.1,2.7,0.8,4.8,2.1,6.1
			C166.7,75.5,168.5,76.2,170.7,76.2z"/>
		<path class="st0" d="M215.9,85.7c-6,0-10.7-1.5-14.2-4.4c-3.5-2.9-5.3-7.2-5.5-12.8c0-1.2-0.1-3-0.1-5.4c0-2.4,0-4.3,0.1-5.5
			c0.2-5.6,2-9.9,5.5-12.9c3.5-3,8.2-4.5,14.1-4.5c5.9,0,10.5,1.5,14.1,4.5c3.5,3,5.4,7.3,5.5,12.9c0.1,2.4,0.1,4.3,0.1,5.5
			c0,1.3,0,3.1-0.1,5.4c-0.2,5.6-2,9.9-5.5,12.8C226.6,84.2,221.9,85.7,215.9,85.7z M215.9,76.2c2.2,0,3.9-0.7,5.2-2
			c1.3-1.3,2-3.4,2.1-6.1c0.1-2.4,0.1-4.2,0.1-5.2c0-1.1,0-2.8-0.1-5.1c-0.1-2.7-0.8-4.8-2.1-6.1c-1.3-1.3-3.1-2-5.2-2
			c-2.2,0-4,0.7-5.3,2c-1.3,1.3-2,3.4-2.1,6.1c0,1.2-0.1,2.9-0.1,5.1c0,2.3,0,4,0.1,5.2c0.1,2.7,0.8,4.8,2.1,6.1
			C211.9,75.5,213.7,76.2,215.9,76.2z"/>
		<path class="st0" d="M285.1,41c0.5,0,0.8,0.1,1.1,0.4c0.3,0.3,0.4,0.7,0.4,1.2v40.9c0,0.5-0.1,0.8-0.4,1.1
			c-0.3,0.3-0.7,0.4-1.1,0.4h-8c-0.4,0-0.8-0.2-1.1-0.5c-0.3-0.3-0.5-0.7-0.5-1V61.9c0-0.2-0.1-0.3-0.3-0.3c-0.1,0-0.2,0-0.3,0.1
			L268.8,73c-0.5,1-1.3,1.5-2.2,1.5h-3.4c-0.9,0-1.6-0.5-2.2-1.5l-6.1-11.3c-0.1-0.1-0.2-0.2-0.3-0.2c-0.2,0-0.3,0.1-0.3,0.3v21.6
			c0,0.4-0.2,0.8-0.5,1.1c-0.3,0.3-0.7,0.4-1.1,0.4h-8c-0.5,0-0.8-0.1-1.1-0.4c-0.3-0.3-0.4-0.6-0.4-1.1V46.3c0-0.9,0.2-1.7,0.6-2.3
			c0.4-0.7,0.8-1.2,1.4-1.6c0.5-0.4,1.1-0.7,1.7-0.9c0.6-0.2,1.1-0.3,1.5-0.3h3.5c1,0,1.8,0.4,2.3,1.3l10.5,18.9
			c0,0.1,0.1,0.2,0.3,0.2c0.1,0,0.2-0.1,0.3-0.2l10.6-18.9c0.5-0.9,1.3-1.3,2.3-1.3H285.1z"/>
		<path class="st0" d="M295.4,83.3v-37c0-1.6,0.5-2.9,1.6-4c1.1-1,2.4-1.5,3.9-1.5h25.8c0.5,0,0.9,0.2,1.2,0.5
			c0.3,0.3,0.5,0.7,0.5,1.2v6.3c0,0.5-0.1,0.8-0.4,1.1c-0.3,0.3-0.7,0.4-1.2,0.4h-23.3c1,0,1.8,0.4,2.5,1.1c0.7,0.7,1,1.5,1,2.3v2.7
			c0,0.5,0.2,0.9,0.5,1.3c0.3,0.4,0.8,0.6,1.4,0.6h13.8c0.5,0,0.9,0.2,1.2,0.5c0.3,0.3,0.5,0.7,0.5,1.2v5.7c0,0.5-0.2,0.9-0.5,1.2
			c-0.3,0.3-0.7,0.5-1.2,0.5h-19.2c1,0,1.8,0.3,2.5,1c0.7,0.7,1,1.4,1,2.3v3c0,0.5,0.2,0.9,0.5,1.3c0.3,0.4,0.8,0.6,1.4,0.6h18.5
			c1.1,0,1.6,0.5,1.6,1.6v6.2c0,0.5-0.2,0.9-0.5,1.2c-0.3,0.3-0.7,0.4-1.2,0.4H297c-0.4,0-0.8-0.2-1.1-0.5
			C295.5,84.1,295.4,83.8,295.4,83.3z"/>
		<path class="st0" d="M372.3,84.9h-8.9c-1.2,0-2-0.5-2.5-1.6l-6.4-12.6c-0.4-0.7-0.9-1-1.7-1h-8.3c1.1,0,1.9,0.4,2.5,1.1
			c0.6,0.7,0.9,1.5,0.9,2.2v10.4c0,0.5-0.1,0.8-0.4,1.1c-0.3,0.3-0.7,0.4-1.1,0.4h-8.7c-0.4,0-0.8-0.2-1.1-0.5
			c-0.3-0.3-0.5-0.7-0.5-1V46.3c0-1.6,0.5-2.9,1.6-3.9c1.1-1,2.4-1.5,3.9-1.5h13.4c2.4,0,4.6,0.3,6.7,0.8c2.1,0.5,4,1.3,5.6,2.5
			c1.6,1.1,2.9,2.6,3.9,4.5c1,1.8,1.5,4.1,1.5,6.7c0,2.5-0.6,4.8-1.7,6.8s-2.8,3.7-5.1,4.9c-0.3,0.2-0.5,0.5-0.5,0.8
			c0,0.3,0,0.5,0.2,0.7l8,14.4c0.1,0.3,0.2,0.5,0.2,0.7c0,0.3-0.1,0.6-0.4,0.9C372.9,84.8,372.6,84.9,372.3,84.9z M360.4,55.3
			c0-1.7-0.5-3-1.5-4c-1-0.9-2.4-1.4-4-1.4h-10.9c1.1,0,1.9,0.4,2.5,1.1c0.6,0.7,0.9,1.5,0.9,2.3v5.1c0,0.5,0.2,0.9,0.5,1.3
			c0.4,0.4,0.8,0.6,1.4,0.6h5.5c1.6,0,3-0.4,4-1.2C359.9,58.3,360.4,57,360.4,55.3z"/>
		<path class="st0" d="M376.4,84.7c-0.3-0.3-0.4-0.7-0.4-0.9c0-0.3,0-0.5,0.1-0.6l14.7-40.3c0.5-1.2,1.3-1.8,2.5-1.8h9.8
			c1.2,0,2.1,0.6,2.5,1.8l14.7,40.3c0,0.1,0.1,0.3,0.1,0.6c0,0.3-0.1,0.6-0.4,0.9c-0.3,0.3-0.6,0.4-0.9,0.4h-8.2
			c-1.1,0-1.8-0.5-2.1-1.4l-3.3-8.9c-1.5,0.6-3.1,1.1-4.6,1.5c-1.6,0.4-3.1,0.7-4.5,0.9c-1.5,0.2-2.8,0.3-4.1,0.4
			c-1.3,0.1-2.4,0.1-3.3,0.1c-0.6,0-1.1,0-1.5,0c-0.4,0-0.7,0-0.9-0.1c0.8,0.1,1.4,0.5,1.9,1.3c0.5,0.7,0.5,1.6,0.2,2.5l-0.9,2.4
			c-0.4,0.9-1.1,1.4-2.1,1.4h-8.2C377.1,85,376.8,84.9,376.4,84.7z M392.5,68.5c1.2-0.1,2.4-0.2,3.7-0.4c1.1-0.2,2.2-0.4,3.4-0.7
			c1.2-0.3,2.3-0.8,3.4-1.4L398.2,52L392.5,68.5z"/>
		<path class="st0" d="M425.4,83.3v-37c0-1.5,0.5-2.8,1.6-3.9c1.1-1.1,2.4-1.6,3.9-1.6h2.1c0.5,0,1,0.1,1.6,0.3s1.3,0.7,2,1.7
			c2.5,3.9,4.7,7.4,6.7,10.5c1.2,1.9,2.2,3.4,2.9,4.5c0.7,1.1,1.4,2.1,2,3.1c0.6,0.9,1.2,1.8,1.6,2.4c0.4,0.7,0.7,1.1,0.8,1.2
			c0,0.1,0.1,0.1,0.3,0.1c0.2,0,0.3-0.1,0.3-0.3v-18c0-1.6,0.6-3,1.7-4c1.1-1,2.4-1.5,3.9-1.5h4c0.5,0,0.8,0.1,1.1,0.4
			c0.3,0.4,0.4,0.8,0.4,1.2v40.8c0,0.4-0.1,0.8-0.4,1.1c-0.3,0.3-0.7,0.5-1.1,0.5h-7.1c-0.9,0-1.6-0.4-2.1-1.2
			c-2.5-3.9-4.8-7.4-6.8-10.4c-1.2-1.9-2.2-3.3-2.9-4.5c-0.7-1.1-1.4-2.1-2-3.1c-0.6-0.9-1.2-1.7-1.6-2.4c-0.4-0.7-0.7-1-0.8-1.2
			c-0.1-0.1-0.2-0.2-0.3-0.2c-0.2,0-0.3,0.1-0.3,0.3v21.1c0,0.5-0.2,0.8-0.5,1.1c-0.3,0.3-0.7,0.4-1.1,0.4h-8
			c-0.4,0-0.7-0.2-1.1-0.5C425.6,84,425.4,83.6,425.4,83.3z"/>
		<path class="st0" d="M469.7,68.6c0-0.6,0-1.4,0-2.4c0-0.9,0-2.1,0-3.4c0-1.3,0-2.5,0-3.4c0-0.9,0-1.7,0-2.4
			c0.1-2.9,0.7-5.4,1.8-7.5c1.1-2.1,2.5-3.8,4.2-5.2c1.8-1.3,3.8-2.3,6.2-3c2.4-0.6,4.9-0.9,7.6-0.9c1.6,0,3.2,0.1,4.8,0.3
			c1.6,0.2,3.2,0.6,4.8,1.2c1.5,0.5,3,1.3,4.3,2.1c1.3,0.9,2.5,2,3.5,3.3c1.6,2,2.4,4.1,2.5,6.3c0,0.4-0.1,0.7-0.4,0.9
			c-0.3,0.3-0.7,0.4-1,0.4h-9.7c-0.3,0-0.7-0.1-1-0.3c-0.2-0.2-0.4-0.4-0.6-0.6c-0.6-1.6-1.6-2.7-2.8-3.3c-1.2-0.7-2.7-1-4.3-1
			c-4.8,0-7.4,2.5-7.6,7.5c0,0.6,0,1.3,0,2.2c0,0.9,0,2,0,3.2c0,1.2,0,2.3,0,3.2c0,0.9,0,1.7,0,2.3c0.1,2.7,0.8,4.6,2.1,6
			c1.3,1.3,3.5,2,6.6,2c1,0,1.8,0,2.5-0.1c0.6-0.1,1.2-0.2,1.6-0.3c0.4-0.1,0.8-0.3,1.2-0.6c0.3-0.2,0.7-0.5,1-0.8
			c0.9-0.8,1.5-1.8,1.8-3.1c0.2-0.7,0.4-1.2,0.8-1.7c0.4-0.4,0.8-0.8,1.2-1.1c0.4-0.3,0.9-0.5,1.3-0.6c0.4-0.1,0.8-0.2,1.1-0.2
			h-11.2c-0.4,0-0.8-0.2-1.1-0.5c-0.3-0.3-0.5-0.7-0.5-1.1v-1.1c0-0.7,0.1-1.3,0.4-2c0.3-0.7,0.6-1.2,1.1-1.8c0.5-0.5,1-0.9,1.7-1.3
			c0.7-0.3,1.5-0.5,2.3-0.5h9.4c1.6,0,2.7,0.4,3.4,1.2c0.7,0.8,1,1.9,1,3.3v4.4c0,3-0.5,5.6-1.6,7.7c-1.1,2.1-2.5,3.9-4.4,5.3
			c-1.8,1.4-4,2.4-6.4,3.1c-2.4,0.7-5,1-7.7,1c-2.8,0-5.4-0.3-7.7-1c-2.4-0.7-4.4-1.7-6.2-3.1c-1.7-1.4-3.1-3.2-4.2-5.3
			C470.4,74.1,469.8,71.5,469.7,68.6z"/>
		<path class="st1" d="M104.2,143.4c-0.3-0.3-0.4-0.7-0.4-0.9c0-0.3,0-0.5,0.1-0.6l14.7-40.3c0.5-1.2,1.3-1.8,2.5-1.8h9.8
			c1.2,0,2.1,0.6,2.5,1.8l14.7,40.3c0,0.1,0.1,0.3,0.1,0.6c0,0.3-0.1,0.6-0.4,0.9c-0.3,0.3-0.6,0.4-0.9,0.4h-8.2
			c-1.1,0-1.8-0.5-2.1-1.4l-3.3-8.9c-1.5,0.6-3.1,1.1-4.6,1.5c-1.6,0.4-3.1,0.7-4.5,0.9s-2.8,0.3-4.1,0.4c-1.3,0.1-2.4,0.1-3.3,0.1
			c-0.6,0-1.1,0-1.5,0c-0.4,0-0.7,0-0.9-0.1c0.8,0.1,1.4,0.5,1.9,1.3c0.5,0.7,0.5,1.6,0.2,2.5l-0.9,2.4c-0.4,0.9-1.1,1.4-2.1,1.4
			h-8.2C104.9,143.8,104.6,143.6,104.2,143.4z M120.3,127.2c1.2-0.1,2.4-0.2,3.7-0.4c1.1-0.2,2.2-0.4,3.4-0.7
			c1.2-0.3,2.3-0.8,3.4-1.4l-4.9-13.9L120.3,127.2z"/>
		<path class="st1" d="M154.4,142v-37c0-1,0.2-1.8,0.5-2.5c0.4-0.7,0.8-1.2,1.4-1.7c0.5-0.5,1.1-0.8,1.8-1c0.7-0.2,1.3-0.3,1.8-0.3
			h15.6c2.1,0,4.2,0.2,6.1,0.6c1.9,0.4,3.6,1.1,5,2.1c1.4,1,2.6,2.3,3.4,3.9c0.8,1.6,1.3,3.6,1.3,6c0,1.8-0.5,3.5-1.4,4.9
			c-0.9,1.5-2.2,2.7-3.8,3.5c1.9,0.8,3.4,2.1,4.5,3.9c1.1,1.8,1.6,3.7,1.6,5.7c0,2.4-0.4,4.5-1.3,6.2c-0.9,1.7-2,3.1-3.5,4.1
			c-1.5,1.1-3.2,1.9-5.2,2.3c-2,0.5-4,0.7-6.2,0.7h-20c-0.4,0-0.8-0.2-1.1-0.5C154.6,142.8,154.4,142.4,154.4,142z M174.2,116.9
			c1.4,0,2.6-0.4,3.5-1.2c0.9-0.8,1.3-1.9,1.3-3.4c0-1.5-0.5-2.6-1.4-3.3c-0.9-0.7-2.1-1.1-3.4-1.1h-11.4c1,0,1.8,0.3,2.5,1
			c0.7,0.7,1,1.5,1,2.3v3.8c0,0.4,0.2,0.8,0.5,1.2c0.3,0.4,0.8,0.6,1.4,0.6H174.2z M174.7,135c1.5,0,2.8-0.4,3.7-1.3
			c0.9-0.8,1.4-2,1.4-3.6c0-1.5-0.5-2.7-1.5-3.6c-1-0.9-2.2-1.4-3.7-1.4h-12c1,0,1.8,0.3,2.5,1c0.7,0.7,1,1.5,1,2.3v4.6
			c0,0.4,0.2,0.8,0.5,1.3c0.3,0.4,0.8,0.6,1.4,0.6H174.7z"/>
		<path class="st1" d="M234.1,99.5c0.5,0,0.9,0.2,1.2,0.5c0.3,0.3,0.5,0.7,0.5,1.1v7.1c0,0.5-0.2,0.8-0.5,1.1
			c-0.3,0.3-0.7,0.4-1.2,0.4h-14.7c0.9,0,1.8,0.3,2.5,1c0.7,0.7,1.1,1.4,1.1,2.3v29c0,0.5-0.2,0.8-0.5,1.1c-0.3,0.3-0.7,0.4-1.1,0.4
			h-8.8c-0.5,0-0.8-0.1-1.1-0.4c-0.3-0.3-0.5-0.6-0.5-1.1v-30.4c0-0.6-0.2-1.1-0.6-1.4c-0.4-0.3-0.8-0.5-1.3-0.5h-9.2
			c-0.4,0-0.8-0.1-1.1-0.4c-0.3-0.3-0.5-0.7-0.5-1.1v-3.2c0-0.8,0.2-1.5,0.5-2.2c0.3-0.7,0.7-1.3,1.3-1.7c0.5-0.5,1.1-0.9,1.8-1.1
			c0.7-0.3,1.3-0.4,2-0.4H234.1z"/>
		<path class="st1" d="M260.3,144.4c-6,0-10.7-1.5-14.2-4.4c-3.5-2.9-5.3-7.2-5.5-12.8c0-1.2-0.1-3-0.1-5.4c0-2.4,0-4.3,0.1-5.5
			c0.2-5.6,2-9.9,5.5-12.9c3.5-3,8.2-4.5,14.1-4.5c5.9,0,10.5,1.5,14.1,4.5c3.5,3,5.4,7.3,5.5,12.9c0.1,2.4,0.1,4.3,0.1,5.5
			c0,1.3,0,3.1-0.1,5.4c-0.2,5.6-2,9.9-5.5,12.8C271,142.9,266.3,144.4,260.3,144.4z M260.3,134.9c2.2,0,3.9-0.7,5.2-2
			c1.3-1.3,2-3.4,2.1-6.1c0.1-2.4,0.1-4.2,0.1-5.2c0-1.1,0-2.8-0.1-5.1c-0.1-2.7-0.8-4.8-2.1-6.1c-1.3-1.3-3.1-2-5.2-2
			c-2.2,0-4,0.7-5.3,2c-1.3,1.3-2,3.4-2.1,6.1c0,1.2-0.1,2.9-0.1,5.1c0,2.3,0,4,0.1,5.2c0.1,2.7,0.8,4.8,2.1,6.1
			C256.3,134.2,258,134.9,260.3,134.9z"/>
		<path class="st1" d="M320.7,99.5c0.5,0,0.9,0.2,1.2,0.5c0.3,0.3,0.5,0.7,0.5,1.1v7.1c0,0.5-0.2,0.8-0.5,1.1
			c-0.3,0.3-0.7,0.4-1.2,0.4h-14.7c0.9,0,1.8,0.3,2.5,1c0.7,0.7,1.1,1.4,1.1,2.3v29c0,0.5-0.2,0.8-0.5,1.1c-0.3,0.3-0.7,0.4-1.1,0.4
			h-8.8c-0.5,0-0.8-0.1-1.1-0.4c-0.3-0.3-0.5-0.6-0.5-1.1v-30.4c0-0.6-0.2-1.1-0.6-1.4c-0.4-0.3-0.8-0.5-1.3-0.5h-9.2
			c-0.4,0-0.8-0.1-1.1-0.4c-0.3-0.3-0.5-0.7-0.5-1.1v-3.2c0-0.8,0.2-1.5,0.5-2.2c0.3-0.7,0.7-1.3,1.3-1.7c0.5-0.5,1.1-0.9,1.8-1.1
			c0.7-0.3,1.3-0.4,2-0.4H320.7z"/>
		<path class="st1" d="M367.6,114.1c0,2.7-0.5,4.9-1.4,6.7c-0.9,1.8-2.2,3.3-3.8,4.4c-1.6,1.1-3.4,1.9-5.5,2.4
			c-2.1,0.5-4.4,0.7-6.8,0.7h-5.3c-0.5,0-0.9,0.2-1.3,0.5c-0.4,0.3-0.6,0.8-0.6,1.4V142c0,0.4-0.2,0.8-0.5,1.1
			c-0.3,0.3-0.7,0.5-1.1,0.5h-9c-0.4,0-0.8-0.2-1.1-0.5c-0.3-0.3-0.5-0.7-0.5-1.1v-37c0-0.9,0.2-1.7,0.5-2.4
			c0.3-0.7,0.8-1.3,1.3-1.7c0.5-0.5,1.1-0.8,1.8-1c0.6-0.2,1.3-0.3,1.9-0.3h13.9c2.4,0,4.7,0.3,6.8,0.8c2.1,0.5,4,1.4,5.6,2.5
			c1.6,1.2,2.8,2.7,3.7,4.5C367.2,109.2,367.6,111.4,367.6,114.1z M355.4,114c0-1.8-0.5-3.1-1.4-4.1c-0.9-0.9-2.3-1.4-4.1-1.4h-10.7
			c0.3,0,0.7,0.1,1.1,0.2c0.4,0.1,0.8,0.4,1.2,0.7c0.4,0.3,0.7,0.7,0.9,1.1c0.3,0.4,0.4,0.9,0.4,1.5v5.4c0,0.6,0.2,1.1,0.6,1.4
			c0.4,0.4,0.9,0.5,1.4,0.5h5.1c1.7,0,3.1-0.5,4-1.4C354.9,117.1,355.4,115.8,355.4,114z"/>
		<path class="st1" d="M372.5,143.4c-0.3-0.3-0.4-0.7-0.4-0.9c0-0.3,0-0.5,0.1-0.6l14.7-40.3c0.5-1.2,1.3-1.8,2.5-1.8h9.8
			c1.2,0,2.1,0.6,2.5,1.8l14.7,40.3c0,0.1,0.1,0.3,0.1,0.6c0,0.3-0.1,0.6-0.4,0.9c-0.3,0.3-0.6,0.4-0.9,0.4H407
			c-1.1,0-1.8-0.5-2.1-1.4l-3.3-8.9c-1.5,0.6-3.1,1.1-4.6,1.5c-1.6,0.4-3.1,0.7-4.5,0.9c-1.5,0.2-2.8,0.3-4.1,0.4
			c-1.3,0.1-2.4,0.1-3.3,0.1c-0.6,0-1.1,0-1.5,0c-0.4,0-0.7,0-0.9-0.1c0.8,0.1,1.4,0.5,1.9,1.3c0.5,0.7,0.5,1.6,0.2,2.5l-0.9,2.4
			c-0.4,0.9-1.1,1.4-2.1,1.4h-8.2C373.2,143.8,372.9,143.6,372.5,143.4z M388.6,127.2c1.2-0.1,2.4-0.2,3.7-0.4
			c1.1-0.2,2.2-0.4,3.4-0.7c1.2-0.3,2.3-0.8,3.4-1.4l-4.9-13.9L388.6,127.2z"/>
		<path class="st1" d="M424.1,142.1v-37c0-1.6,0.5-2.9,1.6-3.9c1.1-1.1,2.4-1.6,3.9-1.6h4.7c1.1,0,1.6,0.5,1.6,1.6v14.7
			c0,0.7,0.3,1.2,0.8,1.5c0.5,0.3,0.9,0.4,1.2,0.4c2.6,0,4.8-0.2,6.5-0.6c1.7-0.4,3.4-0.9,5.1-1.6c0.3-0.2,0.6-0.4,0.9-0.7
			c0.3-0.3,0.4-0.7,0.4-1.1v-8.7c0-0.8,0.2-1.6,0.5-2.3c0.3-0.7,0.7-1.3,1.3-1.7c0.5-0.5,1.1-0.9,1.8-1.1c0.7-0.3,1.3-0.4,2-0.4h4.7
			c1.1,0,1.6,0.5,1.6,1.6v40.8c0,0.5-0.1,0.9-0.4,1.2c-0.3,0.3-0.7,0.4-1.2,0.4h-8.5c-0.4,0-0.8-0.1-1.1-0.4
			c-0.3-0.3-0.5-0.7-0.5-1.1v-15c0-0.6-0.2-1.1-0.6-1.4c-0.4-0.3-0.8-0.4-1.3-0.4c-0.2,0-0.4,0-0.6,0.1c-2.1,0.6-4.1,1-6.2,1.1
			c-2.1,0.2-3.9,0.3-5.5,0.3c-0.8,0-1.6,0-2.1,0c-0.6,0-1.1,0-1.4,0c0.8,0.1,1.5,0.5,2.1,1.1c0.6,0.6,0.9,1.3,0.9,2.2v12.1
			c0,0.5-0.1,0.9-0.4,1.2c-0.3,0.3-0.7,0.4-1.2,0.4h-8.6c-0.5,0-0.8-0.1-1.1-0.4C424.3,143,424.1,142.6,424.1,142.1z"/>
		<path class="st1" d="M492.1,144.4c-6,0-10.8-1.5-14.2-4.4c-3.4-2.9-5.3-7.2-5.5-12.8c0-1.1-0.1-3-0.1-5.6c0-2.6,0-4.5,0.1-5.7
			c0.2-5.5,2.1-9.7,5.5-12.7c3.5-3,8.2-4.5,14.1-4.5c3.8,0,7.1,0.6,10.1,1.8c3,1.2,5.3,3,7.1,5.3c1.7,2.3,2.6,5.1,2.7,8.2
			c0,0.4-0.1,0.7-0.4,0.9c-0.3,0.3-0.6,0.4-1,0.4h-9c-0.6,0-1-0.1-1.3-0.3c-0.3-0.2-0.5-0.7-0.7-1.3c-0.6-2.1-1.5-3.5-2.7-4.3
			c-1.2-0.8-2.8-1.2-4.8-1.2c-4.8,0-7.2,2.7-7.4,8c0,1.1-0.1,2.9-0.1,5.2c0,2.4,0,4.2,0.1,5.4c0.2,5.3,2.6,8,7.4,8
			c1.9,0,3.5-0.4,4.8-1.3c1.2-0.8,2.1-2.3,2.7-4.3c0.2-0.6,0.4-1.1,0.7-1.3c0.3-0.2,0.7-0.3,1.3-0.3h9c0.4,0,0.7,0.1,1,0.4
			c0.3,0.3,0.4,0.6,0.4,0.9c-0.1,3.2-1,5.9-2.7,8.2c-1.7,2.3-4.1,4.1-7.1,5.3C499.3,143.8,495.9,144.4,492.1,144.4z"/>
	</g>
	<g>
		<path class="st2" d="M96.2,169.2c-1.2-2.5-2.7-5.3-4.5-8.2c-48.5-77.3-48.5-56.7,0-134.1c1.8-2.9,3.3-5.6,4.5-8.2
			c-1.5,3-3.5,6.3-6,9.8C80.2,42.2,48.6,78.9,48.6,94c0,15.1,31.6,51.8,41.5,65.4C92.6,162.9,94.7,166.2,96.2,169.2L96.2,169.2z"/>
		<path class="st3" d="M67.9,13.1C50.6,30,1.2,69.4,0,92.2c-1.3,25.7,48.9,64.2,67.9,82.7c25,24.4,36.1,11.5,17.6-13.9
			c-11.2-15.4-43.3-51-42.4-68.8C43.9,77.7,75.7,40.5,85.5,27C104,1.5,92.9-11.4,67.9,13.1L67.9,13.1z"/>
		<path class="st4" d="M94.3,184.7c1.5-4.4-1-12.9-8.8-23.6c-11.2-15.4-43.3-51-42.4-68.8C43.9,77.7,75.7,40.5,85.5,27
			c7.8-10.7,10.3-19.2,8.8-23.6C68.9,26.6,21.4,67.2,20.1,91.8C18.6,119.8,67.5,160.3,94.3,184.7L94.3,184.7z"/>
	</g>
</g>
</svg>
