<svg width="180" height="44" viewBox="0 0 180 44" fill="none" xmlns="http://www.w3.org/2000/svg">
<path d="M36.3253 1.62651C32.1687 0.542169 27.6506 0 22.9518 0C18.253 0 13.7349 0.542169 9.66868 1.62651C3.79518 6.05422 0 13.3735 0 21.5964C0 29.8193 3.79518 37.1386 9.66868 41.5663C13.7349 42.6506 18.253 43.1928 22.9518 43.1928C27.6506 43.1928 32.1687 42.6506 36.2349 41.5663C42.1084 37.1386 45.9036 29.8193 45.9036 21.5964C45.9036 13.3735 42.1084 6.05422 36.3253 1.62651ZM6.50602 32.8012C4.87952 30 3.5241 26.2048 3.5241 21.5964C3.5241 16.8976 4.87952 13.1024 6.59639 10.3012H23.8554C27.741 10.3012 29.3675 14.4578 29.4578 14.7289H13.012C13.012 14.7289 11.3855 18.1627 11.3855 21.506C11.3855 24.759 13.012 28.2831 13.012 28.2831H29.5482C29.4578 28.5542 27.8313 32.7108 23.9458 32.7108H6.50602V32.8012ZM34.6988 38.4036C30.994 39.3072 27.0181 39.759 22.9518 39.759C18.8855 39.759 14.9096 39.3072 11.2048 38.4036C10.5723 37.8615 9.8494 37.2289 9.12651 36.4157H23.8554C32.5301 36.4157 34.247 24.9398 34.247 24.9398H15.4518C15.0904 23.9458 14.9096 22.7711 14.9096 21.6868C14.9096 20.5121 15.0904 19.4277 15.4518 18.4337H34.247C34.247 18.4337 32.5301 6.95783 23.8554 6.95783H9.21687C9.93976 6.14458 10.6627 5.51205 11.2048 5.06024C14.9096 4.15663 18.8855 3.70482 22.9518 3.70482C27.0181 3.70482 30.994 4.15663 34.6988 5.06024C37.5 7.31928 42.3795 12.8313 42.3795 21.7771C42.3795 28.6446 39.2169 34.6084 34.6988 38.4036Z" fill="#005776"/>
<path d="M134.548 9.75918C133.373 9.66882 132.651 9.66882 131.566 9.75918C129.488 9.9399 127.952 12.1086 127.952 14.6387C127.952 17.2592 129.578 19.3375 131.566 19.5182C132.651 19.6086 133.464 19.6086 134.458 19.5182C136.536 19.3375 138.163 17.2592 138.163 14.6387C138.253 12.0182 136.626 9.9399 134.548 9.75918ZM131.566 17.5303C130.753 16.8977 130.211 15.8134 130.211 14.6387C130.211 13.464 130.843 12.3797 131.657 11.7471C132.199 11.6568 132.831 11.6568 133.373 11.6568C133.825 11.6568 134.277 11.6568 134.639 11.6568C135.452 12.2893 136.084 13.3736 136.084 14.5483C136.084 15.723 135.452 16.8074 134.639 17.4399C134.277 17.4399 133.825 17.4399 133.373 17.4399C132.741 17.6206 132.108 17.5303 131.566 17.5303ZM65.3313 23.9459C65.8734 23.9459 67.9517 23.9459 68.4036 23.9459V25.9339C67.9517 25.9339 65.8734 25.9339 65.3313 25.9339C64.6987 25.9339 64.1566 25.9339 63.6144 26.0242C62.8915 26.6568 62.3493 27.6507 62.3493 28.7351C62.3493 29.8194 62.8915 30.8134 63.6144 31.4459C64.1566 31.4459 64.7891 31.5363 65.3313 31.5363C65.8734 31.5363 67.9517 31.5363 68.4036 31.5363V33.5242C67.9517 33.5242 65.8734 33.5242 65.3313 33.5242C64.8795 33.5242 64.4277 33.5242 63.9758 33.5242C63.8855 33.5242 63.7951 33.5242 63.7951 33.5242H63.7048C61.7168 33.3435 60.1807 31.2652 60.1807 28.8254C60.1807 26.2953 61.7168 24.3074 63.7048 24.1267C64.2469 23.9459 64.7891 23.9459 65.3313 23.9459ZM68.4939 14.6387C68.4939 17.1688 66.9578 19.1568 64.9698 19.3375C64.4277 19.3375 63.8855 19.4279 63.3433 19.4279C62.8011 19.4279 60.7228 19.4279 60.271 19.4279V17.4399C60.7228 17.4399 62.8011 17.4399 63.3433 17.4399C63.9758 17.4399 64.518 17.4399 65.0602 17.3495C65.512 16.8977 65.9638 16.3556 66.1445 15.6327H62.0783V13.6447H66.1445C65.9638 12.9218 65.512 12.2893 65.0602 11.8375C64.518 11.8375 63.8855 11.7471 63.3433 11.7471C62.8011 11.7471 60.7228 11.7471 60.271 11.7471V9.9399C60.7228 9.9399 62.8011 9.9399 63.3433 9.9399C63.7951 9.9399 64.2469 9.9399 64.6987 9.9399C64.7891 9.9399 64.7891 9.9399 64.8795 9.9399H64.9698C66.9578 10.1206 68.4939 12.1989 68.4939 14.6387ZM83.6746 19.2471C83.4036 18.0724 83.2228 16.4459 83.2228 14.6387C83.2228 12.8315 83.4036 11.205 83.6746 10.0303H85.9337H91.0843V12.0182H85.6626C85.5722 12.47 85.5722 13.0122 85.5722 13.5544H90.3614V15.5423H85.5722C85.5722 16.0845 85.6626 16.717 85.6626 17.1688H91.1746V19.1568H84.0361H83.6746V19.2471ZM96.8674 19.2471H94.6084V10.0303H96.8674V13.5544H98.0421L100.934 10.0303H103.464L99.759 14.5483L103.916 19.1568H101.205L98.0421 15.5423H96.8674V19.2471ZM77.5301 10.0303H79.7891V19.2471H77.5301V12.0182H74.277L72.6505 19.2471H70.4819L72.4698 10.211V10.0303H74.7289H77.5301ZM108.885 12.0182H105.452V10.0303H108.885H111.145H114.578V12.0182H111.145V19.2471H108.885V12.0182ZM153.524 17.0785H155.06V21.3254H152.801V19.2471H151.265H148.373H146.114H143.223H140.964V17.2592V10.0303H143.223V17.2592H146.114V10.0303H148.373V17.2592H151.265V10.0303H153.524V17.0785ZM180 12.0182H176.566V19.2471H174.307V12.0182H170.783V10.0303H174.217H176.476H179.91V12.0182H180ZM165.452 10.0303H167.711V19.2471H165.452V13.0122L160.753 19.2471H158.494V10.0303H160.753V16.2652L165.452 10.0303ZM91.1746 24.217H93.4337V33.4339H91.1746V27.5604L88.2831 31.8074L85.3915 27.6507V33.5242H83.1325V24.217H85.3915L88.2831 28.2833L91.1746 24.217ZM124.337 24.1267H123.614H122.169L118.735 33.3435H120.904L121.446 31.8074H126.416L126.958 33.3435H129.126L125.693 24.1267H124.337ZM122.259 29.8194L123.614 26.1146H124.337L125.693 29.8194H122.259ZM76.0843 24.1267H75.3614H73.9156L70.4819 33.3435H72.6505L73.1927 31.8074H78.1626L78.7048 33.3435H80.8734L77.4397 24.1267H76.0843ZM74.006 29.8194L75.3614 26.1146H76.0843L77.4397 29.8194H74.006ZM101.295 24.1267H100.572H99.1264L95.7831 33.3435H97.9518L98.4939 31.8074H103.464L104.006 33.3435H106.175L102.741 24.1267H101.295ZM99.2168 29.8194L100.572 26.1146H101.295L102.651 29.8194H99.2168ZM119.548 17.711H122.62C123.253 17.711 124.157 17.4399 124.157 17.4399C124.157 17.4399 125.693 16.3556 125.693 13.8254C125.693 11.2953 124.157 10.3013 124.157 10.3013C124.157 10.3013 123.253 10.0303 122.44 10.0303H119.638H117.379V17.6206V19.1568H119.638V17.711H119.548ZM119.548 12.0182H122.349C122.53 12.0182 122.801 12.0182 122.982 12.1086C123.163 12.3797 123.434 13.1929 123.434 13.9158C123.434 14.7291 123.163 15.4519 122.982 15.723C122.892 15.723 122.711 15.723 122.62 15.723H119.548V12.0182ZM115.663 24.3977C115.663 24.3977 114.759 24.1267 113.946 24.1267H108.885V31.717V33.2532H111.145V31.717H114.217C114.849 31.717 115.753 31.4459 115.753 31.4459C115.753 31.4459 117.289 30.3616 117.289 27.8315C117.199 25.4821 115.663 24.3977 115.663 24.3977ZM114.488 29.8194C114.398 29.8194 114.217 29.8194 114.126 29.8194H111.145V26.1146H113.946C114.126 26.1146 114.398 26.1146 114.578 26.205C114.759 26.476 115.03 27.2893 115.03 28.0122C114.94 28.7351 114.759 29.5483 114.488 29.8194Z" fill="#005776"/>
</svg>
