<svg xmlns="http://www.w3.org/2000/svg" viewBox="0 0 132.63 35.4"><defs><style>.cls-1{fill:#fff;fill-rule:evenodd;}.cls-2{fill:#b7d5e3;}</style></defs><title>Asset 48</title><g id="Layer_2" data-name="Layer 2"><g id="Frigate_logo"><g id="White"><path class="cls-1" d="M8.39,1.32,0,6.42V35.3H6V8.92l10-3.4L19.72,7.4V33.19h6.39v-1L20.66,32V30.85l5.45.26v-1l-5.45-.39V28.51l5.45.51V28l-5.45-.65V26.18l5.45.77v-1L20.66,25V23.84l5.45,1v-1l-5.45-1.16V21.5l5.45,1.28v-1l-5.45-1.42V19.16l5.45,1.54v-1L20.66,18V16.82l5.45,1.8v-1l-5.45-1.92V14.48l5.45,2.05v-1l-5.45-2.18V9.81L28,13.28V33.19H30V35.3h4v-34Zm9.07,31.87h-10V32L16,31.8l1.45,0v1.35Zm0-2.69h0L16,30.42l-8.57.29V29.47L16,29l1.45.11V30.5Zm0-2.69h0L16,27.65l-8.57.58V27L16,26.27l1.45.19v1.35Zm0-2.69h0L16,24.89l-8.57.87V24.52l8.57-1,1.45.26v1.35Zm0-2.69h0L16,22.12,7.43,23.28V22L16,20.74l1.45.33v1.35Zm0-2.69h0L16,19.35,7.43,20.81V19.57L16,18l1.45.41v1.35Zm0-2.69h0L16,16.59,7.43,18.34V17.09L16,15.21l1.45.49V17Zm0-2.69h0L16,13.82l-8.57,2V14.61L16,12.44l1.45.55v1.35Zm0-2.69h0L16,11.05,7.43,13.38V12.14L16,9.67l1.45.63v1.35Zm42.12,13A8.4,8.4,0,0,1,59,27.71a6.54,6.54,0,0,1-1.59,2.38,7.94,7.94,0,0,1-2.61,1.62,12.4,12.4,0,0,1-3.6.77v2.33a.41.41,0,0,1-.1.27.7.7,0,0,1-.33.19,3.07,3.07,0,0,1-.62.1q-.4,0-1,0c-.39,0-.72,0-1,0a3.18,3.18,0,0,1-.61-.1.76.76,0,0,1-.34-.18.4.4,0,0,1-.1-.28V32.48a13.85,13.85,0,0,1-3.62-.6A7,7,0,0,1,41,30.43a6.05,6.05,0,0,1-1.58-2.35,9.17,9.17,0,0,1-.54-3.28,7.89,7.89,0,0,1,.54-2.95A6.61,6.61,0,0,1,41,19.5a8.16,8.16,0,0,1,2.6-1.63,12.33,12.33,0,0,1,3.61-.8V14.86a.37.37,0,0,1,.1-.26.71.71,0,0,1,.34-.17,4.09,4.09,0,0,1,.62-.1c.26,0,.58,0,1,0s.71,0,1,0a3.88,3.88,0,0,1,.62.1.69.69,0,0,1,.33.17.37.37,0,0,1,.1.26v2.21a13.64,13.64,0,0,1,3.61.63,7.39,7.39,0,0,1,2.6,1.45A5.9,5.9,0,0,1,59,21.46a8.73,8.73,0,0,1,.54,3.18ZM47.27,20.17h0a5.89,5.89,0,0,0-2,.53,4,4,0,0,0-1.31,1A3.69,3.69,0,0,0,43.22,23,5.48,5.48,0,0,0,43,24.63a6.87,6.87,0,0,0,.23,1.84,3.56,3.56,0,0,0,2,2.39,6.59,6.59,0,0,0,2,.52V20.17Zm8.19,4.65h0A6.8,6.8,0,0,0,55.25,23a3.6,3.6,0,0,0-.72-1.39,3.68,3.68,0,0,0-1.31-1,6.78,6.78,0,0,0-2-.51v9.22a6.28,6.28,0,0,0,2-.54,3.93,3.93,0,0,0,1.32-1,3.77,3.77,0,0,0,.73-1.38,5.89,5.89,0,0,0,.23-1.65Zm20-3.52h0a7.94,7.94,0,0,1-.53,3,5.79,5.79,0,0,1-1.54,2.2,6.78,6.78,0,0,1-2.48,1.36,11.48,11.48,0,0,1-3.46.47H65.75v6.42a.43.43,0,0,1-.1.28.7.7,0,0,1-.33.2,3.41,3.41,0,0,1-.62.12,10.62,10.62,0,0,1-2,0,3.44,3.44,0,0,1-.63-.12.65.65,0,0,1-.33-.2.46.46,0,0,1-.09-.28V16.65a1.46,1.46,0,0,1,.38-1.1,1.39,1.39,0,0,1,1-.37h4.74c.48,0,.93,0,1.36.06a14.11,14.11,0,0,1,1.55.23,6.8,6.8,0,0,1,1.83.66,5.42,5.42,0,0,1,1.58,1.22,5.09,5.09,0,0,1,1,1.72,6.76,6.76,0,0,1,.34,2.22Zm-4.28.3h0a3.62,3.62,0,0,0-.37-1.74,2.59,2.59,0,0,0-.92-1,3,3,0,0,0-1.14-.41,8.62,8.62,0,0,0-1.24-.09H65.75v6.83h1.83a4.44,4.44,0,0,0,1.64-.26,2.81,2.81,0,0,0,1.08-.74A3.22,3.22,0,0,0,70.94,23a4.58,4.58,0,0,0,.22-1.44ZM89.34,33.71h0a6.41,6.41,0,0,1,0,.75,2,2,0,0,1-.12.49.63.63,0,0,1-.2.27.42.42,0,0,1-.26.08H78.63a1.26,1.26,0,0,1-.86-.3,1.24,1.24,0,0,1-.35-1V16.48a1.24,1.24,0,0,1,.35-1,1.27,1.27,0,0,1,.86-.3h10a.42.42,0,0,1,.25.08.61.61,0,0,1,.19.27,2,2,0,0,1,.12.5,6.29,6.29,0,0,1,0,.77,6,6,0,0,1,0,.74,1.89,1.89,0,0,1-.12.49.67.67,0,0,1-.19.27.4.4,0,0,1-.25.08H81.49v4.91h6.08a.42.42,0,0,1,.26.09.63.63,0,0,1,.2.26,1.86,1.86,0,0,1,.12.48,7.13,7.13,0,0,1,0,1.48,1.84,1.84,0,0,1-.12.47.57.57,0,0,1-.2.26.46.46,0,0,1-.26.08H81.49v5.67h7.25a.43.43,0,0,1,.26.09.62.62,0,0,1,.2.27,2,2,0,0,1,.12.49,6.42,6.42,0,0,1,0,.75Zm13.78-16.82h0a6.37,6.37,0,0,1,0,.79,2,2,0,0,1-.12.51.61.61,0,0,1-.19.28.45.45,0,0,1-.27.09H95.84V34.78a.41.41,0,0,1-.1.27.75.75,0,0,1-.33.19,3.05,3.05,0,0,1-.62.12c-.26,0-.59,0-1,0s-.72,0-1,0a3.06,3.06,0,0,1-.63-.12.75.75,0,0,1-.34-.19.41.41,0,0,1-.1-.27V16.48a1.28,1.28,0,0,1,.34-1,1.22,1.22,0,0,1,.88-.32h9.56c.21,0,.36.13.47.39a3.85,3.85,0,0,1,.16,1.31Zm16.08,16.9h0a5.35,5.35,0,0,1,.23.89.54.54,0,0,1-.12.49,1,1,0,0,1-.61.2c-.29,0-.69,0-1.2,0l-1.24,0a3.07,3.07,0,0,1-.68-.09.62.62,0,0,1-.33-.19,1,1,0,0,1-.16-.33l-1.35-4h-7.56l-1.27,3.93a1.28,1.28,0,0,1-.16.36.66.66,0,0,1-.33.23,2.45,2.45,0,0,1-.64.12c-.27,0-.63,0-1.08,0a10.48,10.48,0,0,1-1.12,0,.87.87,0,0,1-.56-.23.61.61,0,0,1-.11-.5,5,5,0,0,1,.23-.87l6.2-17.85a1.53,1.53,0,0,1,.22-.43.76.76,0,0,1,.4-.25,3.11,3.11,0,0,1,.75-.11l1.28,0,1.46,0a3.87,3.87,0,0,1,.85.11.82.82,0,0,1,.44.26A1.54,1.54,0,0,1,113,16l6.22,17.83ZM110,19h0l-2.85,8.55h5.71L110,19Zm22.66-2.16h0a6.55,6.55,0,0,1,0,.77,2,2,0,0,1-.12.51.69.69,0,0,1-.19.29.4.4,0,0,1-.26.09h-5V34.75a.43.43,0,0,1-.1.28.71.71,0,0,1-.33.2,3.42,3.42,0,0,1-.63.12,10.54,10.54,0,0,1-2,0,3.41,3.41,0,0,1-.63-.12A.71.71,0,0,1,123,35a.43.43,0,0,1-.1-.28V18.53h-5a.39.39,0,0,1-.26-.09.72.72,0,0,1-.19-.29,2,2,0,0,1-.12-.51,6.5,6.5,0,0,1,0-.77,6.86,6.86,0,0,1,0-.79,2,2,0,0,1,.12-.52.65.65,0,0,1,.19-.28.42.42,0,0,1,.26-.09H132a.43.43,0,0,1,.26.09.63.63,0,0,1,.19.28,2.06,2.06,0,0,1,.12.52,6.91,6.91,0,0,1,0,.79ZM39.69,5l1.65-1.85L39.84,1.5h.63L42,3.19V1.5h.51V3.19L44,1.5h.62L43.07,3.16,44.72,5h-.65L42.46,3.2V5H42V3.2L40.34,5Zm7.75,0V2.29L45.64,5h-.51V1.5h.51V4.2l1.8-2.7H48V5Zm3.62,0V1.95H49.83V3.16a4.19,4.19,0,0,1-.08.91,1.58,1.58,0,0,1-.23.57.8.8,0,0,1-.35.29,1.18,1.18,0,0,1-.45.08h-.24V4.57h.11a.88.88,0,0,0,.25,0,.47.47,0,0,0,.24-.19,1.31,1.31,0,0,0,.18-.47A4.07,4.07,0,0,0,49.33,3V1.5h2.25V5Zm4.22-1.77a3,3,0,0,1-.1.85,1.37,1.37,0,0,1-.33.56,1.33,1.33,0,0,1-.45.3,1.48,1.48,0,0,1-.56.1,1.37,1.37,0,0,1-1-.4,1.31,1.31,0,0,1-.33-.56,2.94,2.94,0,0,1-.1-.84,2.94,2.94,0,0,1,.1-.84,1.31,1.31,0,0,1,.33-.56,1.37,1.37,0,0,1,1-.4,1.48,1.48,0,0,1,.56.1,1.33,1.33,0,0,1,.45.3,1.31,1.31,0,0,1,.33.56,2.85,2.85,0,0,1,.1.82Zm-.52,0a3.11,3.11,0,0,0-.06-.7.83.83,0,0,0-.22-.41A.86.86,0,0,0,54.2,2a.93.93,0,0,0-.35-.07A.9.9,0,0,0,53.5,2a.83.83,0,0,0-.5.59,2.83,2.83,0,0,0-.06.68,2.78,2.78,0,0,0,.06.67.92.92,0,0,0,.22.41.83.83,0,0,0,.63.26.93.93,0,0,0,.35-.07.86.86,0,0,0,.29-.19.89.89,0,0,0,.21-.4,2.68,2.68,0,0,0,.06-.66ZM58.57,0a.88.88,0,0,1-.31.69,1.21,1.21,0,0,1-.73.2,1.21,1.21,0,0,1-.73-.2A.88.88,0,0,1,56.48,0h.46a.52.52,0,0,0,.59.53A.52.52,0,0,0,58.11,0Zm-.15,5V2.29L56.62,5h-.51V1.5h.51V4.2l1.8-2.7h.52V5Zm-18.1,6.7V8.21h.52V9.89L42.4,8.21H43L41.45,9.86l1.72,1.85h-.66L40.84,9.9v1.81Zm5.8-1.77a3,3,0,0,1-.1.85,1.36,1.36,0,0,1-.33.56,1.34,1.34,0,0,1-.45.3,1.48,1.48,0,0,1-.56.1,1.37,1.37,0,0,1-1-.4,1.31,1.31,0,0,1-.33-.56,3,3,0,0,1-.1-.84,3,3,0,0,1,.1-.84,1.31,1.31,0,0,1,.33-.56,1.37,1.37,0,0,1,1-.4,1.48,1.48,0,0,1,.56.1,1.34,1.34,0,0,1,.45.3,1.31,1.31,0,0,1,.33.56,2.84,2.84,0,0,1,.1.82Zm-.52,0a3.12,3.12,0,0,0-.06-.7.84.84,0,0,0-.22-.41A.86.86,0,0,0,45,8.69a.93.93,0,0,0-.35-.07.91.91,0,0,0-.35.07.88.88,0,0,0-.28.19.86.86,0,0,0-.22.41,2.84,2.84,0,0,0-.06.68,2.79,2.79,0,0,0,.06.67A.91.91,0,0,0,44,11a.83.83,0,0,0,.63.26.93.93,0,0,0,.35-.07.86.86,0,0,0,.29-.19.89.89,0,0,0,.21-.4A2.68,2.68,0,0,0,45.6,10Zm4.22,1.73V9.22l-1,1.94h-.39l-1-1.94v2.49h-.51V8.21h.51l1.19,2.36,1.17-2.36h.52v3.51Zm3.75,0V8.65h-1.7v3.06h-.51V8.21h2.72v3.51Zm3.62,0V8.65H55.95V9.86a4.19,4.19,0,0,1-.08.91,1.58,1.58,0,0,1-.23.57.81.81,0,0,1-.35.29,1.19,1.19,0,0,1-.45.08h-.24v-.44h.11a.88.88,0,0,0,.25,0A.48.48,0,0,0,55.2,11a1.31,1.31,0,0,0,.18-.47,4.07,4.07,0,0,0,.07-.86V8.21H57.7v3.51ZM59,10.09q0,.24,0,.37a1,1,0,0,0,.08.26.94.94,0,0,0,1,.58l.24,0,.21-.06.21-.11a1.79,1.79,0,0,0,.23-.2l.35.31a2.9,2.9,0,0,1-.31.27,1.4,1.4,0,0,1-.28.15,1.8,1.8,0,0,1-.68.12,1.45,1.45,0,0,1-1.16-.46,2,2,0,0,1-.4-1.36,2.5,2.5,0,0,1,.1-.74,1.66,1.66,0,0,1,.29-.56,1.24,1.24,0,0,1,.46-.35,1.45,1.45,0,0,1,.6-.12,1.49,1.49,0,0,1,.6.12,1.23,1.23,0,0,1,.45.34,1.55,1.55,0,0,1,.29.53,2.32,2.32,0,0,1,.1.71v.24Zm1.86-.38V9.54s0-.08,0-.12a.71.71,0,0,0,0-.09l0-.09a.9.9,0,0,0-.32-.48A.88.88,0,0,0,60,8.6a.9.9,0,0,0-.5.14.84.84,0,0,0-.33.39l0,.11a.84.84,0,0,0,0,.12s0,.09,0,.15v.2Zm1.35,2V8.21h.52V9.89l1.55-1.68H65L63.38,9.86l1.72,1.85h-.66L62.77,9.9v1.81Zm5.64-.48-.16.16-.13.11-.12.08-.13.06a1.54,1.54,0,0,1-.59.11,1.48,1.48,0,0,1-1.17-.48A1.92,1.92,0,0,1,65.16,10a1.92,1.92,0,0,1,.42-1.32,1.48,1.48,0,0,1,1.17-.48,1.54,1.54,0,0,1,.59.11,1.26,1.26,0,0,1,.25.15,3.35,3.35,0,0,1,.29.26L67.54,9l-.22-.21a.82.82,0,0,0-.18-.11,1,1,0,0,0-.39-.08q-1.06,0-1.06,1.34t1.05,1.34a1,1,0,0,0,.39-.07.9.9,0,0,0,.19-.12l.23-.21.35.33Z"/></g><g id="Blue"><path class="cls-2" d="M8.39,1.32,0,6.42V35.3H6V8.92l10-3.4L19.72,7.4V33.19h6.39v-1L20.66,32V30.85l5.45.26v-1l-5.45-.39V28.51l5.45.51V28l-5.45-.65V26.18l5.45.77v-1L20.66,25V23.84l5.45,1v-1l-5.45-1.16V21.5l5.45,1.28v-1l-5.45-1.42V19.16l5.45,1.54v-1L20.66,18V16.82l5.45,1.8v-1l-5.45-1.92V14.48l5.45,2.05v-1l-5.45-2.18V9.81L28,13.28V33.19H30V35.3h4v-34Zm9.07,31.87h-10V32L16,31.8l1.45,0v1.35Zm0-2.69h0L16,30.42l-8.57.29V29.47L16,29l1.45.11V30.5Zm0-2.69h0L16,27.65l-8.57.58V27L16,26.27l1.45.19v1.35Zm0-2.69h0L16,24.89l-8.57.87V24.52l8.57-1,1.45.26v1.35Zm0-2.69h0L16,22.12,7.43,23.28V22L16,20.74l1.45.33v1.35Zm0-2.69h0L16,19.35,7.43,20.81V19.57L16,18l1.45.41v1.35Zm0-2.69h0L16,16.59,7.43,18.34V17.09L16,15.21l1.45.49V17Zm0-2.69h0L16,13.82l-8.57,2V14.61L16,12.44l1.45.55v1.35Zm0-2.69h0L16,11.05,7.43,13.38V12.14L16,9.67l1.45.63v1.35Zm42.12,13A8.4,8.4,0,0,1,59,27.71a6.54,6.54,0,0,1-1.59,2.38,7.94,7.94,0,0,1-2.61,1.62,12.4,12.4,0,0,1-3.6.77v2.33a.41.41,0,0,1-.1.27.7.7,0,0,1-.33.19,3.07,3.07,0,0,1-.62.1q-.4,0-1,0c-.39,0-.72,0-1,0a3.18,3.18,0,0,1-.61-.1.76.76,0,0,1-.34-.18.4.4,0,0,1-.1-.28V32.48a13.85,13.85,0,0,1-3.62-.6A7,7,0,0,1,41,30.43a6.05,6.05,0,0,1-1.58-2.35,9.17,9.17,0,0,1-.54-3.28,7.89,7.89,0,0,1,.54-2.95A6.61,6.61,0,0,1,41,19.5a8.16,8.16,0,0,1,2.6-1.63,12.33,12.33,0,0,1,3.61-.8V14.86a.37.37,0,0,1,.1-.26.71.71,0,0,1,.34-.17,4.09,4.09,0,0,1,.62-.1c.26,0,.58,0,1,0s.71,0,1,0a3.88,3.88,0,0,1,.62.1.69.69,0,0,1,.33.17.37.37,0,0,1,.1.26v2.21a13.64,13.64,0,0,1,3.61.63,7.39,7.39,0,0,1,2.6,1.45A5.9,5.9,0,0,1,59,21.46a8.73,8.73,0,0,1,.54,3.18ZM47.27,20.17h0a5.89,5.89,0,0,0-2,.53,4,4,0,0,0-1.31,1A3.69,3.69,0,0,0,43.22,23,5.48,5.48,0,0,0,43,24.63a6.87,6.87,0,0,0,.23,1.84,3.56,3.56,0,0,0,2,2.39,6.59,6.59,0,0,0,2,.52V20.17Zm8.19,4.65h0A6.8,6.8,0,0,0,55.25,23a3.6,3.6,0,0,0-.72-1.39,3.68,3.68,0,0,0-1.31-1,6.78,6.78,0,0,0-2-.51v9.22a6.28,6.28,0,0,0,2-.54,3.93,3.93,0,0,0,1.32-1,3.77,3.77,0,0,0,.73-1.38,5.89,5.89,0,0,0,.23-1.65Zm20-3.52h0a7.94,7.94,0,0,1-.53,3,5.79,5.79,0,0,1-1.54,2.2,6.78,6.78,0,0,1-2.48,1.36,11.48,11.48,0,0,1-3.46.47H65.75v6.42a.43.43,0,0,1-.1.28.7.7,0,0,1-.33.2,3.41,3.41,0,0,1-.62.12,10.62,10.62,0,0,1-2,0,3.44,3.44,0,0,1-.63-.12.65.65,0,0,1-.33-.2.46.46,0,0,1-.09-.28V16.65a1.46,1.46,0,0,1,.38-1.1,1.39,1.39,0,0,1,1-.37h4.74c.48,0,.93,0,1.36.06a14.11,14.11,0,0,1,1.55.23,6.8,6.8,0,0,1,1.83.66,5.42,5.42,0,0,1,1.58,1.22,5.09,5.09,0,0,1,1,1.72,6.76,6.76,0,0,1,.34,2.22Zm-4.28.3h0a3.62,3.62,0,0,0-.37-1.74,2.59,2.59,0,0,0-.92-1,3,3,0,0,0-1.14-.41,8.62,8.62,0,0,0-1.24-.09H65.75v6.83h1.83a4.44,4.44,0,0,0,1.64-.26,2.81,2.81,0,0,0,1.08-.74A3.22,3.22,0,0,0,70.94,23a4.58,4.58,0,0,0,.22-1.44ZM89.34,33.71h0a6.41,6.41,0,0,1,0,.75,2,2,0,0,1-.12.49.63.63,0,0,1-.2.27.42.42,0,0,1-.26.08H78.63a1.26,1.26,0,0,1-.86-.3,1.24,1.24,0,0,1-.35-1V16.48a1.24,1.24,0,0,1,.35-1,1.27,1.27,0,0,1,.86-.3h10a.42.42,0,0,1,.25.08.61.61,0,0,1,.19.27,2,2,0,0,1,.12.5,6.29,6.29,0,0,1,0,.77,6,6,0,0,1,0,.74,1.89,1.89,0,0,1-.12.49.67.67,0,0,1-.19.27.4.4,0,0,1-.25.08H81.49v4.91h6.08a.42.42,0,0,1,.26.09.63.63,0,0,1,.2.26,1.86,1.86,0,0,1,.12.48,7.13,7.13,0,0,1,0,1.48,1.84,1.84,0,0,1-.12.47.57.57,0,0,1-.2.26.46.46,0,0,1-.26.08H81.49v5.67h7.25a.43.43,0,0,1,.26.09.62.62,0,0,1,.2.27,2,2,0,0,1,.12.49,6.42,6.42,0,0,1,0,.75Zm13.78-16.82h0a6.37,6.37,0,0,1,0,.79,2,2,0,0,1-.12.51.61.61,0,0,1-.19.28.45.45,0,0,1-.27.09H95.84V34.78a.41.41,0,0,1-.1.27.75.75,0,0,1-.33.19,3.05,3.05,0,0,1-.62.12c-.26,0-.59,0-1,0s-.72,0-1,0a3.06,3.06,0,0,1-.63-.12.75.75,0,0,1-.34-.19.41.41,0,0,1-.1-.27V16.48a1.28,1.28,0,0,1,.34-1,1.22,1.22,0,0,1,.88-.32h9.56c.21,0,.36.13.47.39a3.85,3.85,0,0,1,.16,1.31Zm16.08,16.9h0a5.35,5.35,0,0,1,.23.89.54.54,0,0,1-.12.49,1,1,0,0,1-.61.2c-.29,0-.69,0-1.2,0l-1.24,0a3.07,3.07,0,0,1-.68-.09.62.62,0,0,1-.33-.19,1,1,0,0,1-.16-.33l-1.35-4h-7.56l-1.27,3.93a1.28,1.28,0,0,1-.16.36.66.66,0,0,1-.33.23,2.45,2.45,0,0,1-.64.12c-.27,0-.63,0-1.08,0a10.48,10.48,0,0,1-1.12,0,.87.87,0,0,1-.56-.23.61.61,0,0,1-.11-.5,5,5,0,0,1,.23-.87l6.2-17.85a1.53,1.53,0,0,1,.22-.43.76.76,0,0,1,.4-.25,3.11,3.11,0,0,1,.75-.11l1.28,0,1.46,0a3.87,3.87,0,0,1,.85.11.82.82,0,0,1,.44.26A1.54,1.54,0,0,1,113,16l6.22,17.83ZM110,19h0l-2.85,8.55h5.71L110,19Zm22.66-2.16h0a6.55,6.55,0,0,1,0,.77,2,2,0,0,1-.12.51.69.69,0,0,1-.19.29.4.4,0,0,1-.26.09h-5V34.75a.43.43,0,0,1-.1.28.71.71,0,0,1-.33.2,3.42,3.42,0,0,1-.63.12,10.54,10.54,0,0,1-2,0,3.41,3.41,0,0,1-.63-.12A.71.71,0,0,1,123,35a.43.43,0,0,1-.1-.28V18.53h-5a.39.39,0,0,1-.26-.09.72.72,0,0,1-.19-.29,2,2,0,0,1-.12-.51,6.5,6.5,0,0,1,0-.77,6.86,6.86,0,0,1,0-.79,2,2,0,0,1,.12-.52.65.65,0,0,1,.19-.28.42.42,0,0,1,.26-.09H132a.43.43,0,0,1,.26.09.63.63,0,0,1,.19.28,2.06,2.06,0,0,1,.12.52,6.91,6.91,0,0,1,0,.79ZM39.69,5l1.65-1.85L39.84,1.5h.63L42,3.19V1.5h.51V3.19L44,1.5h.62L43.07,3.16,44.72,5h-.65L42.46,3.2V5H42V3.2L40.34,5Zm7.75,0V2.29L45.64,5h-.51V1.5h.51V4.2l1.8-2.7H48V5Zm3.62,0V1.95H49.83V3.16a4.19,4.19,0,0,1-.08.91,1.58,1.58,0,0,1-.23.57.8.8,0,0,1-.35.29,1.18,1.18,0,0,1-.45.08h-.24V4.57h.11a.88.88,0,0,0,.25,0,.47.47,0,0,0,.24-.19,1.31,1.31,0,0,0,.18-.47A4.07,4.07,0,0,0,49.33,3V1.5h2.25V5Zm4.22-1.77a3,3,0,0,1-.1.85,1.37,1.37,0,0,1-.33.56,1.33,1.33,0,0,1-.45.3,1.48,1.48,0,0,1-.56.1,1.37,1.37,0,0,1-1-.4,1.31,1.31,0,0,1-.33-.56,2.94,2.94,0,0,1-.1-.84,2.94,2.94,0,0,1,.1-.84,1.31,1.31,0,0,1,.33-.56,1.37,1.37,0,0,1,1-.4,1.48,1.48,0,0,1,.56.1,1.33,1.33,0,0,1,.45.3,1.31,1.31,0,0,1,.33.56,2.85,2.85,0,0,1,.1.82Zm-.52,0a3.11,3.11,0,0,0-.06-.7.83.83,0,0,0-.22-.41A.86.86,0,0,0,54.2,2a.93.93,0,0,0-.35-.07A.9.9,0,0,0,53.5,2a.83.83,0,0,0-.5.59,2.83,2.83,0,0,0-.06.68,2.78,2.78,0,0,0,.06.67.92.92,0,0,0,.22.41.83.83,0,0,0,.63.26.93.93,0,0,0,.35-.07.86.86,0,0,0,.29-.19.89.89,0,0,0,.21-.4,2.68,2.68,0,0,0,.06-.66ZM58.57,0a.88.88,0,0,1-.31.69,1.21,1.21,0,0,1-.73.2,1.21,1.21,0,0,1-.73-.2A.88.88,0,0,1,56.48,0h.46a.52.52,0,0,0,.59.53A.52.52,0,0,0,58.11,0Zm-.15,5V2.29L56.62,5h-.51V1.5h.51V4.2l1.8-2.7h.52V5Zm-18.1,6.7V8.21h.52V9.89L42.4,8.21H43L41.45,9.86l1.72,1.85h-.66L40.84,9.9v1.81Zm5.8-1.77a3,3,0,0,1-.1.85,1.36,1.36,0,0,1-.33.56,1.34,1.34,0,0,1-.45.3,1.48,1.48,0,0,1-.56.1,1.37,1.37,0,0,1-1-.4,1.31,1.31,0,0,1-.33-.56,3,3,0,0,1-.1-.84,3,3,0,0,1,.1-.84,1.31,1.31,0,0,1,.33-.56,1.37,1.37,0,0,1,1-.4,1.48,1.48,0,0,1,.56.1,1.34,1.34,0,0,1,.45.3,1.31,1.31,0,0,1,.33.56,2.84,2.84,0,0,1,.1.82Zm-.52,0a3.12,3.12,0,0,0-.06-.7.84.84,0,0,0-.22-.41A.86.86,0,0,0,45,8.69a.93.93,0,0,0-.35-.07.91.91,0,0,0-.35.07.88.88,0,0,0-.28.19.86.86,0,0,0-.22.41,2.84,2.84,0,0,0-.06.68,2.79,2.79,0,0,0,.06.67A.91.91,0,0,0,44,11a.83.83,0,0,0,.63.26.93.93,0,0,0,.35-.07.86.86,0,0,0,.29-.19.89.89,0,0,0,.21-.4A2.68,2.68,0,0,0,45.6,10Zm4.22,1.73V9.22l-1,1.94h-.39l-1-1.94v2.49h-.51V8.21h.51l1.19,2.36,1.17-2.36h.52v3.51Zm3.75,0V8.65h-1.7v3.06h-.51V8.21h2.72v3.51Zm3.62,0V8.65H55.95V9.86a4.19,4.19,0,0,1-.08.91,1.58,1.58,0,0,1-.23.57.81.81,0,0,1-.35.29,1.19,1.19,0,0,1-.45.08h-.24v-.44h.11a.88.88,0,0,0,.25,0A.48.48,0,0,0,55.2,11a1.31,1.31,0,0,0,.18-.47,4.07,4.07,0,0,0,.07-.86V8.21H57.7v3.51ZM59,10.09q0,.24,0,.37a1,1,0,0,0,.08.26.94.94,0,0,0,1,.58l.24,0,.21-.06.21-.11a1.79,1.79,0,0,0,.23-.2l.35.31a2.9,2.9,0,0,1-.31.27,1.4,1.4,0,0,1-.28.15,1.8,1.8,0,0,1-.68.12,1.45,1.45,0,0,1-1.16-.46,2,2,0,0,1-.4-1.36,2.5,2.5,0,0,1,.1-.74,1.66,1.66,0,0,1,.29-.56,1.24,1.24,0,0,1,.46-.35,1.45,1.45,0,0,1,.6-.12,1.49,1.49,0,0,1,.6.12,1.23,1.23,0,0,1,.45.34,1.55,1.55,0,0,1,.29.53,2.32,2.32,0,0,1,.1.71v.24Zm1.86-.38V9.54s0-.08,0-.12a.71.71,0,0,0,0-.09l0-.09a.9.9,0,0,0-.32-.48A.88.88,0,0,0,60,8.6a.9.9,0,0,0-.5.14.84.84,0,0,0-.33.39l0,.11a.84.84,0,0,0,0,.12s0,.09,0,.15v.2Zm1.35,2V8.21h.52V9.89l1.55-1.68H65L63.38,9.86l1.72,1.85h-.66L62.77,9.9v1.81Zm5.64-.48-.16.16-.13.11-.12.08-.13.06a1.54,1.54,0,0,1-.59.11,1.48,1.48,0,0,1-1.17-.48A1.92,1.92,0,0,1,65.16,10a1.92,1.92,0,0,1,.42-1.32,1.48,1.48,0,0,1,1.17-.48,1.54,1.54,0,0,1,.59.11,1.26,1.26,0,0,1,.25.15,3.35,3.35,0,0,1,.29.26L67.54,9l-.22-.21a.82.82,0,0,0-.18-.11,1,1,0,0,0-.39-.08q-1.06,0-1.06,1.34t1.05,1.34a1,1,0,0,0,.39-.07.9.9,0,0,0,.19-.12l.23-.21.35.33Z"/></g></g></g></svg>