<?xml version="1.0" encoding="UTF-8"?> <!-- Generator: Adobe Illustrator 23.0.3, SVG Export Plug-In . SVG Version: 6.00 Build 0) --> <svg xmlns="http://www.w3.org/2000/svg" xmlns:xlink="http://www.w3.org/1999/xlink" id="Capa_1" x="0px" y="0px" viewBox="0 0 297 297" style="enable-background:new 0 0 297 297;" xml:space="preserve"> <style type="text/css"> .st0{fill:#FFFFFF;} </style> <g> <g> <path d="M115.9,215c-5.2,0-9.4-4.2-9.4-9.4s4.2-9.4,9.4-9.4h65.2c5.2,0,9.4,4.2,9.4,9.4s-4.2,9.4-9.4,9.4H115.9z"></path> <path class="st0" d="M181.1,196.7c2.4,0,4.6,0.9,6.3,2.6c1.7,1.7,2.6,3.9,2.6,6.3c0,4.9-4,8.9-8.9,8.9h-65.2c-4.9,0-8.9-4-8.9-8.9 s4-8.9,8.9-8.9H181.1 M181.1,195.7h-65.2c-5.5,0-9.9,4.4-9.9,9.9s4.4,9.9,9.9,9.9h65.2c5.5,0,9.9-4.4,9.9-9.9 C191,200.1,186.6,195.7,181.1,195.7L181.1,195.7z"></path> </g> <g> <path d="M71,235.3c-16.4,0-29.8-13.4-29.8-29.8c0-16.4,13.4-29.8,29.8-29.8c16.4,0,29.8,13.4,29.8,29.8 C100.8,222,87.5,235.3,71,235.3z M71,194.6c-6.1,0-11,4.9-11,11s4.9,11,11,11c6.1,0,11-4.9,11-11S77.1,194.6,71,194.6z"></path> <path class="st0" d="M71,176.3c16.1,0,29.3,13.1,29.3,29.3S87.2,234.8,71,234.8c-16.1,0-29.3-13.1-29.3-29.3S54.9,176.3,71,176.3 M71,217.1c6.3,0,11.5-5.2,11.5-11.5s-5.2-11.5-11.5-11.5c-6.3,0-11.5,5.2-11.5,11.5S64.7,217.1,71,217.1 M71,175.3 c-16.7,0-30.3,13.6-30.3,30.3s13.6,30.3,30.3,30.3c16.7,0,30.3-13.6,30.3-30.3C101.3,188.9,87.7,175.3,71,175.3L71,175.3z M71,216.1c-5.8,0-10.5-4.7-10.5-10.5c0-5.8,4.7-10.5,10.5-10.5c5.8,0,10.5,4.7,10.5,10.5S76.8,216.1,71,216.1L71,216.1z"></path> </g> <g> <path d="M226,235.3c-16.4,0-29.8-13.4-29.8-29.8c0-16.4,13.4-29.8,29.8-29.8c16.4,0,29.8,13.4,29.8,29.8 C255.7,222,242.4,235.3,226,235.3z M226,194.6c-6.1,0-11,4.9-11,11s4.9,11,11,11c6.1,0,11-4.9,11-11S232,194.6,226,194.6z"></path> <path class="st0" d="M226,176.3c16.1,0,29.3,13.1,29.3,29.3s-13.1,29.3-29.3,29.3c-16.1,0-29.3-13.1-29.3-29.3 S209.8,176.3,226,176.3 M226,217.1c6.3,0,11.5-5.2,11.5-11.5s-5.2-11.5-11.5-11.5c-6.3,0-11.5,5.2-11.5,11.5 S219.6,217.1,226,217.1 M226,175.3c-16.7,0-30.3,13.6-30.3,30.3s13.6,30.3,30.3,30.3c16.7,0,30.3-13.6,30.3-30.3 C256.2,188.9,242.7,175.3,226,175.3L226,175.3z M226,216.1c-5.8,0-10.5-4.7-10.5-10.5c0-5.8,4.7-10.5,10.5-10.5 c5.8,0,10.5,4.7,10.5,10.5S231.8,216.1,226,216.1L226,216.1z"></path> </g> <g> <path d="M229.5,296.5c-13.9,0-25.2-11.3-25.2-25.2v-7.4H92.7v7.4c0,13.9-11.3,25.2-25.2,25.2H50.2c-13.9,0-25.2-11.3-25.2-25.2 v-16.7l-0.2-0.2C15,246.6,9.2,235,8.7,222.6l0-181.1c0-22.6,18.4-41,41-41h197.7c10.9,0,21.2,4.3,29,12c7.7,7.8,12,18,12,29v181.4 c-0.6,12.3-6.4,23.8-16.1,31.5l-0.2,0.1v16.7c0,13.9-11.3,25.2-25.2,25.2H229.5z M223.1,271.3c0,3.5,2.9,6.4,6.4,6.4h17.3 c3.5,0,6.4-2.9,6.4-6.4l0-8.2l-0.6,0.1c-2.4,0.4-4.9,0.6-7.3,0.6h-22.2V271.3z M43.7,271.3c0,3.5,2.9,6.4,6.4,6.4h17.3 c3.5,0,6.4-2.9,6.4-6.4l0-7.4H51.6c-2.4,0-4.9-0.2-7.3-0.6l-0.6-0.1V271.3z M51.6,166c-13.4,0-24.2,10.9-24.2,24.2v30.6 c0,13.4,10.9,24.2,24.2,24.2h193.7c13.4,0,24.2-10.9,24.2-24.2v-30.6c0-13.4-10.9-24.2-24.2-24.2H51.6z M245.4,147.3 c1.7,0,3.5,0.1,5.3,0.3l0.7,0.1l-11.2-57.3c-0.8-4.1-5.5-7.9-9.6-7.9H66.5c-4.2,0-8.8,3.9-9.6,7.9l-11.2,57.3l0.7-0.1 c1.8-0.2,3.6-0.3,5.3-0.3H245.4z M230.5,63.7c13.2,0,25.5,10.1,28.1,23.1l10,51.3l1-0.1V41.5c0-12.3-10-22.2-22.2-22.2H49.7 c-12.3,0-22.2,10-22.2,22.2V138l1,0.1l10-51.2c2.5-13,14.9-23.1,28.1-23.1H230.5z"></path> <path class="st0" d="M247.3,1c10.8,0,21,4.2,28.6,11.9c7.7,7.7,11.9,17.8,11.9,28.6l0,181.3c-0.6,12.1-6.3,23.5-15.9,31.2 l-0.4,0.3v0.5v16.5c0,13.6-11.1,24.7-24.7,24.7h-17.3c-13.6,0-24.7-11.1-24.7-24.7v-6.9v-1h-1H93.2h-1v1v6.9 c0,13.6-11.1,24.7-24.7,24.7H50.2c-13.6,0-24.7-11.1-24.7-24.7v-16.5v-0.5l-0.4-0.3c-9.6-7.7-15.4-19.2-15.9-31.4V41.5 C9.2,19.2,27.3,1,49.7,1H247.3 M28.9,138.2l10-51.2c2.5-12.7,14.6-22.7,27.6-22.7h164.1c13,0,25.1,10,27.6,22.7l10,51.3l2-0.2 V41.5c0-12.5-10.2-22.7-22.7-22.7H49.7c-12.5,0-22.7,10.2-22.7,22.7V138L28.9,138.2 M45,148.3l1.4-0.2c1.8-0.2,3.6-0.3,5.2-0.3 h193.7c1.7,0,3.4,0.1,5.2,0.3l1.4,0.2l-0.3-1.4l-11-56.6C239.8,86,235,82,230.5,82H66.5c-4.4,0-9.3,4-10.1,8.3l-11,56.6L45,148.3 M51.6,245.6h193.7c13.6,0,24.7-11.1,24.7-24.7v-30.6c0-13.6-11.1-24.7-24.7-24.7H51.6c-13.6,0-24.7,11.1-24.7,24.7v30.6 C26.9,234.5,38,245.6,51.6,245.6 M229.5,278.2h17.3c1.8,0,3.6-0.7,4.9-2.1c1.3-1.3,2.1-3.1,2.1-4.9v-7.6v-1.2l-1.2,0.2 c-2.4,0.4-4.9,0.6-7.2,0.6h-21.7h-1v1v6.9C222.6,275.1,225.8,278.2,229.5,278.2 M50.2,278.2h17.3c1.8,0,3.6-0.7,4.9-2.1 c1.3-1.3,2.1-3.1,2.1-4.9v-6.9v-1h-1H51.6c-2.4,0-4.8-0.2-7.2-0.6l-1.2-0.2v1.2v7.6C43.2,275.1,46.4,278.2,50.2,278.2 M247.3,0 H49.7C26.8,0,8.2,18.6,8.2,41.5v181.1c0.5,13,6.8,24.6,16.3,32.2v16.5c0,14.2,11.5,25.7,25.7,25.7h17.3 c14.2,0,25.7-11.5,25.7-25.7v-6.9h110.7v6.9c0,14.2,11.5,25.7,25.7,25.7h17.3c14.2,0,25.7-11.5,25.7-25.7v-16.5 c9.5-7.6,15.7-19,16.3-31.9V41.5C288.8,18.6,270.2,0,247.3,0L247.3,0z M27.9,138V41.5c0-12,9.8-21.7,21.7-21.7h197.7 c12,0,21.7,9.8,21.7,21.7V138l-10-51.3c-2.6-13.2-15.1-23.5-28.5-23.5H66.5c-13.4,0-26,10.3-28.5,23.5L27.9,138L27.9,138z M46.3,147.1l11-56.6c0.8-3.9,5.2-7.5,9.1-7.5h164.1c3.9,0,8.4,3.7,9.1,7.5l11,56.6c-1.8-0.2-3.5-0.3-5.4-0.3H51.6 C49.8,146.8,48,146.9,46.3,147.1L46.3,147.1z M51.6,244.6c-13.1,0-23.7-10.6-23.7-23.7v-30.6c0-13.1,10.6-23.7,23.7-23.7h193.7 c13.1,0,23.7,10.6,23.7,23.7v30.6c0,13.1-10.6,23.7-23.7,23.7H51.6L51.6,244.6z M229.5,277.2c-3.2,0-5.9-2.7-5.9-5.9v-6.9h21.7 c2.5,0,5-0.2,7.4-0.6v7.6h0c0,3.2-2.7,5.9-5.9,5.9H229.5L229.5,277.2z M50.2,277.2c-3.2,0-5.9-2.7-5.9-5.9v-7.6 c2.4,0.4,4.9,0.6,7.4,0.6h21.7v6.9h0c0,3.2-2.7,5.9-5.9,5.9H50.2L50.2,277.2z"></path> </g> </g> </svg> 