<?xml version="1.0" encoding="UTF-8"?> <!-- Generator: Adobe Illustrator 23.0.3, SVG Export Plug-In . SVG Version: 6.00 Build 0) --> <svg xmlns="http://www.w3.org/2000/svg" xmlns:xlink="http://www.w3.org/1999/xlink" id="Capa_1" x="0px" y="0px" viewBox="0 0 512 512" style="enable-background:new 0 0 512 512;" xml:space="preserve"> <style type="text/css"> .st0{fill:#FFFFFF;} </style> <g> <g> <g> <g> <path d="M126.5,239c-10.5,0-19-8.5-19-19s8.5-19,19-19h206c10.5,0,19,8.5,19,19s-8.5,19-19,19H126.5z"></path> <path class="st0" d="M332.5,202c9.9,0,18,8.1,18,18s-8.1,18-18,18h-206c-9.9,0-18-8.1-18-18s8.1-18,18-18H332.5 M332.5,200h-206 c-11,0-20,9-20,20s9,20,20,20h206c11,0,20-9,20-20S343.5,200,332.5,200L332.5,200z"></path> </g> <g> <path d="M126.5,319c-10.5,0-19-8.5-19-19s8.5-19,19-19h125.1c10.5,0,19,8.5,19,19s-8.5,19-19,19H126.5z"></path> <path class="st0" d="M251.6,282c9.9,0,18,8.1,18,18s-8.1,18-18,18H126.5c-9.9,0-18-8.1-18-18s8.1-18,18-18H251.6 M251.6,280 H126.5c-11,0-20,9-20,20s9,20,20,20h125.1c11,0,20-9,20-20S262.6,280,251.6,280L251.6,280z"></path> </g> <g> <path d="M106.6,511c-43.6,0-79-35.4-79-79V80c0-43.6,35.4-79,79-79h245.9c43.6,0,79,35.4,79,79v123c0,10.5-8.5,19-19,19 s-19-8.5-19-19V80c0-22.6-18.4-41-41-41H106.6c-22.6,0-41,18.4-41,41v352c0,22.6,18.4,41,41,41h66.9c10.5,0,19,8.5,19,19 s-8.5,19-19,19H106.6z"></path> <path class="st0" d="M352.5,2c43,0,78,35,78,78v123c0,9.9-8.1,18-18,18s-18-8.1-18-18V80c0-23.2-18.8-42-42-42H106.6 c-23.2,0-42,18.8-42,42v352c0,23.2,18.8,42,42,42h66.9c9.9,0,18,8.1,18,18s-8.1,18-18,18h-66.9c-43,0-78-35-78-78V80 c0-43,35-78,78-78H352.5 M352.5,0H106.6c-44.1,0-80,35.9-80,80v352c0,44.1,35.9,80,80,80h66.9c11,0,20-9,20-20s-9-20-20-20 h-66.9c-22.1,0-40-17.9-40-40V80c0-22.1,17.9-40,40-40h245.9c22.1,0,40,17.9,40,40v123c0,11,9,20,20,20c11,0,20-9,20-20V80 C432.5,35.9,396.6,0,352.5,0L352.5,0z"></path> </g> <g> <path d="M263.5,511c-5.1,0-10-2.1-13.6-5.7c-4.8-5-6.6-12.2-4.6-18.8l23.9-78.7c0.9-3,2.6-5.7,4.8-7.9l109.8-109.6 c11.1-11.1,25.9-17.2,41.7-17.2c15.8,0,30.6,6.1,41.7,17.3c11.1,11.1,17.3,25.9,17.3,41.7c0,15.8-6.1,30.6-17.3,41.7 L357.6,483.1c-2.3,2.3-5.2,4-8.4,4.9l-80.7,22.4C266.9,510.8,265.2,511,263.5,511z M304.2,423.4l-12.5,41.1l42.6-11.8l74.5-74.4 l-29.7-29.7L304.2,423.4z M425.5,311c-5.6,0-10.9,2.2-14.8,6.1l-4.6,4.6l29.7,29.7l4.6-4.6c8.2-8.2,8.2-21.5,0-29.7 C436.3,313.2,431.1,311,425.5,311z"></path> <path class="st0" d="M425.5,274c15.5,0,30.1,6,41,17c22.6,22.6,22.6,59.4,0,82L356.9,482.4c-2.2,2.2-4.9,3.8-7.9,4.6l-80.7,22.4 c-1.6,0.4-3.2,0.7-4.8,0.7c-4.8,0-9.5-2-12.9-5.4c-4.6-4.7-6.2-11.5-4.3-17.8l23.9-78.7c0.9-2.8,2.4-5.4,4.5-7.5L384.5,291 C395.4,280,409.9,274,425.5,274 M435.7,352.8l1.4-1.4l3.9-3.9c8.6-8.6,8.6-22.5,0-31.1c-4.1-4.1-9.7-6.4-15.6-6.4 s-11.4,2.3-15.6,6.4l-3.9,3.9l-1.4,1.4l1.4,1.4l28.3,28.3L435.7,352.8 M290.2,465.9l3.5-1l40.6-11.3l0.5-0.1l0.4-0.4l73.7-73.5 l1.4-1.4l-1.4-1.4l-28.3-28.3l-1.4-1.4l-1.4,1.4l-74.1,73.9l-0.4,0.4l-0.1,0.5l-11.9,39.1L290.2,465.9 M425.5,272 c-15.4,0-30.7,5.8-42.4,17.5L273.2,399.1c-2.3,2.3-4.1,5.2-5,8.3l-23.9,78.7c-2.1,7-0.3,14.6,4.8,19.8c3.8,3.9,9,6,14.3,6 c1.8,0,3.6-0.2,5.3-0.7l80.7-22.4c3.3-0.9,6.4-2.7,8.8-5.1l109.6-109.4c23.4-23.4,23.4-61.5,0-84.9 C456.2,277.9,440.8,272,425.5,272L425.5,272z M435.7,350l-28.3-28.3l3.9-3.9c3.9-3.9,9-5.8,14.1-5.8c5.1,0,10.2,1.9,14.1,5.8 c7.8,7.8,7.8,20.5,0,28.3L435.7,350L435.7,350z M293.2,463l11.9-39.1l74.1-73.9l28.3,28.3l-73.7,73.5L293.2,463L293.2,463z"></path> </g> <g> <path d="M126.5,159c-10.5,0-19-8.5-19-19s8.5-19,19-19h206c10.5,0,19,8.5,19,19s-8.5,19-19,19H126.5z"></path> <path class="st0" d="M332.5,122c9.9,0,18,8.1,18,18s-8.1,18-18,18h-206c-9.9,0-18-8.1-18-18s8.1-18,18-18H332.5 M332.5,120h-206 c-11,0-20,9-20,20s9,20,20,20h206c11,0,20-9,20-20S343.5,120,332.5,120L332.5,120z"></path> </g> </g> </g> </g> </svg> 