<?xml version="1.0" encoding="utf-8"?>
<!-- Generator: Adobe Illustrator 22.0.1, SVG Export Plug-In . SVG Version: 6.00 Build 0)  -->
<svg version="1.1" id="Слой_1" xmlns="http://www.w3.org/2000/svg" xmlns:xlink="http://www.w3.org/1999/xlink" x="0px" y="0px"
	 viewBox="0 0 3000 1600" style="enable-background:new 0 0 3000 1600;" xml:space="preserve">
<style type="text/css">
	.st0{fill:#31618C;}
	.st1{fill:#2D2D2D;}
	.st2{fill-rule:evenodd;clip-rule:evenodd;fill:#0887FC;}
	.st3{fill-rule:evenodd;clip-rule:evenodd;fill:#31618C;}
	.st4{fill-rule:evenodd;clip-rule:evenodd;fill:#39739E;}
</style>
<g>
	<g>
		<path class="st0" d="M869.2,754.7V598.5c0-4.1,0.8-7.6,2.3-10.4c1.5-2.8,3.4-5.2,5.7-7.2c2.3-2,4.8-3.4,7.6-4.3
			c2.8-0.9,5.3-1.3,7.6-1.3h65.7c9.1,0,17.6,0.8,25.6,2.5c8,1.7,15,4.6,21.1,8.7c6,4.1,10.9,9.6,14.4,16.4
			c3.6,6.9,5.3,15.3,5.3,25.5c0,7.7-1.9,14.6-5.7,20.8c-3.8,6.2-9.1,11.2-15.9,14.9c8,3.2,14.3,8.7,18.8,16.4
			c4.5,7.7,6.8,15.8,6.8,24.2c0,10.3-1.8,19-5.5,26.2c-3.6,7.1-8.6,12.9-14.8,17.5c-6.2,4.5-13.5,7.8-21.8,9.9
			c-8.3,2-17,3.1-26.3,3.1h-84.3c-1.8,0-3.3-0.7-4.7-2S869.2,756.5,869.2,754.7z M952.5,649c6,0,10.9-1.6,14.7-4.9
			c3.7-3.3,5.6-8,5.6-14.3c0-6.2-1.9-10.9-5.7-14c-3.8-3.1-8.7-4.7-14.5-4.7h-48c4.1,0,7.6,1.5,10.4,4.4c2.8,2.9,4.3,6.2,4.3,9.7v16
			c0,1.6,0.7,3.3,2.1,5.1c1.4,1.8,3.4,2.7,5.9,2.7H952.5z M954.9,725.3c6.4,0,11.6-1.8,15.6-5.3c4-3.6,6-8.6,6-15.2
			c0-6.4-2-11.5-6.1-15.3c-4.1-3.8-9.3-5.7-15.5-5.7h-50.4c4.1,0,7.6,1.5,10.4,4.4c2.8,2.9,4.3,6.2,4.3,9.7v19.5
			c0,1.8,0.7,3.6,2,5.3c1.3,1.8,3.3,2.7,6,2.7H954.9z"/>
		<path class="st0" d="M1135.3,764.8c-25.3,0-45.2-6.1-59.8-18.4c-14.6-12.3-22.3-30.3-23.2-54.2c-0.2-5-0.3-12.6-0.3-23
			c0-10.3,0.1-18.1,0.3-23.2c0.7-23.5,8.5-41.6,23.4-54.3c14.9-12.7,34.7-19.1,59.7-19.1c24.7,0,44.5,6.4,59.4,19.1
			c14.9,12.7,22.6,30.8,23.4,54.3c0.4,10.3,0.5,18.1,0.5,23.2c0,5.3-0.2,13-0.5,23c-0.9,23.8-8.6,41.9-23.1,54.2
			C1180.5,758.7,1160.6,764.8,1135.3,764.8z M1135.3,724.8c9.3,0,16.6-2.8,22.2-8.4c5.5-5.6,8.5-14.2,8.8-25.8
			c0.4-10.3,0.5-17.7,0.5-22.2c0-4.4-0.2-11.7-0.5-21.6c-0.4-11.6-3.3-20.2-8.8-25.8c-5.5-5.6-12.9-8.4-22.2-8.4
			c-9.4,0-16.9,2.8-22.4,8.4c-5.5,5.6-8.5,14.2-8.8,25.8c-0.2,5-0.3,12.2-0.3,21.6c0,9.6,0.1,17,0.3,22.2
			c0.4,11.6,3.3,20.2,8.8,25.8C1118.4,722,1125.9,724.8,1135.3,724.8z"/>
		<path class="st0" d="M1326.2,764.8c-25.3,0-45.2-6.1-59.8-18.4c-14.6-12.3-22.3-30.3-23.2-54.2c-0.2-5-0.3-12.6-0.3-23
			c0-10.3,0.1-18.1,0.3-23.2c0.7-23.5,8.5-41.6,23.4-54.3c14.9-12.7,34.7-19.1,59.7-19.1c24.7,0,44.5,6.4,59.4,19.1
			c14.9,12.7,22.6,30.8,23.4,54.3c0.4,10.3,0.5,18.1,0.5,23.2c0,5.3-0.2,13-0.5,23c-0.9,23.8-8.6,41.9-23.1,54.2
			C1371.3,758.7,1351.4,764.8,1326.2,764.8z M1326.2,724.8c9.3,0,16.6-2.8,22.2-8.4c5.5-5.6,8.5-14.2,8.8-25.8
			c0.4-10.3,0.5-17.7,0.5-22.2c0-4.4-0.2-11.7-0.5-21.6c-0.4-11.6-3.3-20.2-8.8-25.8c-5.5-5.6-12.9-8.4-22.2-8.4
			c-9.4,0-16.9,2.8-22.4,8.4c-5.5,5.6-8.5,14.2-8.8,25.8c-0.2,5-0.3,12.2-0.3,21.6c0,9.6,0.1,17,0.3,22.2
			c0.4,11.6,3.3,20.2,8.8,25.8C1309.3,722,1316.7,724.8,1326.2,724.8z"/>
		<path class="st0" d="M1618.4,576.4c2,0,3.6,0.6,4.8,1.7c1.2,1.2,1.9,2.8,1.9,4.9v172.7c0,2-0.6,3.5-1.9,4.5
			c-1.2,1.2-2.8,1.9-4.8,1.9h-33.9c-1.8,0-3.3-0.7-4.7-2c-1.3-1.3-2-2.8-2-4.4v-91.3c0-0.9-0.4-1.3-1.3-1.3c-0.5,0-1,0.2-1.3,0.5
			l-25.9,47.8c-2.3,4.1-5.4,6.1-9.3,6.1h-14.4c-3.7,0-6.9-2-9.3-6.1l-25.6-47.5c-0.4-0.5-0.8-0.8-1.3-0.8c-0.9,0-1.3,0.4-1.3,1.3
			v91.3c0,1.8-0.7,3.3-2.1,4.5c-1.2,1.2-2.8,1.9-4.8,1.9h-33.6c-2,0-3.6-0.6-4.8-1.9c-1.2-1.1-1.9-2.6-1.9-4.5V598.5
			c0-3.7,0.8-7,2.4-9.9c1.6-2.8,3.6-5.2,5.9-6.9c2.3-1.8,4.7-3.1,7.2-4c2.5-0.9,4.6-1.3,6.4-1.3h14.9c4.3,0,7.5,1.9,9.6,5.6
			l44.3,79.8c0.2,0.5,0.6,0.8,1.3,0.8c0.5,0,1-0.3,1.3-0.8l44.6-79.8c2.1-3.7,5.3-5.6,9.6-5.6H1618.4z"/>
		<path class="st0" d="M1661.7,754.9V598.8c0-6.8,2.3-12.3,6.9-16.7c4.6-4.4,10.1-6.5,16.3-6.5h108.9c2,0,3.6,0.7,4.9,2
			c1.3,1.3,2,3,2,4.9v26.4c0,2-0.6,3.5-1.9,4.5c-1.2,1.2-2.9,1.9-5.1,1.9h-98.5c4.3,0,7.8,1.5,10.5,4.5c2.8,3,4.1,6.3,4.1,9.9V641
			c0,2,0.7,3.8,2,5.6c1.3,1.8,3.3,2.7,6,2.7h58.2c2,0,3.6,0.7,4.9,2c1.3,1.3,2,3,2,4.9v24c0,2-0.7,3.6-2,4.9c-1.3,1.3-3,2-4.9,2
			h-80.9c4.1,0,7.6,1.4,10.4,4.3c2.8,2.8,4.3,6.1,4.3,9.6v12.5c0,2,0.7,3.8,2.1,5.6c1.4,1.8,3.4,2.7,5.9,2.7h77.9
			c4.6,0,6.9,2.3,6.9,6.9v26.2c0,2.1-0.7,3.8-2,4.9c-1.3,1.2-3,1.7-4.9,1.7h-127.6c-1.8,0-3.3-0.7-4.7-2
			C1662.4,758.3,1661.7,756.7,1661.7,754.9z"/>
		<path class="st0" d="M1986.3,761.6h-37.6c-5,0-8.5-2.3-10.7-6.9l-27.2-53.4c-1.6-2.8-4-4.3-7.2-4.3h-35c4.4,0,8,1.6,10.5,4.7
			c2.6,3.1,3.9,6.3,3.9,9.5v44c0,2-0.6,3.5-1.9,4.5c-1.2,1.2-2.8,1.9-4.8,1.9h-36.6c-1.8,0-3.3-0.7-4.7-2c-1.3-1.3-2-2.8-2-4.4
			V598.8c0-6.6,2.3-12.1,6.9-16.4c4.6-4.4,10.1-6.5,16.3-6.5h56.6c10,0,19.4,1.1,28.4,3.2c9,2.1,16.9,5.6,23.8,10.4
			c6.8,4.8,12.3,11.1,16.4,18.8c4.1,7.7,6.1,17.2,6.1,28.4c0,10.7-2.4,20.3-7.2,28.8s-11.9,15.5-21.4,20.8c-1.4,0.9-2.2,2-2.3,3.2
			c-0.1,1.2,0.1,2.2,0.7,2.9l33.6,60.9c0.5,1.1,0.8,2,0.8,2.9c0,1.4-0.6,2.7-1.7,3.7C1989,761.1,1987.7,761.6,1986.3,761.6z
			 M1936.1,636.4c0-7.3-2.2-12.9-6.5-16.7c-4.4-3.8-10-5.7-17-5.7h-45.9c4.4,0,8,1.5,10.7,4.5c2.7,3,4,6.2,4,9.6v21.6
			c0,2.1,0.8,4,2.3,5.6c1.5,1.6,3.4,2.4,5.7,2.4h23.2c6.9,0,12.6-1.7,17-5.2C1933.9,649.1,1936.1,643.7,1936.1,636.4z"/>
		<path class="st0" d="M2003.9,760.6c-1.1-1.4-1.6-2.8-1.6-4c0-1.2,0.1-2,0.3-2.4l61.9-170.3c2-5.2,5.5-7.7,10.7-7.7h41.4
			c5.2,0,8.7,2.6,10.7,7.7l61.9,170.3c0.2,0.4,0.3,1.2,0.3,2.4c0,1.4-0.6,2.7-1.7,3.9c-1.2,1.2-2.4,1.7-3.9,1.7h-34.4
			c-4.5,0-7.5-2-9.1-5.9l-13.9-37.6c-6.4,2.5-12.9,4.5-19.5,6.1c-6.6,1.6-12.9,2.8-19.1,3.6s-11.9,1.3-17.2,1.6
			c-5.3,0.3-10,0.4-13.9,0.4c-2.5,0-4.6,0-6.3,0c-1.7,0-3-0.1-3.9-0.3c3.2,0.5,5.8,2.3,7.9,5.3c2,3,2.3,6.6,0.7,10.7l-3.7,10.1
			c-1.6,3.9-4.6,5.9-9.1,5.9h-34.4C2006.6,762.2,2005.3,761.6,2003.9,760.6z M2071.7,692.2c5-0.4,10.1-1,15.5-1.9
			c4.6-0.7,9.5-1.7,14.5-3.1c5.1-1.3,9.9-3.2,14.5-5.7l-20.6-58.7L2071.7,692.2z"/>
		<path class="st0" d="M2210.7,754.7V598.5c0-6.2,2.2-11.7,6.7-16.3c4.4-4.6,10-6.9,16.5-6.9h8.8c2,0,4.3,0.4,6.9,1.2
			s5.4,3.2,8.3,7.1c10.5,16.4,19.9,31.1,28.3,44.3c5.2,8,9.2,14.4,12.1,19.1c2.9,4.7,5.7,9.1,8.4,13.1c2.7,4,4.9,7.4,6.7,10.3
			c1.8,2.8,2.8,4.5,3.2,5.1c0,0.4,0.4,0.5,1.1,0.5c0.9,0,1.3-0.4,1.3-1.3v-76.1c0-6.9,2.4-12.5,7.2-16.8c4.8-4.3,10.2-6.4,16.3-6.4
			h17.1c2,0,3.6,0.6,4.8,1.9c1.2,1.6,1.9,3.3,1.9,5.1v172.2c0,1.6-0.6,3.2-1.9,4.8c-1.4,1.4-3,2.1-4.8,2.1h-30.2
			c-3.9,0-6.9-1.7-9.1-5.1c-10.7-16.4-20.3-31.1-28.8-44c-5.2-7.8-9.3-14.1-12.3-18.8c-3-4.7-5.9-9.1-8.5-13.1
			c-2.7-4-4.9-7.4-6.7-10.1c-1.8-2.8-2.8-4.4-3.2-4.9c-0.5-0.5-1-0.8-1.3-0.8c-0.9,0-1.3,0.4-1.3,1.3v88.9c0,2-0.7,3.6-2.1,4.8
			c-1.4,1.2-3,1.9-4.8,1.9h-33.9c-1.6,0-3.1-0.7-4.5-2.1C2211.5,757.8,2210.7,756.3,2210.7,754.7z"/>
		<path class="st0" d="M2397.6,692.8c0-2.7,0-6-0.1-10c-0.1-4-0.1-8.8-0.1-14.3c0-5.7,0-10.5,0.1-14.5c0.1-4,0.1-7.3,0.1-10
			c0.5-12.3,3-22.9,7.5-31.8c4.4-8.9,10.4-16.2,17.9-21.9c7.5-5.7,16.2-9.9,26.2-12.5c10-2.7,20.6-4,32-4c6.6,0,13.3,0.5,20.3,1.5
			c6.9,1,13.7,2.6,20.2,4.9c6.5,2.3,12.6,5.3,18.3,9.1c5.7,3.7,10.6,8.4,14.7,13.9c6.8,8.5,10.2,17.4,10.4,26.4c0,1.6-0.5,2.9-1.6,4
			c-1.4,1.2-2.8,1.9-4.3,1.9H2518c-1.4,0-2.8-0.4-4.3-1.1c-0.9-0.7-1.8-1.6-2.7-2.7c-2.7-6.6-6.6-11.3-11.7-14
			c-5.2-2.8-11.2-4.1-18.2-4.1c-20.5,0-31.1,10.6-32,31.8c0,2.5,0,5.7-0.1,9.5c-0.1,3.8-0.1,8.3-0.1,13.5c0,5.2,0,9.7,0.1,13.5
			c0.1,3.8,0.1,7.1,0.1,9.7c0.5,11.2,3.5,19.6,8.8,25.2c5.3,5.6,14.6,8.4,27.8,8.4c4.3,0,7.7-0.2,10.4-0.5c2.7-0.4,4.9-0.8,6.8-1.5
			c1.9-0.6,3.5-1.4,4.9-2.4c1.4-1,2.8-2.1,4.3-3.3c3.9-3.4,6.5-7.7,7.7-13.1c0.7-2.8,1.9-5.2,3.5-7.1c1.6-1.9,3.3-3.4,5.2-4.5
			c1.9-1.2,3.7-2,5.5-2.5c1.8-0.5,3.3-0.8,4.5-0.8h-47.2c-1.8,0-3.4-0.7-4.8-2.1c-1.4-1.4-2.1-3-2.1-4.8v-4.5c0-2.8,0.5-5.6,1.6-8.4
			c1.1-2.8,2.6-5.2,4.5-7.5c2-2.2,4.4-4,7.2-5.3c2.8-1.3,6.1-2,9.9-2h39.5c6.6,0,11.3,1.7,14.3,5.2c2.9,3.5,4.4,8.1,4.4,14v18.7
			c0,12.6-2.3,23.5-6.8,32.6c-4.5,9.1-10.7,16.5-18.4,22.4c-7.7,5.9-16.7,10.2-27,13.1c-10.2,2.8-21,4.3-32.4,4.3
			c-11.7,0-22.6-1.4-32.6-4.3c-10-2.8-18.6-7.2-26-13.1c-7.4-5.9-13.3-13.3-17.6-22.4C2400.6,716,2398.1,705.2,2397.6,692.8z"/>
		<path class="st1" d="M854.8,1008.4c-1.1-1.4-1.6-2.8-1.6-4c0-1.2,0.1-2,0.3-2.4l61.9-170.3c2-5.2,5.5-7.7,10.7-7.7h41.4
			c5.2,0,8.7,2.6,10.7,7.7L1040,1002c0.2,0.4,0.3,1.2,0.3,2.4c0,1.4-0.6,2.7-1.7,3.9c-1.2,1.2-2.4,1.7-3.9,1.7h-34.4
			c-4.5,0-7.5-2-9.1-5.9l-13.9-37.6c-6.4,2.5-12.9,4.5-19.5,6.1c-6.6,1.6-12.9,2.8-19.1,3.6s-11.9,1.3-17.2,1.6
			c-5.3,0.3-10,0.4-13.9,0.4c-2.5,0-4.6,0-6.3,0c-1.7,0-3-0.1-3.9-0.3c3.2,0.5,5.8,2.3,7.9,5.3c2,3,2.3,6.6,0.7,10.7l-3.7,10.1
			c-1.6,3.9-4.6,5.9-9.1,5.9h-34.4C857.5,1010,856.2,1009.5,854.8,1008.4z M922.6,940.1c5-0.4,10.1-1,15.5-1.9
			c4.6-0.7,9.5-1.7,14.5-3.1c5.1-1.3,9.9-3.2,14.5-5.7l-20.6-58.7L922.6,940.1z"/>
		<path class="st1" d="M1066.7,1002.6V846.4c0-4.1,0.8-7.6,2.3-10.4c1.5-2.8,3.4-5.2,5.7-7.2c2.3-2,4.8-3.4,7.6-4.3
			c2.8-0.9,5.3-1.3,7.6-1.3h65.7c9.1,0,17.6,0.8,25.6,2.5c8,1.7,15,4.6,21.1,8.7c6,4.1,10.9,9.6,14.4,16.4
			c3.6,6.9,5.3,15.3,5.3,25.5c0,7.7-1.9,14.6-5.7,20.8c-3.8,6.2-9.1,11.2-15.9,14.9c8,3.2,14.3,8.7,18.8,16.4
			c4.5,7.7,6.8,15.8,6.8,24.2c0,10.3-1.8,19-5.5,26.2c-3.6,7.1-8.6,12.9-14.8,17.5c-6.2,4.5-13.5,7.8-21.8,9.9
			c-8.3,2-17,3.1-26.3,3.1h-84.3c-1.8,0-3.3-0.7-4.7-2S1066.7,1004.3,1066.7,1002.6z M1150,896.9c6,0,10.9-1.6,14.7-4.9
			c3.7-3.3,5.6-8,5.6-14.3c0-6.2-1.9-10.9-5.7-14c-3.8-3.1-8.7-4.7-14.5-4.7h-48c4.1,0,7.6,1.5,10.4,4.4c2.8,2.9,4.3,6.2,4.3,9.7v16
			c0,1.6,0.7,3.3,2.1,5.1c1.4,1.8,3.4,2.7,5.9,2.7H1150z M1152.4,973.2c6.4,0,11.6-1.8,15.6-5.3c4-3.6,6-8.6,6-15.2
			c0-6.4-2-11.5-6.1-15.3c-4.1-3.8-9.3-5.7-15.5-5.7H1102c4.1,0,7.6,1.5,10.4,4.4c2.8,2.9,4.3,6.2,4.3,9.7v19.5c0,1.8,0.7,3.6,2,5.3
			c1.3,1.8,3.3,2.7,6,2.7H1152.4z"/>
		<path class="st1" d="M1403,823.2c2,0,3.6,0.7,4.9,2c1.3,1.3,2,2.9,2,4.7v29.9c0,2-0.7,3.6-2,4.8c-1.3,1.2-3,1.9-4.9,1.9h-61.9
			c3.9,0,7.4,1.4,10.5,4.3c3.1,2.8,4.7,6.1,4.7,9.6v122.3c0,2-0.7,3.5-2.1,4.5c-1.2,1.2-2.8,1.9-4.8,1.9h-37.1c-2,0-3.6-0.6-4.8-1.9
			c-1.4-1.1-2.1-2.6-2.1-4.5V874.4c0-2.5-0.8-4.4-2.4-5.9c-1.6-1.4-3.5-2.1-5.6-2.1h-38.7c-1.8,0-3.4-0.6-4.8-1.9
			c-1.4-1.2-2.1-2.8-2.1-4.8v-13.6c0-3.4,0.7-6.5,2-9.3c1.3-2.8,3.1-5.3,5.3-7.3c2.2-2,4.7-3.6,7.5-4.7c2.8-1.1,5.6-1.6,8.4-1.6
			H1403z"/>
		<path class="st1" d="M1513.5,1012.7c-25.3,0-45.2-6.1-59.8-18.4c-14.6-12.3-22.3-30.3-23.2-54.2c-0.2-5-0.3-12.6-0.3-23
			c0-10.3,0.1-18.1,0.3-23.2c0.7-23.5,8.5-41.6,23.4-54.3c14.9-12.7,34.7-19.1,59.7-19.1c24.7,0,44.5,6.4,59.4,19.1
			c14.9,12.7,22.6,30.8,23.4,54.3c0.4,10.3,0.5,18.1,0.5,23.2c0,5.3-0.2,13-0.5,23c-0.9,23.8-8.6,41.9-23.1,54.2
			C1558.7,1006.6,1538.8,1012.7,1513.5,1012.7z M1513.5,972.7c9.3,0,16.6-2.8,22.2-8.4c5.5-5.6,8.5-14.2,8.8-25.8
			c0.4-10.3,0.5-17.7,0.5-22.2c0-4.4-0.2-11.7-0.5-21.6c-0.4-11.6-3.3-20.2-8.8-25.8c-5.5-5.6-12.9-8.4-22.2-8.4
			c-9.4,0-16.9,2.8-22.4,8.4c-5.5,5.6-8.5,14.2-8.8,25.8c-0.2,5-0.3,12.2-0.3,21.6c0,9.6,0.1,17,0.3,22.2
			c0.4,11.6,3.3,20.2,8.8,25.8C1496.6,969.9,1504.1,972.7,1513.5,972.7z"/>
		<path class="st1" d="M1768.7,823.2c2,0,3.6,0.7,4.9,2c1.3,1.3,2,2.9,2,4.7v29.9c0,2-0.7,3.6-2,4.8c-1.3,1.2-3,1.9-4.9,1.9h-61.9
			c3.9,0,7.4,1.4,10.5,4.3c3.1,2.8,4.7,6.1,4.7,9.6v122.3c0,2-0.7,3.5-2.1,4.5c-1.2,1.2-2.8,1.9-4.8,1.9H1678c-2,0-3.6-0.6-4.8-1.9
			c-1.4-1.1-2.1-2.6-2.1-4.5V874.4c0-2.5-0.8-4.4-2.4-5.9c-1.6-1.4-3.5-2.1-5.6-2.1h-38.7c-1.8,0-3.4-0.6-4.8-1.9
			c-1.4-1.2-2.1-2.8-2.1-4.8v-13.6c0-3.4,0.7-6.5,2-9.3c1.3-2.8,3.1-5.3,5.3-7.3c2.2-2,4.7-3.6,7.5-4.7c2.8-1.1,5.6-1.6,8.4-1.6
			H1768.7z"/>
		<path class="st1" d="M1966.8,884.8c0,11.2-2,20.7-5.9,28.4c-3.9,7.7-9.2,14-15.9,18.7c-6.7,4.7-14.5,8.1-23.4,10.1
			c-8.9,2-18.4,3.1-28.6,3.1h-22.4c-2.1,0-4,0.7-5.6,2.1c-1.6,1.4-2.4,3.4-2.4,5.9v49.4c0,1.8-0.7,3.3-2,4.7s-2.9,2-4.7,2h-38.2
			c-1.8,0-3.3-0.7-4.7-2s-2-2.9-2-4.7V846.4c0-3.7,0.7-7.1,2.1-10c1.4-2.9,3.3-5.4,5.6-7.3c2.3-2,4.8-3.4,7.5-4.4
			c2.7-1,5.3-1.5,8-1.5h58.7c10.1,0,19.7,1.1,28.7,3.3c9,2.2,16.8,5.8,23.5,10.7c6.7,4.9,11.9,11.3,15.7,19.1
			C1964.9,864.1,1966.8,873.6,1966.8,884.8z M1915,884.6c0-7.5-2-13.2-6-17.2s-9.7-6-17.2-6h-45.1c1.4,0,3,0.3,4.8,0.9
			c1.8,0.6,3.4,1.6,4.9,2.8c1.5,1.2,2.8,2.8,3.9,4.7c1.1,1.9,1.6,4,1.6,6.3v23c0,2.5,0.8,4.5,2.5,6c1.7,1.5,3.6,2.3,5.7,2.3h21.6
			c7.3,0,13-2,17.1-5.9C1912.9,897.5,1915,891.9,1915,884.6z"/>
		<path class="st1" d="M1987.3,1008.4c-1.1-1.4-1.6-2.8-1.6-4c0-1.2,0.1-2,0.3-2.4l61.9-170.3c2-5.2,5.5-7.7,10.7-7.7h41.4
			c5.2,0,8.7,2.6,10.7,7.7l61.9,170.3c0.2,0.4,0.3,1.2,0.3,2.4c0,1.4-0.6,2.7-1.7,3.9c-1.2,1.2-2.4,1.7-3.9,1.7h-34.4
			c-4.5,0-7.5-2-9.1-5.9l-13.9-37.6c-6.4,2.5-12.9,4.5-19.5,6.1c-6.6,1.6-12.9,2.8-19.1,3.6s-11.9,1.3-17.2,1.6
			c-5.3,0.3-10,0.4-13.9,0.4c-2.5,0-4.6,0-6.3,0c-1.7,0-3-0.1-3.9-0.3c3.2,0.5,5.8,2.3,7.9,5.3c2,3,2.3,6.6,0.7,10.7l-3.7,10.1
			c-1.6,3.9-4.6,5.9-9.1,5.9h-34.4C1990.1,1010,1988.7,1009.5,1987.3,1008.4z M2055.1,940.1c5-0.4,10.1-1,15.5-1.9
			c4.6-0.7,9.5-1.7,14.5-3.1s9.9-3.2,14.5-5.7l-20.6-58.7L2055.1,940.1z"/>
		<path class="st1" d="M2205.1,1003.1V846.9c0-6.6,2.3-12.1,6.9-16.5c4.6-4.4,10.1-6.7,16.3-6.7h19.8c4.6,0,6.9,2.3,6.9,6.9v61.9
			c0,3,1.1,5.1,3.2,6.3c2.1,1.2,3.8,1.7,5.1,1.7c11-0.2,20.2-1,27.6-2.5c7.4-1.5,14.5-3.8,21.5-6.8c1.4-0.7,2.7-1.7,3.7-2.9
			c1.1-1.2,1.6-2.8,1.6-4.8v-36.6c0-3.6,0.7-6.8,2-9.6c1.3-2.8,3.1-5.3,5.3-7.3c2.2-2,4.7-3.6,7.5-4.7c2.8-1.1,5.6-1.6,8.4-1.6h19.8
			c4.6,0,6.9,2.3,6.9,6.9v172.4c0,2.1-0.6,3.8-1.9,4.9c-1.2,1.2-2.9,1.7-5.1,1.7h-36c-1.8,0-3.4-0.6-4.8-1.9
			c-1.4-1.2-2.1-2.8-2.1-4.8v-63.3c0-2.7-0.8-4.6-2.5-5.9c-1.7-1.2-3.5-1.9-5.5-1.9c-0.7,0-1.6,0.2-2.7,0.5
			c-8.7,2.5-17.5,4.1-26.3,4.8c-8.8,0.7-16.6,1.1-23.4,1.1c-3.6,0-6.6,0-9.1-0.1c-2.5-0.1-4.5-0.1-5.9-0.1c3.6,0.5,6.5,2.1,8.9,4.7
			c2.4,2.6,3.6,5.7,3.6,9.2v51c0,2.1-0.6,3.8-1.9,4.9c-1.2,1.2-2.9,1.7-5.1,1.7h-36.3c-2,0-3.6-0.6-4.8-1.9
			C2205.8,1006.7,2205.1,1005.1,2205.1,1003.1z"/>
		<path class="st1" d="M2492.3,1012.7c-25.4,0-45.4-6.1-59.9-18.4c-14.5-12.3-22.2-30.3-23.1-53.9c-0.2-4.8-0.3-12.6-0.3-23.5
			c0-11,0.1-19,0.3-24c0.9-23.1,8.7-41,23.4-53.5c14.7-12.5,34.6-18.8,59.7-18.8c15.8,0,30,2.6,42.6,7.7
			c12.5,5.2,22.5,12.6,29.8,22.4c7.3,9.8,11.1,21.4,11.5,34.7c0,1.6-0.6,2.9-1.7,4c-1.2,1.1-2.5,1.6-4.1,1.6h-37.9
			c-2.5,0-4.3-0.5-5.5-1.5c-1.2-1-2.2-2.8-3.1-5.5c-2.5-8.7-6.3-14.8-11.3-18.3c-5.1-3.5-11.8-5.2-20.2-5.2
			c-20.1,0-30.5,11.2-31.2,33.6c-0.2,4.8-0.3,12.2-0.3,22.2c0,10,0.1,17.5,0.3,22.7c0.7,22.4,11.1,33.6,31.2,33.6
			c8.2,0,14.9-1.8,20.2-5.3c5.2-3.6,9-9.6,11.3-18.2c0.7-2.7,1.7-4.5,2.9-5.5c1.2-1,3.1-1.5,5.6-1.5h37.9c1.6,0,3,0.5,4.1,1.6
			c1.2,1.1,1.7,2.4,1.7,4c-0.4,13.3-4.2,24.9-11.5,34.7c-7.3,9.8-17.2,17.3-29.8,22.4C2522.4,1010.1,2508.2,1012.7,2492.3,1012.7z"
			/>
	</g>
	<g>
		<path class="st2" d="M820.7,1117.4c-5-10.7-11.2-22.2-18.9-34.4c-204.9-326.4-204.9-239.6,0-566c7.7-12.2,13.9-23.7,18.9-34.4
			c-6.4,12.8-14.8,26.6-25.5,41.3C753.4,581.5,620,736.3,620,800c0,63.7,133.3,218.5,175.2,276.2
			C805.9,1090.8,814.3,1104.7,820.7,1117.4L820.7,1117.4z"/>
		<path class="st3" d="M701.5,458.3c-73,71.4-281.6,237.9-286.6,334.2c-5.7,108.4,206.5,270.9,286.6,349.3
			c105.5,103.1,152.3,48.6,74.4-58.7C728.7,1018,593,867.9,597,792.5C600.2,731.2,734.5,574,775.9,517
			C853.8,409.7,807.1,355.1,701.5,458.3L701.5,458.3z"/>
		<path class="st4" d="M812.9,1182.7c6.5-18.6-4.2-54.5-37-99.7C728.7,1018,593,867.9,597,792.5C600.2,731.2,734.5,574,775.9,517
			c32.8-45.2,43.5-81,37-99.7c-107.2,98-307.9,269.4-313.3,373.5C493.4,909,699.5,1079.7,812.9,1182.7L812.9,1182.7z"/>
	</g>
</g>
</svg>
