<?xml version="1.0" encoding="utf-8"?>
<!-- Generator: Adobe Illustrator 21.1.0, SVG Export Plug-In . SVG Version: 6.00 Build 0)  -->
<svg version="1.1" baseProfile="tiny" xmlns="http://www.w3.org/2000/svg" xmlns:xlink="http://www.w3.org/1999/xlink" x="0px"
	 y="0px" viewBox="0 0 408.1 104.2" xml:space="preserve">
<g id="Слой_1">
	<g>
		<path fill="#31618C" d="M3.8,43.1v-37c0-1,0.2-1.8,0.5-2.5C4.7,3,5.1,2.4,5.7,2c0.5-0.5,1.1-0.8,1.8-1c0.7-0.2,1.3-0.3,1.8-0.3
			h15.6c2.1,0,4.2,0.2,6.1,0.6c1.9,0.4,3.6,1.1,5,2.1c1.4,1,2.6,2.3,3.4,3.9c0.8,1.6,1.3,3.6,1.3,6c0,1.8-0.5,3.5-1.4,4.9
			c-0.9,1.5-2.2,2.7-3.8,3.5c1.9,0.8,3.4,2.1,4.5,3.9c1.1,1.8,1.6,3.7,1.6,5.7c0,2.4-0.4,4.5-1.3,6.2c-0.9,1.7-2,3.1-3.5,4.1
			c-1.5,1.1-3.2,1.9-5.2,2.3c-2,0.5-4,0.7-6.2,0.7h-20c-0.4,0-0.8-0.2-1.1-0.5S3.8,43.5,3.8,43.1z M23.5,18.1c1.4,0,2.6-0.4,3.5-1.2
			c0.9-0.8,1.3-1.9,1.3-3.4c0-1.5-0.5-2.6-1.4-3.3c-0.9-0.7-2.1-1.1-3.4-1.1H12.1c1,0,1.8,0.3,2.5,1c0.7,0.7,1,1.5,1,2.3v3.8
			c0,0.4,0.2,0.8,0.5,1.2c0.3,0.4,0.8,0.6,1.4,0.6H23.5z M24.1,36.2c1.5,0,2.8-0.4,3.7-1.3c0.9-0.8,1.4-2,1.4-3.6
			c0-1.5-0.5-2.7-1.5-3.6c-1-0.9-2.2-1.4-3.7-1.4h-12c1,0,1.8,0.3,2.5,1c0.7,0.7,1,1.5,1,2.3v4.6c0,0.4,0.2,0.8,0.5,1.3
			c0.3,0.4,0.8,0.6,1.4,0.6H24.1z"/>
		<path fill="#31618C" d="M66.8,45.5c-6,0-10.7-1.5-14.2-4.4c-3.5-2.9-5.3-7.2-5.5-12.8c0-1.2-0.1-3-0.1-5.4c0-2.4,0-4.3,0.1-5.5
			c0.2-5.6,2-9.9,5.5-12.9c3.5-3,8.2-4.5,14.1-4.5c5.9,0,10.5,1.5,14.1,4.5c3.5,3,5.4,7.3,5.5,12.9c0.1,2.4,0.1,4.3,0.1,5.5
			c0,1.3,0,3.1-0.1,5.4c-0.2,5.6-2,9.9-5.5,12.8C77.5,44.1,72.8,45.5,66.8,45.5z M66.8,36c2.2,0,3.9-0.7,5.2-2
			c1.3-1.3,2-3.4,2.1-6.1c0.1-2.4,0.1-4.2,0.1-5.2c0-1.1,0-2.8-0.1-5.1c-0.1-2.7-0.8-4.8-2.1-6.1c-1.3-1.3-3.1-2-5.2-2
			c-2.2,0-4,0.7-5.3,2c-1.3,1.3-2,3.4-2.1,6.1c0,1.2-0.1,2.9-0.1,5.1c0,2.3,0,4,0.1,5.2c0.1,2.7,0.8,4.8,2.1,6.1
			C62.8,35.4,64.6,36,66.8,36z"/>
		<path fill="#31618C" d="M112,45.5c-6,0-10.7-1.5-14.2-4.4c-3.5-2.9-5.3-7.2-5.5-12.8c0-1.2-0.1-3-0.1-5.4c0-2.4,0-4.3,0.1-5.5
			c0.2-5.6,2-9.9,5.5-12.9c3.5-3,8.2-4.5,14.1-4.5c5.9,0,10.5,1.5,14.1,4.5c3.5,3,5.4,7.3,5.5,12.9c0.1,2.4,0.1,4.3,0.1,5.5
			c0,1.3,0,3.1-0.1,5.4c-0.2,5.6-2,9.9-5.5,12.8C122.7,44.1,118,45.5,112,45.5z M112,36c2.2,0,3.9-0.7,5.2-2c1.3-1.3,2-3.4,2.1-6.1
			c0.1-2.4,0.1-4.2,0.1-5.2c0-1.1,0-2.8-0.1-5.1c-0.1-2.7-0.8-4.8-2.1-6.1c-1.3-1.3-3.1-2-5.2-2c-2.2,0-4,0.7-5.3,2
			c-1.3,1.3-2,3.4-2.1,6.1c0,1.2-0.1,2.9-0.1,5.1c0,2.3,0,4,0.1,5.2c0.1,2.7,0.8,4.8,2.1,6.1C108,35.4,109.8,36,112,36z"/>
		<path fill="#31618C" d="M181.3,0.9c0.5,0,0.8,0.1,1.1,0.4c0.3,0.3,0.4,0.7,0.4,1.2v40.9c0,0.5-0.1,0.8-0.4,1.1
			c-0.3,0.3-0.7,0.4-1.1,0.4h-8c-0.4,0-0.8-0.2-1.1-0.5c-0.3-0.3-0.5-0.7-0.5-1V21.8c0-0.2-0.1-0.3-0.3-0.3c-0.1,0-0.2,0-0.3,0.1
			l-6.1,11.3c-0.5,1-1.3,1.5-2.2,1.5h-3.4c-0.9,0-1.6-0.5-2.2-1.5L151,21.6c-0.1-0.1-0.2-0.2-0.3-0.2c-0.2,0-0.3,0.1-0.3,0.3v21.6
			c0,0.4-0.2,0.8-0.5,1.1c-0.3,0.3-0.7,0.4-1.1,0.4h-8c-0.5,0-0.8-0.1-1.1-0.4c-0.3-0.3-0.4-0.6-0.4-1.1V6.1c0-0.9,0.2-1.7,0.6-2.3
			c0.4-0.7,0.8-1.2,1.4-1.6c0.5-0.4,1.1-0.7,1.7-0.9c0.6-0.2,1.1-0.3,1.5-0.3h3.5c1,0,1.8,0.4,2.3,1.3l10.5,18.9
			c0,0.1,0.1,0.2,0.3,0.2c0.1,0,0.2-0.1,0.3-0.2l10.6-18.9c0.5-0.9,1.3-1.3,2.3-1.3H181.3z"/>
		<path fill="#31618C" d="M191.5,43.2v-37c0-1.6,0.5-2.9,1.6-4c1.1-1,2.4-1.5,3.9-1.5h25.8c0.5,0,0.9,0.2,1.2,0.5
			c0.3,0.3,0.5,0.7,0.5,1.2v6.3c0,0.5-0.1,0.8-0.4,1.1c-0.3,0.3-0.7,0.4-1.2,0.4h-23.3c1,0,1.8,0.4,2.5,1.1c0.7,0.7,1,1.5,1,2.3v2.7
			c0,0.5,0.2,0.9,0.5,1.3c0.3,0.4,0.8,0.6,1.4,0.6h13.8c0.5,0,0.9,0.2,1.2,0.5c0.3,0.3,0.5,0.7,0.5,1.2v5.7c0,0.5-0.2,0.9-0.5,1.2
			c-0.3,0.3-0.7,0.5-1.2,0.5h-19.2c1,0,1.8,0.3,2.5,1c0.7,0.7,1,1.4,1,2.3v3c0,0.5,0.2,0.9,0.5,1.3c0.3,0.4,0.8,0.6,1.4,0.6h18.5
			c1.1,0,1.6,0.5,1.6,1.6v6.2c0,0.5-0.2,0.9-0.5,1.2c-0.3,0.3-0.7,0.4-1.2,0.4h-30.2c-0.4,0-0.8-0.2-1.1-0.5
			C191.7,44,191.5,43.6,191.5,43.2z"/>
		<path fill="#31618C" d="M268.4,44.8h-8.9c-1.2,0-2-0.5-2.5-1.6l-6.4-12.6c-0.4-0.7-0.9-1-1.7-1h-8.3c1.1,0,1.9,0.4,2.5,1.1
			c0.6,0.7,0.9,1.5,0.9,2.2v10.4c0,0.5-0.1,0.8-0.4,1.1c-0.3,0.3-0.7,0.4-1.1,0.4h-8.7c-0.4,0-0.8-0.2-1.1-0.5
			c-0.3-0.3-0.5-0.7-0.5-1V6.2c0-1.6,0.5-2.9,1.6-3.9c1.1-1,2.4-1.5,3.9-1.5H251c2.4,0,4.6,0.3,6.7,0.8c2.1,0.5,4,1.3,5.6,2.5
			c1.6,1.1,2.9,2.6,3.9,4.5c1,1.8,1.5,4.1,1.5,6.7c0,2.5-0.6,4.8-1.7,6.8c-1.1,2-2.8,3.7-5.1,4.9c-0.3,0.2-0.5,0.5-0.5,0.8
			c0,0.3,0,0.5,0.2,0.7l8,14.4c0.1,0.3,0.2,0.5,0.2,0.7c0,0.3-0.1,0.6-0.4,0.9C269.1,44.6,268.7,44.8,268.4,44.8z M256.5,15.1
			c0-1.7-0.5-3-1.5-4c-1-0.9-2.4-1.4-4-1.4h-10.9c1.1,0,1.9,0.4,2.5,1.1c0.6,0.7,0.9,1.5,0.9,2.3v5.1c0,0.5,0.2,0.9,0.5,1.3
			c0.4,0.4,0.8,0.6,1.4,0.6h5.5c1.6,0,3-0.4,4-1.2C256,18.1,256.5,16.8,256.5,15.1z"/>
		<path fill="#31618C" d="M272.6,44.5c-0.3-0.3-0.4-0.7-0.4-0.9c0-0.3,0-0.5,0.1-0.6l14.7-40.3c0.5-1.2,1.3-1.8,2.5-1.8h9.8
			c1.2,0,2.1,0.6,2.5,1.8L316.5,43c0,0.1,0.1,0.3,0.1,0.6c0,0.3-0.1,0.6-0.4,0.9c-0.3,0.3-0.6,0.4-0.9,0.4H307
			c-1.1,0-1.8-0.5-2.1-1.4l-3.3-8.9c-1.5,0.6-3.1,1.1-4.6,1.5c-1.6,0.4-3.1,0.7-4.5,0.9c-1.5,0.2-2.8,0.3-4.1,0.4
			c-1.3,0.1-2.4,0.1-3.3,0.1c-0.6,0-1.1,0-1.5,0c-0.4,0-0.7,0-0.9-0.1c0.8,0.1,1.4,0.5,1.9,1.3c0.5,0.7,0.5,1.6,0.2,2.5l-0.9,2.4
			c-0.4,0.9-1.1,1.4-2.1,1.4h-8.2C273.2,44.9,272.9,44.8,272.6,44.5z M288.6,28.3c1.2-0.1,2.4-0.2,3.7-0.4c1.1-0.2,2.2-0.4,3.4-0.7
			c1.2-0.3,2.3-0.8,3.4-1.4l-4.9-13.9L288.6,28.3z"/>
		<path fill="#31618C" d="M321.6,43.1v-37c0-1.5,0.5-2.8,1.6-3.9c1.1-1.1,2.4-1.6,3.9-1.6h2.1c0.5,0,1,0.1,1.6,0.3s1.3,0.7,2,1.7
			c2.5,3.9,4.7,7.4,6.7,10.5c1.2,1.9,2.2,3.4,2.9,4.5c0.7,1.1,1.4,2.1,2,3.1c0.6,0.9,1.2,1.8,1.6,2.4c0.4,0.7,0.7,1.1,0.8,1.2
			c0,0.1,0.1,0.1,0.3,0.1c0.2,0,0.3-0.1,0.3-0.3v-18c0-1.6,0.6-3,1.7-4c1.1-1,2.4-1.5,3.9-1.5h4c0.5,0,0.8,0.1,1.1,0.4
			c0.3,0.4,0.4,0.8,0.4,1.2v40.8c0,0.4-0.1,0.8-0.4,1.1c-0.3,0.3-0.7,0.5-1.1,0.5h-7.1c-0.9,0-1.6-0.4-2.1-1.2
			c-2.5-3.9-4.8-7.4-6.8-10.4c-1.2-1.9-2.2-3.3-2.9-4.5c-0.7-1.1-1.4-2.1-2-3.1c-0.6-0.9-1.2-1.7-1.6-2.4c-0.4-0.7-0.7-1-0.8-1.2
			c-0.1-0.1-0.2-0.2-0.3-0.2c-0.2,0-0.3,0.1-0.3,0.3v21.1c0,0.5-0.2,0.8-0.5,1.1c-0.3,0.3-0.7,0.4-1.1,0.4h-8
			c-0.4,0-0.7-0.2-1.1-0.5C321.8,43.9,321.6,43.5,321.6,43.1z"/>
		<path fill="#31618C" d="M365.8,28.5c0-0.6,0-1.4,0-2.4c0-0.9,0-2.1,0-3.4c0-1.3,0-2.5,0-3.4c0-0.9,0-1.7,0-2.4
			c0.1-2.9,0.7-5.4,1.8-7.5c1.1-2.1,2.5-3.8,4.2-5.2c1.8-1.3,3.8-2.3,6.2-3c2.4-0.6,4.9-0.9,7.6-0.9c1.6,0,3.2,0.1,4.8,0.3
			c1.6,0.2,3.2,0.6,4.8,1.2c1.5,0.5,3,1.3,4.3,2.1c1.3,0.9,2.5,2,3.5,3.3c1.6,2,2.4,4.1,2.5,6.3c0,0.4-0.1,0.7-0.4,0.9
			c-0.3,0.3-0.7,0.4-1,0.4h-9.7c-0.3,0-0.7-0.1-1-0.3c-0.2-0.2-0.4-0.4-0.6-0.6c-0.6-1.6-1.6-2.7-2.8-3.3c-1.2-0.7-2.7-1-4.3-1
			c-4.8,0-7.4,2.5-7.6,7.5c0,0.6,0,1.3,0,2.2c0,0.9,0,2,0,3.2c0,1.2,0,2.3,0,3.2c0,0.9,0,1.7,0,2.3c0.1,2.7,0.8,4.6,2.1,6
			c1.3,1.3,3.5,2,6.6,2c1,0,1.8,0,2.5-0.1c0.6-0.1,1.2-0.2,1.6-0.3c0.4-0.1,0.8-0.3,1.2-0.6c0.3-0.2,0.7-0.5,1-0.8
			c0.9-0.8,1.5-1.8,1.8-3.1c0.2-0.7,0.4-1.2,0.8-1.7c0.4-0.4,0.8-0.8,1.2-1.1c0.4-0.3,0.9-0.5,1.3-0.6c0.4-0.1,0.8-0.2,1.1-0.2H388
			c-0.4,0-0.8-0.2-1.1-0.5c-0.3-0.3-0.5-0.7-0.5-1.1v-1.1c0-0.7,0.1-1.3,0.4-2c0.3-0.7,0.6-1.2,1.1-1.8c0.5-0.5,1-0.9,1.7-1.3
			c0.7-0.3,1.5-0.5,2.3-0.5h9.4c1.6,0,2.7,0.4,3.4,1.2c0.7,0.8,1,1.9,1,3.3v4.4c0,3-0.5,5.6-1.6,7.7c-1.1,2.1-2.5,3.9-4.4,5.3
			c-1.8,1.4-4,2.4-6.4,3.1c-2.4,0.7-5,1-7.7,1c-2.8,0-5.4-0.3-7.7-1c-2.4-0.7-4.4-1.7-6.2-3.1c-1.7-1.4-3.1-3.2-4.2-5.3
			C366.6,34,366,31.4,365.8,28.5z"/>
		<path fill="#2D2D2D" d="M0.4,103.2c-0.3-0.3-0.4-0.7-0.4-0.9c0-0.3,0-0.5,0.1-0.6l14.7-40.3c0.5-1.2,1.3-1.8,2.5-1.8h9.8
			c1.2,0,2.1,0.6,2.5,1.8l14.7,40.3c0,0.1,0.1,0.3,0.1,0.6c0,0.3-0.1,0.6-0.4,0.9c-0.3,0.3-0.6,0.4-0.9,0.4h-8.2
			c-1.1,0-1.8-0.5-2.1-1.4l-3.3-8.9c-1.5,0.6-3.1,1.1-4.6,1.5c-1.6,0.4-3.1,0.7-4.5,0.9c-1.5,0.2-2.8,0.3-4.1,0.4
			c-1.3,0.1-2.4,0.1-3.3,0.1c-0.6,0-1.1,0-1.5,0c-0.4,0-0.7,0-0.9-0.1c0.8,0.1,1.4,0.5,1.9,1.3c0.5,0.7,0.5,1.6,0.2,2.5l-0.9,2.4
			c-0.4,0.9-1.1,1.4-2.1,1.4H1.3C1,103.6,0.7,103.5,0.4,103.2z M16.4,87c1.2-0.1,2.4-0.2,3.7-0.4c1.1-0.2,2.2-0.4,3.4-0.7
			c1.2-0.3,2.3-0.8,3.4-1.4l-4.9-13.9L16.4,87z"/>
		<path fill="#2D2D2D" d="M50.6,101.8v-37c0-1,0.2-1.8,0.5-2.5c0.4-0.7,0.8-1.2,1.4-1.7c0.5-0.5,1.1-0.8,1.8-1
			c0.7-0.2,1.3-0.3,1.8-0.3h15.6c2.1,0,4.2,0.2,6.1,0.6c1.9,0.4,3.6,1.1,5,2.1c1.4,1,2.6,2.3,3.4,3.9c0.8,1.6,1.3,3.6,1.3,6
			c0,1.8-0.5,3.5-1.4,4.9c-0.9,1.5-2.2,2.7-3.8,3.5c1.9,0.8,3.4,2.1,4.5,3.9c1.1,1.8,1.6,3.7,1.6,5.7c0,2.4-0.4,4.5-1.3,6.2
			c-0.9,1.7-2,3.1-3.5,4.1c-1.5,1.1-3.2,1.9-5.2,2.3c-2,0.5-4,0.7-6.2,0.7h-20c-0.4,0-0.8-0.2-1.1-0.5
			C50.7,102.6,50.6,102.3,50.6,101.8z M70.3,76.8c1.4,0,2.6-0.4,3.5-1.2c0.9-0.8,1.3-1.9,1.3-3.4c0-1.5-0.5-2.6-1.4-3.3
			c-0.9-0.7-2.1-1.1-3.4-1.1H58.9c1,0,1.8,0.3,2.5,1c0.7,0.7,1,1.5,1,2.3V75c0,0.4,0.2,0.8,0.5,1.2c0.3,0.4,0.8,0.6,1.4,0.6H70.3z
			 M70.9,94.9c1.5,0,2.8-0.4,3.7-1.3c0.9-0.8,1.4-2,1.4-3.6c0-1.5-0.5-2.7-1.5-3.6c-1-0.9-2.2-1.4-3.7-1.4h-12c1,0,1.8,0.3,2.5,1
			c0.7,0.7,1,1.5,1,2.3V93c0,0.4,0.2,0.8,0.5,1.3c0.3,0.4,0.8,0.6,1.4,0.6H70.9z"/>
		<path fill="#2D2D2D" d="M130.3,59.4c0.5,0,0.9,0.2,1.2,0.5c0.3,0.3,0.5,0.7,0.5,1.1V68c0,0.5-0.2,0.8-0.5,1.1
			c-0.3,0.3-0.7,0.4-1.2,0.4h-14.7c0.9,0,1.8,0.3,2.5,1c0.7,0.7,1.1,1.4,1.1,2.3v29c0,0.5-0.2,0.8-0.5,1.1c-0.3,0.3-0.7,0.4-1.1,0.4
			h-8.8c-0.5,0-0.8-0.1-1.1-0.4c-0.3-0.3-0.5-0.6-0.5-1.1V71.5c0-0.6-0.2-1.1-0.6-1.4c-0.4-0.3-0.8-0.5-1.3-0.5H96
			c-0.4,0-0.8-0.1-1.1-0.4c-0.3-0.3-0.5-0.7-0.5-1.1v-3.2c0-0.8,0.2-1.5,0.5-2.2c0.3-0.7,0.7-1.3,1.3-1.7c0.5-0.5,1.1-0.9,1.8-1.1
			c0.7-0.3,1.3-0.4,2-0.4H130.3z"/>
		<path fill="#2D2D2D" d="M156.4,104.2c-6,0-10.7-1.5-14.2-4.4c-3.5-2.9-5.3-7.2-5.5-12.8c0-1.2-0.1-3-0.1-5.4c0-2.4,0-4.3,0.1-5.5
			c0.2-5.6,2-9.9,5.5-12.9c3.5-3,8.2-4.5,14.1-4.5c5.9,0,10.5,1.5,14.1,4.5c3.5,3,5.4,7.3,5.5,12.9c0.1,2.4,0.1,4.3,0.1,5.5
			c0,1.3,0,3.1-0.1,5.4c-0.2,5.6-2,9.9-5.5,12.8C167.1,102.8,162.4,104.2,156.4,104.2z M156.4,94.8c2.2,0,3.9-0.7,5.2-2
			c1.3-1.3,2-3.4,2.1-6.1c0.1-2.4,0.1-4.2,0.1-5.2c0-1.1,0-2.8-0.1-5.1c-0.1-2.7-0.8-4.8-2.1-6.1c-1.3-1.3-3.1-2-5.2-2
			c-2.2,0-4,0.7-5.3,2c-1.3,1.3-2,3.4-2.1,6.1c0,1.2-0.1,2.9-0.1,5.1c0,2.3,0,4,0.1,5.2c0.1,2.7,0.8,4.8,2.1,6.1
			C152.4,94.1,154.2,94.8,156.4,94.8z"/>
		<path fill="#2D2D2D" d="M216.9,59.4c0.5,0,0.9,0.2,1.2,0.5c0.3,0.3,0.5,0.7,0.5,1.1V68c0,0.5-0.2,0.8-0.5,1.1
			c-0.3,0.3-0.7,0.4-1.2,0.4h-14.7c0.9,0,1.8,0.3,2.5,1c0.7,0.7,1.1,1.4,1.1,2.3v29c0,0.5-0.2,0.8-0.5,1.1c-0.3,0.3-0.7,0.4-1.1,0.4
			h-8.8c-0.5,0-0.8-0.1-1.1-0.4c-0.3-0.3-0.5-0.6-0.5-1.1V71.5c0-0.6-0.2-1.1-0.6-1.4c-0.4-0.3-0.8-0.5-1.3-0.5h-9.2
			c-0.4,0-0.8-0.1-1.1-0.4c-0.3-0.3-0.5-0.7-0.5-1.1v-3.2c0-0.8,0.2-1.5,0.5-2.2c0.3-0.7,0.7-1.3,1.3-1.7c0.5-0.5,1.1-0.9,1.8-1.1
			c0.7-0.3,1.3-0.4,2-0.4H216.9z"/>
		<path fill="#2D2D2D" d="M263.8,74c0,2.7-0.5,4.9-1.4,6.7c-0.9,1.8-2.2,3.3-3.8,4.4c-1.6,1.1-3.4,1.9-5.5,2.4
			c-2.1,0.5-4.4,0.7-6.8,0.7H241c-0.5,0-0.9,0.2-1.3,0.5c-0.4,0.3-0.6,0.8-0.6,1.4v11.7c0,0.4-0.2,0.8-0.5,1.1
			c-0.3,0.3-0.7,0.5-1.1,0.5h-9c-0.4,0-0.8-0.2-1.1-0.5c-0.3-0.3-0.5-0.7-0.5-1.1v-37c0-0.9,0.2-1.7,0.5-2.4
			c0.3-0.7,0.8-1.3,1.3-1.7c0.5-0.5,1.1-0.8,1.8-1c0.6-0.2,1.3-0.3,1.9-0.3h13.9c2.4,0,4.7,0.3,6.8,0.8c2.1,0.5,4,1.4,5.6,2.5
			c1.6,1.2,2.8,2.7,3.7,4.5C263.3,69,263.8,71.3,263.8,74z M251.5,73.9c0-1.8-0.5-3.1-1.4-4.1c-0.9-0.9-2.3-1.4-4.1-1.4h-10.7
			c0.3,0,0.7,0.1,1.1,0.2c0.4,0.1,0.8,0.4,1.2,0.7c0.4,0.3,0.7,0.7,0.9,1.1c0.3,0.4,0.4,0.9,0.4,1.5v5.4c0,0.6,0.2,1.1,0.6,1.4
			c0.4,0.4,0.9,0.5,1.4,0.5h5.1c1.7,0,3.1-0.5,4-1.4C251,77,251.5,75.6,251.5,73.9z"/>
		<path fill="#2D2D2D" d="M268.7,103.2c-0.3-0.3-0.4-0.7-0.4-0.9c0-0.3,0-0.5,0.1-0.6L283,61.4c0.5-1.2,1.3-1.8,2.5-1.8h9.8
			c1.2,0,2.1,0.6,2.5,1.8l14.7,40.3c0,0.1,0.1,0.3,0.1,0.6c0,0.3-0.1,0.6-0.4,0.9c-0.3,0.3-0.6,0.4-0.9,0.4h-8.2
			c-1.1,0-1.8-0.5-2.2-1.4l-3.3-8.9c-1.5,0.6-3.1,1.1-4.6,1.5c-1.6,0.4-3.1,0.7-4.5,0.9c-1.5,0.2-2.8,0.3-4.1,0.4
			c-1.3,0.1-2.4,0.1-3.3,0.1c-0.6,0-1.1,0-1.5,0c-0.4,0-0.7,0-0.9-0.1c0.8,0.1,1.4,0.5,1.9,1.3c0.5,0.7,0.5,1.6,0.2,2.5l-0.9,2.4
			c-0.4,0.9-1.1,1.4-2.1,1.4h-8.2C269.3,103.6,269,103.5,268.7,103.2z M284.7,87c1.2-0.1,2.4-0.2,3.7-0.4c1.1-0.2,2.2-0.4,3.4-0.7
			c1.2-0.3,2.3-0.8,3.4-1.4l-4.9-13.9L284.7,87z"/>
		<path fill="#2D2D2D" d="M320.3,102V65c0-1.6,0.5-2.9,1.6-3.9c1.1-1.1,2.4-1.6,3.9-1.6h4.7c1.1,0,1.6,0.5,1.6,1.6v14.7
			c0,0.7,0.3,1.2,0.8,1.5c0.5,0.3,0.9,0.4,1.2,0.4c2.6,0,4.8-0.2,6.5-0.6c1.7-0.4,3.4-0.9,5.1-1.6c0.3-0.2,0.6-0.4,0.9-0.7
			c0.3-0.3,0.4-0.7,0.4-1.1V65c0-0.8,0.2-1.6,0.5-2.3c0.3-0.7,0.7-1.3,1.3-1.7c0.5-0.5,1.1-0.9,1.8-1.1c0.7-0.3,1.3-0.4,2-0.4h4.7
			c1.1,0,1.6,0.5,1.6,1.6V102c0,0.5-0.1,0.9-0.4,1.2c-0.3,0.3-0.7,0.4-1.2,0.4h-8.5c-0.4,0-0.8-0.1-1.1-0.4
			c-0.3-0.3-0.5-0.7-0.5-1.1V87c0-0.6-0.2-1.1-0.6-1.4c-0.4-0.3-0.8-0.4-1.3-0.4c-0.2,0-0.4,0-0.6,0.1c-2.1,0.6-4.1,1-6.2,1.1
			c-2.1,0.2-3.9,0.3-5.5,0.3c-0.8,0-1.6,0-2.1,0c-0.6,0-1.1,0-1.4,0c0.8,0.1,1.5,0.5,2.1,1.1c0.6,0.6,0.9,1.3,0.9,2.2V102
			c0,0.5-0.1,0.9-0.4,1.2c-0.3,0.3-0.7,0.4-1.2,0.4h-8.6c-0.5,0-0.8-0.1-1.1-0.4C320.4,102.8,320.3,102.4,320.3,102z"/>
		<path fill="#2D2D2D" d="M388.3,104.2c-6,0-10.8-1.5-14.2-4.4c-3.4-2.9-5.3-7.2-5.5-12.8c0-1.1-0.1-3-0.1-5.6c0-2.6,0-4.5,0.1-5.7
			c0.2-5.5,2.1-9.7,5.5-12.7c3.5-3,8.2-4.5,14.1-4.5c3.8,0,7.1,0.6,10.1,1.8c3,1.2,5.3,3,7.1,5.3c1.7,2.3,2.6,5.1,2.7,8.2
			c0,0.4-0.1,0.7-0.4,0.9c-0.3,0.3-0.6,0.4-1,0.4h-9c-0.6,0-1-0.1-1.3-0.3c-0.3-0.2-0.5-0.7-0.7-1.3c-0.6-2.1-1.5-3.5-2.7-4.3
			c-1.2-0.8-2.8-1.2-4.8-1.2c-4.8,0-7.2,2.7-7.4,8c0,1.1-0.1,2.9-0.1,5.2c0,2.4,0,4.2,0.1,5.4c0.2,5.3,2.6,8,7.4,8
			c1.9,0,3.5-0.4,4.8-1.3c1.2-0.8,2.1-2.3,2.7-4.3c0.2-0.6,0.4-1.1,0.7-1.3c0.3-0.2,0.7-0.3,1.3-0.3h9c0.4,0,0.7,0.1,1,0.4
			c0.3,0.3,0.4,0.6,0.4,0.9c-0.1,3.2-1,5.9-2.7,8.2c-1.7,2.3-4.1,4.1-7.1,5.3C395.4,103.6,392,104.2,388.3,104.2z"/>
	</g>
</g>
<g id="Layer_2">
</g>
</svg>
