<?xml version="1.0" encoding="iso-8859-1"?>
<!-- Generator: Adobe Illustrator 21.0.0, SVG Export Plug-In . SVG Version: 6.00 Build 0)  -->
<svg version="1.1" id="Layer_1" xmlns="http://www.w3.org/2000/svg" xmlns:xlink="http://www.w3.org/1999/xlink" x="0px" y="0px" width="41" height="41" viewBox="0 0 60 60" xml:space="preserve">
	<path d="M21.02 28.977C18.75 26.412 15.723 25 12.494 25s-6.257 1.412-8.527 3.977c-4.612 5.21-4.612 13.688 0 18.9l8.527 9.632 8.527-9.634c4.613-5.21 4.613-13.688 0-18.9zM19.524 46.55l-7.03 7.94-7.03-7.94c-3.965-4.48-3.965-11.768 0-16.247C7.35 28.173 9.847 27 12.494 27s5.145 1.173 7.03 3.303c3.965 4.48 3.965 11.767 0 16.247zM48.747 24.507l6.464-7.286c3.48-3.92 3.48-10.295 0-14.215C53.49 1.067 51.196 0 48.747 0c-2.448 0-4.744 1.067-6.464 3.005-3.478 3.92-3.478 10.296 0 14.216l6.465 7.287zm-4.97-20.174C45.114 2.828 46.878 2 48.748 2c1.87 0 3.633.828 4.968 2.333 2.828 3.187 2.828 8.373 0 11.56l-4.968 5.6-4.97-5.6c-2.827-3.187-2.827-8.373 0-11.56zM52.604 54.517c-.54-.12-1.074.217-1.195.756-.116.51-.34.98-.664 1.392-.34.434-.267 1.063.168 1.404.184.143.4.213.617.213.298 0 .59-.13.788-.382.504-.64.864-1.395 1.042-2.187.12-.54-.217-1.075-.756-1.196zM31.995 31c-.433 0-.854-.078-1.252-.23-.512-.195-1.093.062-1.29.578-.197.516.062 1.094.577 1.29.626.24 1.285.36 1.963.362h.357c.553 0 1-.447 1-1s-.447-1-1-1h-.355zM29.62 24.676c.182 0 .364-.05.53-.15.442-.277.932-.446 1.453-.504.55-.06.945-.555.885-1.104s-.55-.94-1.104-.885c-.822.09-1.594.357-2.294.794-.47.292-.61.91-.32 1.378.19.304.517.47.85.47zM18.064 58h-2c-.553 0-1 .447-1 1s.447 1 1 1h2c.553 0 1-.447 1-1s-.448-1-1-1zM35.993 40c-.086 0-.17.002-.256.006-.552.022-.98.488-.958 1.04.02.538.464.96.997.96.014 0 .028 0 .042-.002L37.777 42c.553 0 1-.447 1-1s-.447-1-1-1h-1.785zM35.493 24h2c.553 0 1-.447 1-1s-.447-1-1-1h-2c-.553 0-1 .447-1 1s.447 1 1 1zM47.778 40c-.553 0-1 .447-1 1s.447 1 1 1h2c.553 0 1-.447 1-1s-.447-1-1-1h-2zM51.35 32c0-.553-.446-1-1-1h-2c-.552 0-1 .447-1 1s.448 1 1 1h2c.553 0 1-.447 1-1zM41.778 42h2c.553 0 1-.447 1-1s-.447-1-1-1h-2c-.553 0-1 .447-1 1s.448 1 1 1zM43.493 24c.553 0 1-.447 1-1s-.447-1-1-1h-2c-.553 0-1 .447-1 1s.447 1 1 1h2zM36.35 31c-.552 0-1 .447-1 1s.448 1 1 1h2c.554 0 1-.447 1-1s-.446-1-1-1h-2zM45.35 32c0-.553-.446-1-1-1h-2c-.552 0-1 .447-1 1s.448 1 1 1h2c.553 0 1-.447 1-1zM59.426 35.632c-.088-.546-.603-.92-1.146-.83-.546.088-.917.602-.83 1.147.03.177.045.358.043.55 0 .337-.048.67-.142.99-.154.53.15 1.085.68 1.24.094.027.188.04.28.04.434 0 .833-.282.96-.72.148-.502.223-1.023.223-1.542.002-.288-.02-.583-.067-.876zM42.064 58h-2c-.553 0-1 .447-1 1s.447 1 1 1h2c.553 0 1-.447 1-1s-.448-1-1-1zM36.064 58h-2c-.553 0-1 .447-1 1s.447 1 1 1h2c.553 0 1-.447 1-1s-.448-1-1-1zM47.065 50c0-.553-.447-1-1-1h-2c-.553 0-1 .447-1 1s.447 1 1 1h2c.552 0 1-.447 1-1zM41.065 50c0-.553-.447-1-1-1h-2c-.553 0-1 .447-1 1s.447 1 1 1h2c.552 0 1-.447 1-1zM47.993 58h-1.93c-.553 0-1 .447-1 1s.447 1 1 1h1.97l.03-1v1c.553 0 .965-.448.965-1 0-.553-.482-1-1.035-1zM51.53 52.72c.217 0 .436-.07.618-.215.435-.342.51-.97.168-1.404-.503-.638-1.152-1.166-1.88-1.527-.496-.247-1.094-.044-1.34.45-.246.495-.044 1.095.45 1.34.463.23.877.567 1.197.975.198.25.49.38.788.38zM55.345 39.73c-.43.18-.883.27-1.352.27h-.215c-.553 0-1 .447-1 1s.447 1 1 1h.215c.736 0 1.45-.144 2.125-.427.51-.214.75-.8.535-1.31-.213-.508-.803-.748-1.308-.534zM28.03 29.855c.523-.173.81-.738.637-1.263-.115-.35-.174-.718-.174-1.088 0-.15.01-.302.028-.45.07-.547-.318-1.048-.866-1.116-.565-.063-1.05.32-1.117.867-.028.226-.043.456-.044.694 0 .587.092 1.165.273 1.717.14.42.53.688.95.688.104 0 .21-.015.313-.05zM24.064 58h-2c-.553 0-1 .447-1 1s.447 1 1 1h2c.553 0 1-.447 1-1s-.448-1-1-1zM34.122 50.594c.38 0 .742-.217.91-.584.23-.503.01-1.096-.493-1.325-.47-.215-.895-.538-1.23-.936-.355-.424-.985-.48-1.408-.123-.423.355-.478.986-.122 1.41.524.622 1.19 1.13 1.927 1.466.135.06.276.09.415.09zM56.746 31.738c-.714-.414-1.494-.657-2.317-.722-.55-.04-1.033.367-1.076.92-.043.55.368 1.03.92 1.074.52.04 1.016.195 1.47.458.157.092.33.135.5.135.345 0 .68-.18.866-.498.277-.477.114-1.09-.364-1.367zM30.064 58h-2c-.553 0-1 .447-1 1s.447 1 1 1h2c.553 0 1-.447 1-1s-.448-1-1-1zM32.555 44.84c.1-.515.307-.99.62-1.414.326-.444.23-1.07-.214-1.398-.444-.326-1.07-.232-1.397.213-.49.667-.817 1.414-.973 2.223-.104.542.25 1.066.794 1.17.063.013.127.02.19.02.47-.003.888-.336.98-.814z"></path><path d="M48.993 15c3.032 0 5.5-2.468 5.5-5.5S52.025 4 48.993 4s-5.5 2.468-5.5 5.5 2.468 5.5 5.5 5.5zm0-9c1.93 0 3.5 1.57 3.5 3.5s-1.57 3.5-3.5 3.5-3.5-1.57-3.5-3.5 1.57-3.5 3.5-3.5zM12.493 31c-3.31 0-6 2.69-6 6s2.69 6 6 6 6-2.69 6-6-2.69-6-6-6zm0 10c-2.206 0-4-1.794-4-4s1.794-4 4-4 4 1.794 4 4-1.794 4-4 4z"></path>
</svg>