<?xml version="1.0" encoding="utf-8"?>
<!-- Generator: Adobe Illustrator 21.1.0, SVG Export Plug-In . SVG Version: 6.00 Build 0)  -->
<svg version="1.1" id="Layer_1" xmlns="http://www.w3.org/2000/svg" xmlns:xlink="http://www.w3.org/1999/xlink" x="0px" y="0px"
	 viewBox="0 0 50 50" style="enable-background:new 0 0 50 50;" xml:space="preserve">
<g>
	<path d="M24.8,38.5c-1.9,1.2-4.6,0.5-5.7-1.3L11,24.1c-1.1-1.8-0.6-4.3,1.3-5.4l-0.6-0.9l0.6,0.9l7.1-4.4L13.1,4.3L6.1,8.6l0,0
		c-6.9,4.3-6.7,15.5,0.5,27.2c3.3,5.4,7.5,9.7,11.8,12c2.5,1.4,5,2.1,7.3,2.1c1.9,0,3.8-0.5,5.4-1.5l6.8-4.2l-6.2-10.1L24.8,38.5z
		 M29.9,46.7c-3.7,2.3-7.8,0.9-10.5-0.7c-4-2.2-7.9-6.2-11-11.3C1.8,24,1.3,14,7.2,10.4L6.6,9.5l0.6,0.9l5.3-3.2l4,6.5l-5.3,3.3l0,0
		c-2.8,1.7-3.7,5.5-2,8.3l8.1,13.1c1.7,2.8,5.7,3.7,8.6,2l5-3.1l4,6.5L29.9,46.7z"/>
	<path d="M32,19.5c1.6,2.4,1.9,5.3,1,8.1l2,0.7c1.1-3.3,0.7-6.9-1.3-9.9c-2-3-5.3-5-9-5.2l-0.1,2.1C27.7,15.4,30.4,16.9,32,19.5z"/>
	<path d="M26.3,6.1L26,8.2c4.9,0.6,9.2,3.3,11.9,7.4c2.6,4,3.3,8.9,2,13.5l2,0.6c1.5-5.2,0.7-10.7-2.3-15.2
		C36.7,9.8,31.8,6.8,26.3,6.1z"/>
	<path d="M45,11C41.1,5,34.7,1,27.6,0l-0.3,2.1C33.8,3,39.6,6.7,43.2,12.2c3.5,5.4,4.6,12.1,2.9,18.3l2,0.5C50,24.2,48.8,16.9,45,11
		z"/>
</g>
</svg>
