<?xml version="1.0" encoding="iso-8859-1"?>
<!-- Generator: Adobe Illustrator 21.0.0, SVG Export Plug-In . SVG Version: 6.00 Build 0)  -->
<svg xmlns="http://www.w3.org/2000/svg" width="38" height="41" viewBox="0 0 38 41">
	<path d="M20.57 26.33c.68-.06 1.3-.4 1.7-.98l6.15-8.63a.67.67 0 0 0-.07-.86.64.64 0 0 0-.84-.07L19 22.03c-.54.4-.9 1.04-.94 1.73a2.35 2.35 0 0 0 2.5 2.56zm-1.2-2.45c.02-.3.17-.6.4-.77l5.2-3.8-3.75 5.27a1.02 1.02 0 0 1-1.85-.7zm15.9-9.84l-.02-.04-.03-.03a17.5 17.5 0 0 0-2.34-3.2l1.4-1.44.94.94L38 7.44 35.22 4.6l-2.78 2.84.93.95-1.4 1.42c-.97-.9-2.03-1.7-3.17-2.38l-.03-.03h-.04A17.4 17.4 0 0 0 22 5.13v-.8h.97c.9 0 1.64-.74 1.64-1.66 0-.92-.72-1.67-1.63-1.67h-5.9c-.9 0-1.64.75-1.64 1.67 0 .92.73 1.66 1.64 1.66h.98v.77c-.7.08-1.4.2-2.1.36a.67.67 0 0 0 .28 1.3c.6-.14 1.2-.25 1.82-.32l.7-.05.6-.05v1.32c0 .37.3.66.67.66.36 0 .65-.3.65-.66V6.35c2.47.12 4.8.8 6.86 1.9L26.9 9.4a.67.67 0 0 0 .56 1c.22 0 .44-.13.56-.35l.65-1.13c2.05 1.32 3.8 3.1 5.1 5.18l-1.12.66a.68.68 0 0 0-.24.9.65.65 0 0 0 .9.25l1.13-.65a16.84 16.84 0 0 1 1.87 7.08H35a.67.67 0 0 0 0 1.34h1.3c-.1 2.54-.77 4.94-1.87 7.08l-1.12-.66a.65.65 0 0 0-.9.23.68.68 0 0 0 .25.9l1.12.67a16.68 16.68 0 0 1-5.1 5.18l-.64-1.14a.66.66 0 0 0-.9-.24.67.67 0 0 0-.24.9l.64 1.15a16.14 16.14 0 0 1-6.86 1.9v-1.32c0-.36-.3-.66-.66-.66-.36 0-.66.3-.66.66v1.32a16.46 16.46 0 0 1-3.13-.4.65.65 0 0 0-.78.5c-.1.35.13.7.5.8 1.3.3 2.63.45 3.96.45h.13a17.4 17.4 0 0 0 8.68-2.38l.07-.03.03-.04a18 18 0 0 0 6.4-6.5l.05-.06v-.04a18.17 18.17 0 0 0 .02-17.9zm-.05-7.54l.93.94-.93.95-.93-.96zM19.36 5V3h-2.3a.33.33 0 0 1 0-.67h5.9a.33.33 0 0 1 0 .67h-2.3v2h-1.31zm-5.25 5.33h-3.27c-.36 0-.65.3-.65.67 0 .37.3.67.65.67h3.28c.38 0 .67-.3.67-.67a.66.66 0 0 0-.66-.67zm0 4.67H7.56c-.36 0-.65.3-.65.67 0 .37.3.66.65.66h6.56c.38 0 .67-.3.67-.66a.66.66 0 0 0-.66-.67zm0 4.67H4.28c-.36 0-.65.3-.65.66 0 .37.3.67.65.67h9.84c.38 0 .67-.3.67-.67a.66.66 0 0 0-.66-.66zm0 4.66H1.66a.67.67 0 0 0 0 1.34H14.1c.38 0 .67-.3.67-.67a.66.66 0 0 0-.66-.67zm0 4.67H5.6c-.38 0-.67.3-.67.67 0 .36.3.66.66.66h8.5c.38 0 .67-.3.67-.66a.66.66 0 0 0-.66-.67zm0 4.67H9.53c-.36 0-.65.3-.65.66 0 .37.3.67.65.67h4.6c.36 0 .65-.3.65-.67a.66.66 0 0 0-.66-.66z"></path>
</svg>